<?xml version="1.0" encoding="UTF-8" standalone="no"?>
<!-- Created with Inkscape (http://www.inkscape.org/) -->

<svg
   version="1.1"
   id="svg1"
   width="359.71191"
   height="39.881134"
   viewBox="0 0 359.71191 39.881134"
   sodipodi:docname="Biunitarity.svg"
   inkscape:version="1.3.2 (091e20e, 2023-11-25)"
   xmlns:inkscape="http://www.inkscape.org/namespaces/inkscape"
   xmlns:sodipodi="http://sodipodi.sourceforge.net/DTD/sodipodi-0.dtd"
   xmlns="http://www.w3.org/2000/svg"
   xmlns:svg="http://www.w3.org/2000/svg">
  <defs
     id="defs1">
    <clipPath
       clipPathUnits="userSpaceOnUse"
       id="clipPath103">
      <path
         d="M 0,0 H 362.835 V 272.12601 H 0 Z"
         transform="matrix(1,0,0,-1,-2.4986757e-5,272.12601)"
         id="path103" />
    </clipPath>
    <clipPath
       clipPathUnits="userSpaceOnUse"
       id="clipPath104">
      <path
         d="M 0,0 H 362.835 V 272.12601 H 0 Z"
         transform="matrix(-1,0,0,1,2.4986757e-5,-272.12601)"
         id="path104" />
    </clipPath>
    <clipPath
       clipPathUnits="userSpaceOnUse"
       id="clipPath105">
      <path
         d="M 0,0 H 362.835 V 272.12601 H 0 Z"
         transform="matrix(1,0,0,-1,-2.4986757e-5,272.12601)"
         id="path105" />
    </clipPath>
    <clipPath
       clipPathUnits="userSpaceOnUse"
       id="clipPath106">
      <path
         d="M 0,0 H 362.835 V 272.12601 H 0 Z"
         transform="matrix(1,0,0,-1,-2.4986757e-5,272.12601)"
         id="path106" />
    </clipPath>
    <clipPath
       clipPathUnits="userSpaceOnUse"
       id="clipPath107">
      <path
         d="M 0,0 H 362.835 V 272.12601 H 0 Z"
         transform="matrix(1,0,0,-1,-2.4986757e-5,272.12601)"
         id="path107" />
    </clipPath>
    <clipPath
       clipPathUnits="userSpaceOnUse"
       id="clipPath108">
      <path
         d="M 0,0 H 362.835 V 272.12601 H 0 Z"
         transform="matrix(1,0,0,-1,-2.4986757e-5,272.12601)"
         id="path108" />
    </clipPath>
    <clipPath
       clipPathUnits="userSpaceOnUse"
       id="clipPath109">
      <path
         d="M 0,0 H 362.835 V 272.12601 H 0 Z"
         transform="matrix(1,0,0,-1,-2.4986757e-5,272.12601)"
         id="path109" />
    </clipPath>
    <clipPath
       clipPathUnits="userSpaceOnUse"
       id="clipPath110">
      <path
         d="M 0,0 H 362.835 V 272.12601 H 0 Z"
         transform="matrix(1,0,0,-1,-2.4986757e-5,272.12601)"
         id="path110" />
    </clipPath>
    <clipPath
       clipPathUnits="userSpaceOnUse"
       id="clipPath111">
      <path
         d="M 0,0 H 362.835 V 272.12601 H 0 Z"
         transform="matrix(1,0,0,-1,-2.4986757e-5,272.12601)"
         id="path111" />
    </clipPath>
    <clipPath
       clipPathUnits="userSpaceOnUse"
       id="clipPath112">
      <path
         d="M 0,0 H 362.835 V 272.12601 H 0 Z"
         transform="matrix(1,0,0,-1,-2.4986757e-5,272.12601)"
         id="path112" />
    </clipPath>
    <clipPath
       clipPathUnits="userSpaceOnUse"
       id="clipPath113">
      <path
         d="M 0,0 H 362.835 V 272.12601 H 0 Z"
         transform="matrix(1,0,0,-1,-2.4986757e-5,272.12601)"
         id="path113" />
    </clipPath>
    <clipPath
       clipPathUnits="userSpaceOnUse"
       id="clipPath114">
      <path
         d="M 0,0 H 362.835 V 272.12601 H 0 Z"
         transform="matrix(1,0,0,-1,-2.4986757e-5,272.12601)"
         id="path114" />
    </clipPath>
    <clipPath
       clipPathUnits="userSpaceOnUse"
       id="clipPath115">
      <path
         d="M 0,0 H 362.835 V 272.12601 H 0 Z"
         transform="matrix(1,0,0,-1,-2.4986757e-5,272.12601)"
         id="path115" />
    </clipPath>
    <clipPath
       clipPathUnits="userSpaceOnUse"
       id="clipPath116">
      <path
         d="M 0,0 H 362.835 V 272.12601 H 0 Z"
         transform="matrix(1,0,0,-1,-2.4986757e-5,272.12601)"
         id="path116" />
    </clipPath>
    <clipPath
       clipPathUnits="userSpaceOnUse"
       id="clipPath117">
      <path
         d="M 0,0 H 362.835 V 272.12601 H 0 Z"
         transform="matrix(1,0,0,-1,-2.4986757e-5,272.12601)"
         id="path117" />
    </clipPath>
    <clipPath
       clipPathUnits="userSpaceOnUse"
       id="clipPath118">
      <path
         d="M 0,0 H 362.835 V 272.12601 H 0 Z"
         transform="matrix(1,0,0,-1,-2.4986757e-5,272.12601)"
         id="path118" />
    </clipPath>
    <clipPath
       clipPathUnits="userSpaceOnUse"
       id="clipPath119">
      <path
         d="M 0,0 H 362.835 V 272.12601 H 0 Z"
         transform="matrix(1,0,0,-1,-2.4986757e-5,272.12601)"
         id="path119" />
    </clipPath>
    <clipPath
       clipPathUnits="userSpaceOnUse"
       id="clipPath120">
      <path
         d="M 0,0 H 362.835 V 272.12601 H 0 Z"
         transform="matrix(1,0,0,-1,-2.4986757e-5,272.12601)"
         id="path120" />
    </clipPath>
    <clipPath
       clipPathUnits="userSpaceOnUse"
       id="clipPath121">
      <path
         d="M 0,0 H 362.835 V 272.12601 H 0 Z"
         transform="matrix(1,0,0,-1,-2.4986757e-5,272.12601)"
         id="path121" />
    </clipPath>
    <clipPath
       clipPathUnits="userSpaceOnUse"
       id="clipPath122">
      <path
         d="M 0,0 H 362.835 V 272.12601 H 0 Z"
         transform="matrix(1,0,0,-1,-2.4986757e-5,272.12601)"
         id="path122" />
    </clipPath>
    <clipPath
       clipPathUnits="userSpaceOnUse"
       id="clipPath123">
      <path
         d="M 0,0 H 362.835 V 272.12601 H 0 Z"
         transform="matrix(1,0,0,-1,-2.4986757e-5,272.12601)"
         id="path123" />
    </clipPath>
    <clipPath
       clipPathUnits="userSpaceOnUse"
       id="clipPath124">
      <path
         d="M 0,0 H 362.835 V 272.12601 H 0 Z"
         transform="matrix(1,0,0,-1,-2.4986757e-5,272.12601)"
         id="path124" />
    </clipPath>
    <clipPath
       clipPathUnits="userSpaceOnUse"
       id="clipPath125">
      <path
         d="M 0,0 H 362.835 V 272.12601 H 0 Z"
         transform="matrix(1,0,0,-1,-2.4986757e-5,272.12601)"
         id="path125" />
    </clipPath>
    <clipPath
       clipPathUnits="userSpaceOnUse"
       id="clipPath126">
      <path
         d="M 0,0 H 362.835 V 272.12601 H 0 Z"
         transform="matrix(1,0,0,-1,-2.4986757e-5,272.12601)"
         id="path126" />
    </clipPath>
    <clipPath
       clipPathUnits="userSpaceOnUse"
       id="clipPath127">
      <path
         d="M 0,0 H 362.835 V 272.12601 H 0 Z"
         transform="matrix(1,0,0,-1,-2.4986757e-5,272.12601)"
         id="path127" />
    </clipPath>
    <clipPath
       clipPathUnits="userSpaceOnUse"
       id="clipPath128">
      <path
         d="M 0,0 H 362.835 V 272.12601 H 0 Z"
         transform="matrix(1,0,0,-1,-2.4986757e-5,272.12601)"
         id="path128" />
    </clipPath>
    <clipPath
       clipPathUnits="userSpaceOnUse"
       id="clipPath129">
      <path
         d="M 0,0 H 362.835 V 272.12601 H 0 Z"
         transform="matrix(1,0,0,-1,-2.4986757e-5,272.12601)"
         id="path129" />
    </clipPath>
    <clipPath
       clipPathUnits="userSpaceOnUse"
       id="clipPath130">
      <path
         d="M 0,0 H 362.835 V 272.12601 H 0 Z"
         transform="matrix(1,0,0,-1,-2.4986757e-5,272.12601)"
         id="path130" />
    </clipPath>
    <clipPath
       clipPathUnits="userSpaceOnUse"
       id="clipPath131">
      <path
         d="M 0,0 H 362.835 V 272.12601 H 0 Z"
         transform="matrix(1,0,0,-1,-2.4986757e-5,272.12601)"
         id="path131" />
    </clipPath>
  </defs>
  <sodipodi:namedview
     id="namedview1"
     pagecolor="#ffffff"
     bordercolor="#666666"
     borderopacity="1.0"
     inkscape:showpageshadow="2"
     inkscape:pageopacity="0.0"
     inkscape:pagecheckerboard="0"
     inkscape:deskcolor="#d1d1d1"
     inkscape:zoom="0.65043402"
     inkscape:cx="4140.3123"
     inkscape:cy="122.9948"
     inkscape:window-width="1792"
     inkscape:window-height="1009"
     inkscape:window-x="0"
     inkscape:window-y="25"
     inkscape:window-maximized="0"
     inkscape:current-layer="g1895">
    <inkscape:page
       x="-0.0011618823"
       y="1.6282415e-06"
       width="359.71191"
       height="39.881134"
       id="page2"
       margin="0"
       bleed="0" />
  </sodipodi:namedview>
  <g
     id="g96"
     inkscape:groupmode="layer"
     inkscape:label="5"
     transform="translate(-2055.6918,-130.11798)">
    <path
       d="M 42.375,111.676 H 277.891"
       style="fill:none;stroke:#000000;stroke-width:0.75;stroke-linecap:butt;stroke-linejoin:miter;stroke-miterlimit:4;stroke-dasharray:none;stroke-opacity:1"
       transform="matrix(1.33404,0,0,1.33404,2014.9907,-0.09632238)"
       clip-path="url(#clipPath103)"
       id="path167" />
    <path
       d="m -274.891,-111.676 1.5,-1.5 -5.25,1.5 5.25,1.5 z"
       style="fill:#000000;fill-opacity:1;fill-rule:evenodd;stroke:#000000;stroke-width:0.4;stroke-linecap:butt;stroke-linejoin:miter;stroke-miterlimit:4;stroke-dasharray:none;stroke-opacity:1"
       transform="matrix(-1.33404,0,0,-1.33404,2014.9907,-0.09632238)"
       clip-path="url(#clipPath104)"
       id="path168" />
    <path
       d="m 299.547,123.582 c -0.106,0.125 -0.168,0.207 -0.293,0.352 -0.289,0.418 -0.453,0.539 -0.602,0.539 -0.183,0 -0.308,-0.164 -0.414,-0.539 -0.019,-0.102 -0.039,-0.184 -0.039,-0.227 -0.332,-1.348 -0.476,-1.949 -0.476,-2.137 0.578,-1.035 1.054,-1.613 1.285,-1.613 0.082,0 0.183,0.039 0.332,0.102 0.144,0.105 0.246,0.125 0.351,0.125 0.27,0 0.454,-0.188 0.454,-0.477 0,-0.269 -0.227,-0.477 -0.54,-0.477 -0.578,0 -1.074,0.477 -1.988,1.887 l -0.144,-0.726 c -0.188,-0.911 -0.332,-1.161 -0.703,-1.161 -0.293,0 -0.727,0.102 -1.536,0.372 l -0.144,0.062 0.039,0.188 c 0.519,-0.102 0.625,-0.145 0.746,-0.145 0.332,0 0.418,0.125 0.602,0.91 l 0.375,1.641 -1.079,1.531 c -0.269,0.414 -0.539,0.645 -0.683,0.645 -0.063,0 -0.207,-0.043 -0.332,-0.125 -0.168,-0.082 -0.313,-0.125 -0.438,-0.125 -0.246,0 -0.433,0.187 -0.433,0.457 0,0.351 0.269,0.558 0.664,0.558 0.394,0 0.558,-0.125 1.222,-0.933 0.352,-0.414 0.641,-0.766 1.18,-1.532 l 0.414,1.575 c 0.168,0.683 0.332,0.89 0.77,0.89 0.496,0 0.828,-0.312 1.593,-1.511 z"
       style="fill:#000000;fill-opacity:1;fill-rule:nonzero;stroke:none"
       transform="matrix(1.33404,0,0,1.33404,2014.9907,-0.09632238)"
       clip-path="url(#clipPath105)"
       id="path169" />
    <path
       d="m 68.766,100.492 c 0,1.594 -1.289,2.883 -2.883,2.883 -1.594,0 -2.883,-1.289 -2.883,-2.883 0,-1.59 1.289,-2.883 2.883,-2.883 1.594,0 2.883,1.293 2.883,2.883 z"
       style="fill:#000000;fill-opacity:1;fill-rule:nonzero;stroke:none"
       transform="matrix(1.33404,0,0,1.33404,2014.9907,-0.09632238)"
       clip-path="url(#clipPath106)"
       id="path170" />
    <path
       d="m 95.016,100.492 c 0,1.594 -1.289,2.883 -2.883,2.883 -1.594,0 -2.883,-1.289 -2.883,-2.883 0,-1.59 1.289,-2.883 2.883,-2.883 1.594,0 2.883,1.293 2.883,2.883 z"
       style="fill:#000000;fill-opacity:1;fill-rule:nonzero;stroke:none"
       transform="matrix(1.33404,0,0,1.33404,2014.9907,-0.09632238)"
       clip-path="url(#clipPath107)"
       id="path171" />
    <path
       d="m 121.266,100.492 c 0,1.594 -1.289,2.883 -2.883,2.883 -1.594,0 -2.883,-1.289 -2.883,-2.883 0,-1.59 1.289,-2.883 2.883,-2.883 1.594,0 2.883,1.293 2.883,2.883 z"
       style="fill:#000000;fill-opacity:1;fill-rule:nonzero;stroke:none"
       transform="matrix(1.33404,0,0,1.33404,2014.9907,-0.09632238)"
       clip-path="url(#clipPath108)"
       id="path172" />
    <path
       d="m 147.516,100.492 c 0,1.594 -1.289,2.883 -2.883,2.883 -1.594,0 -2.883,-1.289 -2.883,-2.883 0,-1.59 1.289,-2.883 2.883,-2.883 1.594,0 2.883,1.293 2.883,2.883 z"
       style="fill:#000000;fill-opacity:1;fill-rule:nonzero;stroke:none"
       transform="matrix(1.33404,0,0,1.33404,2014.9907,-0.09632238)"
       clip-path="url(#clipPath109)"
       id="path173" />
    <path
       d="m 173.766,100.492 c 0,1.594 -1.289,2.883 -2.883,2.883 -1.594,0 -2.883,-1.289 -2.883,-2.883 0,-1.59 1.289,-2.883 2.883,-2.883 1.594,0 2.883,1.293 2.883,2.883 z"
       style="fill:#000000;fill-opacity:1;fill-rule:nonzero;stroke:none"
       transform="matrix(1.33404,0,0,1.33404,2014.9907,-0.09632238)"
       clip-path="url(#clipPath110)"
       id="path174" />
    <path
       d="m 200.016,100.492 c 0,1.594 -1.289,2.883 -2.883,2.883 -1.594,0 -2.883,-1.289 -2.883,-2.883 0,-1.59 1.289,-2.883 2.883,-2.883 1.594,0 2.883,1.293 2.883,2.883 z"
       style="fill:#000000;fill-opacity:1;fill-rule:nonzero;stroke:none"
       transform="matrix(1.33404,0,0,1.33404,2014.9907,-0.09632238)"
       clip-path="url(#clipPath111)"
       id="path175" />
    <path
       d="m 226.266,100.492 c 0,1.594 -1.289,2.883 -2.883,2.883 -1.594,0 -2.883,-1.289 -2.883,-2.883 0,-1.59 1.289,-2.883 2.883,-2.883 1.594,0 2.883,1.293 2.883,2.883 z"
       style="fill:#000000;fill-opacity:1;fill-rule:nonzero;stroke:none"
       transform="matrix(1.33404,0,0,1.33404,2014.9907,-0.09632238)"
       clip-path="url(#clipPath112)"
       id="path176" />
    <path
       d="m 31.953,100.867 c 0,-0.414 -0.332,-0.765 -0.723,-0.765 -0.394,0 -0.726,0.332 -0.726,0.765 0,0.5 0.434,0.707 0.726,0.707 0.27,0 0.723,-0.23 0.723,-0.707 z"
       style="fill:#000000;fill-opacity:1;fill-rule:nonzero;stroke:none"
       transform="matrix(1.33404,0,0,1.33404,2014.9907,-0.09632238)"
       clip-path="url(#clipPath113)"
       id="path177" />
    <path
       d="m 37.902,100.867 c 0,-0.414 -0.332,-0.765 -0.726,-0.765 -0.395,0 -0.727,0.332 -0.727,0.765 0,0.5 0.438,0.707 0.727,0.707 0.269,0 0.726,-0.23 0.726,-0.707 z"
       style="fill:#000000;fill-opacity:1;fill-rule:nonzero;stroke:none"
       transform="matrix(1.33404,0,0,1.33404,2014.9907,-0.09632238)"
       clip-path="url(#clipPath114)"
       id="path178" />
    <path
       d="m 43.836,100.867 c 0,-0.414 -0.332,-0.765 -0.727,-0.765 -0.394,0 -0.726,0.332 -0.726,0.765 0,0.5 0.437,0.707 0.726,0.707 0.27,0 0.727,-0.23 0.727,-0.707 z"
       style="fill:#000000;fill-opacity:1;fill-rule:nonzero;stroke:none"
       transform="matrix(1.33404,0,0,1.33404,2014.9907,-0.09632238)"
       clip-path="url(#clipPath115)"
       id="path179" />
    <path
       d="m 252.828,100.867 c 0,-0.414 -0.332,-0.765 -0.723,-0.765 -0.394,0 -0.726,0.332 -0.726,0.765 0,0.5 0.433,0.707 0.726,0.707 0.27,0 0.723,-0.23 0.723,-0.707 z"
       style="fill:#000000;fill-opacity:1;fill-rule:nonzero;stroke:none"
       transform="matrix(1.33404,0,0,1.33404,2014.9907,-0.09632238)"
       clip-path="url(#clipPath116)"
       id="path180" />
    <path
       d="m 258.777,100.867 c 0,-0.414 -0.332,-0.765 -0.726,-0.765 -0.395,0 -0.727,0.332 -0.727,0.765 0,0.5 0.438,0.707 0.727,0.707 0.269,0 0.726,-0.23 0.726,-0.707 z"
       style="fill:#000000;fill-opacity:1;fill-rule:nonzero;stroke:none"
       transform="matrix(1.33404,0,0,1.33404,2014.9907,-0.09632238)"
       clip-path="url(#clipPath117)"
       id="path181" />
    <path
       d="m 264.711,100.867 c 0,-0.414 -0.332,-0.765 -0.727,-0.765 -0.394,0 -0.726,0.332 -0.726,0.765 0,0.5 0.437,0.707 0.726,0.707 0.27,0 0.727,-0.23 0.727,-0.707 z"
       style="fill:#000000;fill-opacity:1;fill-rule:nonzero;stroke:none"
       transform="matrix(1.33404,0,0,1.33404,2014.9907,-0.09632238)"
       clip-path="url(#clipPath118)"
       id="path182" />
    <path
       d="m 149.238,122.945 c 0,-2.695 -1.203,-4.558 -2.945,-4.558 -0.723,0 -1.285,0.226 -1.762,0.683 -0.765,0.746 -1.285,2.258 -1.285,3.813 0,1.429 0.438,2.984 1.059,3.73 0.496,0.582 1.16,0.891 1.949,0.891 0.66,0 1.223,-0.227 1.699,-0.684 0.766,-0.726 1.285,-2.258 1.285,-3.875 z m -1.285,0.039 c 0,2.758 -0.582,4.168 -1.699,4.168 -1.141,0 -1.723,-1.41 -1.723,-4.168 0,-2.796 0.582,-4.269 1.723,-4.269 1.117,0 1.699,1.492 1.699,4.269 z"
       style="fill:#000000;fill-opacity:1;fill-rule:nonzero;stroke:none"
       transform="matrix(1.33404,0,0,1.33404,2014.9907,-0.09632238)"
       clip-path="url(#clipPath119)"
       id="path183" />
    <path
       d="m 172.918,124.293 v -0.746 h -3.004 v -2.985 h -0.75 v 2.985 h -3.004 v 0.746 h 3.004 v 3.027 h 0.75 v -3.027 z"
       style="fill:#000000;fill-opacity:1;fill-rule:nonzero;stroke:none"
       transform="matrix(1.33404,0,0,1.33404,2014.9907,-0.09632238)"
       clip-path="url(#clipPath120)"
       id="path184" />
    <path
       d="m 178.938,127.32 v -0.211 c -1.036,0 -1.243,-0.144 -1.243,-0.765 v -7.938 l -0.105,-0.019 -2.383,1.199 v 0.187 c 0.145,-0.062 0.293,-0.125 0.352,-0.144 0.25,-0.106 0.457,-0.145 0.601,-0.145 0.27,0 0.395,0.188 0.395,0.621 v 5.989 c 0,0.437 -0.102,0.726 -0.309,0.851 -0.211,0.125 -0.394,0.164 -0.957,0.164 v 0.211 z"
       style="fill:#000000;fill-opacity:1;fill-rule:nonzero;stroke:none"
       transform="matrix(1.33404,0,0,1.33404,2014.9907,-0.09632238)"
       clip-path="url(#clipPath121)"
       id="path185" />
    <path
       d="m 200.234,124.293 v -0.746 h -3.004 v -2.985 h -0.746 v 2.985 h -3.007 v 0.746 h 3.007 v 3.027 h 0.746 v -3.027 z"
       style="fill:#000000;fill-opacity:1;fill-rule:nonzero;stroke:none"
       transform="matrix(1.33404,0,0,1.33404,2014.9907,-0.09632238)"
       clip-path="url(#clipPath122)"
       id="path186" />
    <path
       d="m 207.336,125.516 -0.168,-0.082 c -0.496,0.765 -0.664,0.89 -1.262,0.89 h -3.152 l 2.219,-2.344 c 1.179,-1.222 1.699,-2.238 1.699,-3.253 0,-1.325 -1.078,-2.34 -2.469,-2.34 -0.723,0 -1.406,0.289 -1.883,0.808 -0.437,0.453 -0.625,0.867 -0.851,1.821 l 0.269,0.062 c 0.539,-1.305 1.016,-1.719 1.93,-1.719 1.098,0 1.863,0.746 1.863,1.868 0,1.035 -0.621,2.257 -1.719,3.437 l -2.363,2.488 v 0.168 h 5.16 z"
       style="fill:#000000;fill-opacity:1;fill-rule:nonzero;stroke:none"
       transform="matrix(1.33404,0,0,1.33404,2014.9907,-0.09632238)"
       clip-path="url(#clipPath123)"
       id="path187" />
    <path
       d="m 227.551,124.293 v -0.746 h -3.004 v -2.985 h -0.746 v 2.985 h -3.008 v 0.746 h 3.008 v 3.027 h 0.746 v -3.027 z"
       style="fill:#000000;fill-opacity:1;fill-rule:nonzero;stroke:none"
       transform="matrix(1.33404,0,0,1.33404,2014.9907,-0.09632238)"
       clip-path="url(#clipPath124)"
       id="path188" />
    <path
       d="m 234.094,124.418 c 0,-0.664 -0.231,-1.285 -0.602,-1.699 -0.269,-0.293 -0.519,-0.457 -1.101,-0.707 0.914,-0.621 1.246,-1.098 1.246,-1.824 0,-1.079 -0.852,-1.801 -2.075,-1.801 -0.664,0 -1.242,0.226 -1.718,0.64 -0.395,0.352 -0.582,0.703 -0.871,1.493 l 0.187,0.062 c 0.539,-0.973 1.141,-1.41 1.969,-1.41 0.871,0 1.473,0.582 1.473,1.41 0,0.477 -0.211,0.953 -0.54,1.285 -0.394,0.395 -0.769,0.602 -1.66,0.91 v 0.168 c 0.766,0 1.078,0.043 1.391,0.145 0.828,0.312 1.344,1.058 1.344,1.969 0,1.097 -0.766,1.968 -1.739,1.968 -0.351,0 -0.621,-0.101 -1.097,-0.414 -0.418,-0.226 -0.625,-0.332 -0.852,-0.332 -0.312,0 -0.519,0.188 -0.519,0.477 0,0.457 0.582,0.746 1.515,0.746 1.016,0 2.051,-0.352 2.672,-0.891 0.621,-0.539 0.977,-1.304 0.977,-2.195 z"
       style="fill:#000000;fill-opacity:1;fill-rule:nonzero;stroke:none"
       transform="matrix(1.33404,0,0,1.33404,2014.9907,-0.09632238)"
       clip-path="url(#clipPath125)"
       id="path189" />
    <path
       d="m 113.113,123.547 h 6.758 v 0.746 h -6.758 z"
       style="fill:#000000;fill-opacity:1;fill-rule:nonzero;stroke:none"
       transform="matrix(1.33404,0,0,1.33404,2014.9907,-0.09632238)"
       clip-path="url(#clipPath126)"
       id="path190" />
    <path
       d="m 125.891,127.32 v -0.211 c -1.036,0 -1.243,-0.144 -1.243,-0.765 v -7.938 l -0.105,-0.019 -2.383,1.199 v 0.187 c 0.145,-0.062 0.289,-0.125 0.352,-0.144 0.25,-0.106 0.457,-0.145 0.601,-0.145 0.27,0 0.395,0.188 0.395,0.621 v 5.989 c 0,0.437 -0.106,0.726 -0.313,0.851 -0.207,0.125 -0.394,0.164 -0.953,0.164 v 0.211 z"
       style="fill:#000000;fill-opacity:1;fill-rule:nonzero;stroke:none"
       transform="matrix(1.33404,0,0,1.33404,2014.9907,-0.09632238)"
       clip-path="url(#clipPath127)"
       id="path191" />
    <path
       d="m 84.93,123.547 h 6.758 v 0.746 H 84.93 Z"
       style="fill:#000000;fill-opacity:1;fill-rule:nonzero;stroke:none"
       transform="matrix(1.33404,0,0,1.33404,2014.9907,-0.09632238)"
       clip-path="url(#clipPath128)"
       id="path192" />
    <path
       d="m 98.785,125.516 -0.164,-0.082 c -0.5,0.765 -0.664,0.89 -1.266,0.89 h -3.152 l 2.219,-2.344 c 1.183,-1.222 1.699,-2.238 1.699,-3.253 0,-1.325 -1.078,-2.34 -2.465,-2.34 -0.726,0 -1.41,0.289 -1.886,0.808 -0.434,0.453 -0.622,0.867 -0.852,1.821 l 0.27,0.062 c 0.539,-1.305 1.015,-1.719 1.929,-1.719 1.098,0 1.863,0.746 1.863,1.868 0,1.035 -0.621,2.257 -1.718,3.437 l -2.364,2.488 v 0.168 h 5.161 z"
       style="fill:#000000;fill-opacity:1;fill-rule:nonzero;stroke:none"
       transform="matrix(1.33404,0,0,1.33404,2014.9907,-0.09632238)"
       clip-path="url(#clipPath129)"
       id="path193" />
    <path
       d="m 56.746,123.547 h 6.758 v 0.746 h -6.758 z"
       style="fill:#000000;fill-opacity:1;fill-rule:nonzero;stroke:none"
       transform="matrix(1.33404,0,0,1.33404,2014.9907,-0.09632238)"
       clip-path="url(#clipPath130)"
       id="path194" />
    <path
       d="m 70.043,124.418 c 0,-0.664 -0.227,-1.285 -0.602,-1.699 -0.269,-0.293 -0.519,-0.457 -1.097,-0.707 0.91,-0.621 1.242,-1.098 1.242,-1.824 0,-1.079 -0.848,-1.801 -2.07,-1.801 -0.664,0 -1.246,0.226 -1.723,0.64 -0.395,0.352 -0.578,0.703 -0.871,1.493 l 0.187,0.062 c 0.539,-0.973 1.141,-1.41 1.969,-1.41 0.871,0 1.473,0.582 1.473,1.41 0,0.477 -0.207,0.953 -0.539,1.285 -0.395,0.395 -0.766,0.602 -1.66,0.91 v 0.168 c 0.769,0 1.078,0.043 1.39,0.145 0.828,0.312 1.348,1.058 1.348,1.969 0,1.097 -0.77,1.968 -1.742,1.968 -0.352,0 -0.621,-0.101 -1.098,-0.414 -0.414,-0.226 -0.621,-0.332 -0.852,-0.332 -0.308,0 -0.515,0.188 -0.515,0.477 0,0.457 0.578,0.746 1.512,0.746 1.015,0 2.05,-0.352 2.675,-0.891 0.621,-0.539 0.973,-1.304 0.973,-2.195 z"
       style="fill:#000000;fill-opacity:1;fill-rule:nonzero;stroke:none"
       transform="matrix(1.33404,0,0,1.33404,2014.9907,-0.09632238)"
       clip-path="url(#clipPath131)"
       id="path195" />
  </g>
</svg>
