<?xml version="1.0" encoding="utf-8" standalone="no"?>
<!DOCTYPE svg PUBLIC "-//W3C//DTD SVG 1.1//EN"
  "http://www.w3.org/Graphics/SVG/1.1/DTD/svg11.dtd">
<svg xmlns:xlink="http://www.w3.org/1999/xlink" width="288pt" height="216pt" viewBox="0 0 288 216" xmlns="http://www.w3.org/2000/svg" version="1.1">
 <metadata>
  <rdf:RDF xmlns:dc="http://purl.org/dc/elements/1.1/" xmlns:cc="http://creativecommons.org/ns#" xmlns:rdf="http://www.w3.org/1999/02/22-rdf-syntax-ns#">
   <cc:Work>
    <dc:type rdf:resource="http://purl.org/dc/dcmitype/StillImage"/>
    <dc:date>2023-12-13T17:49:05.196579</dc:date>
    <dc:format>image/svg+xml</dc:format>
    <dc:creator>
     <cc:Agent>
      <dc:title>Matplotlib v3.6.2, https://matplotlib.org/</dc:title>
     </cc:Agent>
    </dc:creator>
   </cc:Work>
  </rdf:RDF>
 </metadata>
 <defs>
  <style type="text/css">*{stroke-linejoin: round; stroke-linecap: butt}</style>
 </defs>
 <g id="figure_1">
  <g id="patch_1">
   <path d="M 0 216 
L 288 216 
L 288 0 
L 0 0 
z
" style="fill: #ffffff"/>
  </g>
  <g id="axes_1">
   <g id="patch_2">
    <path d="M 47.279434 174.324703 
L 269.985843 174.324703 
L 269.985843 25.353876 
L 47.279434 25.353876 
z
" style="fill: #ffffff"/>
   </g>
   <g id="matplotlib.axis_1">
    <g id="xtick_1">
     <g id="line2d_1">
      <defs>
       <path id="m72c942ace3" d="M 0 0 
L 0 3.5 
" style="stroke: #000000; stroke-width: 0.8"/>
      </defs>
      <g>
       <use xlink:href="#m72c942ace3" x="50.166556" y="174.324703" style="stroke: #000000; stroke-width: 0.8"/>
      </g>
     </g>
     <g id="text_1">
      <!-- $\mathdefault{750}$ -->
      <g transform="translate(42.694576 188.452941) scale(0.1 -0.1)">
       <defs>
        <path id="URWPalladioL-Roma-37" d="M 358 32 
L 416 -51 
C 666 -32 666 -32 710 -32 
C 755 -32 755 -32 1005 -51 
C 1274 649 1587 1317 2010 2087 
L 3181 4199 
L 3181 4372 
C 2490 4372 2266 4372 1747 4372 
C 1280 4372 966 4372 346 4372 
L 282 4359 
C 301 3750 301 3750 301 3685 
C 301 3614 301 3614 282 3031 
L 474 3031 
L 518 3390 
C 570 3789 614 3840 909 3840 
L 2618 3840 
C 2362 3313 2163 2941 1920 2549 
L 358 32 
z
" transform="scale(0.015625)"/>
        <path id="URWPalladioL-Roma-35" d="M 813 3877 
C 1638 3877 1997 3877 2765 3877 
L 2797 3907 
C 2784 4016 2784 4064 2784 4144 
C 2784 4229 2784 4277 2797 4386 
L 2765 4416 
C 2285 4416 1997 4416 1651 4416 
C 1299 4416 1018 4416 538 4416 
L 506 4403 
C 512 4011 518 3729 518 3523 
C 518 2977 499 2360 480 2077 
L 608 2038 
C 909 2341 1082 2432 1395 2432 
C 2010 2432 2394 1993 2394 1296 
C 2394 580 1984 160 1286 160 
C 941 160 621 277 531 444 
L 237 973 
L 83 883 
C 230 516 307 310 397 27 
C 576 -71 832 -128 1107 -128 
C 1536 -128 1990 59 2342 368 
C 2733 716 2938 1154 2938 1630 
C 2938 2359 2419 2874 1690 2874 
C 1382 2874 1152 2791 755 2554 
L 813 3877 
z
" transform="scale(0.015625)"/>
        <path id="URWPalladioL-Roma-30" d="M 1683 4416 
C 691 4416 186 3628 186 2077 
C 186 1326 320 680 544 366 
C 768 51 1126 -128 1523 -128 
C 2490 -128 2976 705 2976 2346 
C 2976 3749 2560 4416 1683 4416 
z
M 1568 4192 
C 2189 4192 2438 3564 2438 2025 
C 2438 661 2195 96 1606 96 
C 986 96 723 744 723 2308 
C 723 3660 960 4192 1568 4192 
z
" transform="scale(0.015625)"/>
       </defs>
       <use xlink:href="#URWPalladioL-Roma-37" transform="scale(0.996264)"/>
       <use xlink:href="#URWPalladioL-Roma-35" transform="translate(49.8132 0) scale(0.996264)"/>
       <use xlink:href="#URWPalladioL-Roma-30" transform="translate(99.626401 0) scale(0.996264)"/>
      </g>
     </g>
    </g>
    <g id="xtick_2">
     <g id="line2d_2">
      <g>
       <use xlink:href="#m72c942ace3" x="86.346037" y="174.324703" style="stroke: #000000; stroke-width: 0.8"/>
      </g>
     </g>
     <g id="text_2">
      <!-- $\mathdefault{1000}$ -->
      <g transform="translate(76.383397 188.452941) scale(0.1 -0.1)">
       <defs>
        <path id="URWPalladioL-Roma-31" d="M 429 3584 
L 493 3584 
L 1318 3956 
C 1325 3962 1331 3962 1338 3962 
C 1376 3962 1389 3905 1389 3751 
L 1389 613 
C 1389 276 1318 205 973 205 
L 614 205 
L 614 0 
C 1600 0 1600 0 1670 0 
C 1754 0 1894 0 2112 0 
C 2189 0 2413 0 2675 0 
L 2675 205 
L 2342 205 
C 1990 205 1926 276 1926 612 
L 1926 4443 
L 1837 4475 
C 1421 4257 966 4065 384 3860 
L 429 3584 
z
" transform="scale(0.015625)"/>
       </defs>
       <use xlink:href="#URWPalladioL-Roma-31" transform="scale(0.996264)"/>
       <use xlink:href="#URWPalladioL-Roma-30" transform="translate(49.8132 0) scale(0.996264)"/>
       <use xlink:href="#URWPalladioL-Roma-30" transform="translate(99.626401 0) scale(0.996264)"/>
       <use xlink:href="#URWPalladioL-Roma-30" transform="translate(149.439601 0) scale(0.996264)"/>
      </g>
     </g>
    </g>
    <g id="xtick_3">
     <g id="line2d_3">
      <g>
       <use xlink:href="#m72c942ace3" x="122.525517" y="174.324703" style="stroke: #000000; stroke-width: 0.8"/>
      </g>
     </g>
     <g id="text_3">
      <!-- $\mathdefault{1250}$ -->
      <g transform="translate(112.562877 188.452941) scale(0.1 -0.1)">
       <defs>
        <path id="URWPalladioL-Roma-32" d="M 102 160 
L 102 0 
C 1299 0 1299 0 1530 0 
C 1760 0 1760 0 2995 0 
C 2982 125 2982 186 2982 269 
C 2982 348 2982 407 2995 539 
C 2259 539 1965 539 781 539 
L 1946 1761 
C 2566 2414 2758 2763 2758 3238 
C 2758 3966 2259 4416 1446 4416 
C 986 4416 672 4288 358 3969 
L 250 3099 
L 435 3099 
L 518 3393 
C 621 3763 851 3923 1280 3923 
C 1830 3923 2182 3577 2182 3035 
C 2182 2555 1914 2083 1190 1316 
L 102 160 
z
" transform="scale(0.015625)"/>
       </defs>
       <use xlink:href="#URWPalladioL-Roma-31" transform="scale(0.996264)"/>
       <use xlink:href="#URWPalladioL-Roma-32" transform="translate(49.8132 0) scale(0.996264)"/>
       <use xlink:href="#URWPalladioL-Roma-35" transform="translate(99.626401 0) scale(0.996264)"/>
       <use xlink:href="#URWPalladioL-Roma-30" transform="translate(149.439601 0) scale(0.996264)"/>
      </g>
     </g>
    </g>
    <g id="xtick_4">
     <g id="line2d_4">
      <g>
       <use xlink:href="#m72c942ace3" x="158.704997" y="174.324703" style="stroke: #000000; stroke-width: 0.8"/>
      </g>
     </g>
     <g id="text_4">
      <!-- $\mathdefault{1500}$ -->
      <g transform="translate(148.742357 188.452941) scale(0.1 -0.1)">
       <use xlink:href="#URWPalladioL-Roma-31" transform="scale(0.996264)"/>
       <use xlink:href="#URWPalladioL-Roma-35" transform="translate(49.8132 0) scale(0.996264)"/>
       <use xlink:href="#URWPalladioL-Roma-30" transform="translate(99.626401 0) scale(0.996264)"/>
       <use xlink:href="#URWPalladioL-Roma-30" transform="translate(149.439601 0) scale(0.996264)"/>
      </g>
     </g>
    </g>
    <g id="xtick_5">
     <g id="line2d_5">
      <g>
       <use xlink:href="#m72c942ace3" x="194.884477" y="174.324703" style="stroke: #000000; stroke-width: 0.8"/>
      </g>
     </g>
     <g id="text_5">
      <!-- $\mathdefault{1750}$ -->
      <g transform="translate(184.921837 188.452941) scale(0.1 -0.1)">
       <use xlink:href="#URWPalladioL-Roma-31" transform="scale(0.996264)"/>
       <use xlink:href="#URWPalladioL-Roma-37" transform="translate(49.8132 0) scale(0.996264)"/>
       <use xlink:href="#URWPalladioL-Roma-35" transform="translate(99.626401 0) scale(0.996264)"/>
       <use xlink:href="#URWPalladioL-Roma-30" transform="translate(149.439601 0) scale(0.996264)"/>
      </g>
     </g>
    </g>
    <g id="xtick_6">
     <g id="line2d_6">
      <g>
       <use xlink:href="#m72c942ace3" x="231.063958" y="174.324703" style="stroke: #000000; stroke-width: 0.8"/>
      </g>
     </g>
     <g id="text_6">
      <!-- $\mathdefault{2000}$ -->
      <g transform="translate(221.101318 188.452941) scale(0.1 -0.1)">
       <use xlink:href="#URWPalladioL-Roma-32" transform="scale(0.996264)"/>
       <use xlink:href="#URWPalladioL-Roma-30" transform="translate(49.8132 0) scale(0.996264)"/>
       <use xlink:href="#URWPalladioL-Roma-30" transform="translate(99.626401 0) scale(0.996264)"/>
       <use xlink:href="#URWPalladioL-Roma-30" transform="translate(149.439601 0) scale(0.996264)"/>
      </g>
     </g>
    </g>
    <g id="xtick_7">
     <g id="line2d_7">
      <g>
       <use xlink:href="#m72c942ace3" x="267.243438" y="174.324703" style="stroke: #000000; stroke-width: 0.8"/>
      </g>
     </g>
     <g id="text_7">
      <!-- $\mathdefault{2250}$ -->
      <g transform="translate(257.280798 188.452941) scale(0.1 -0.1)">
       <use xlink:href="#URWPalladioL-Roma-32" transform="scale(0.996264)"/>
       <use xlink:href="#URWPalladioL-Roma-32" transform="translate(49.8132 0) scale(0.996264)"/>
       <use xlink:href="#URWPalladioL-Roma-35" transform="translate(99.626401 0) scale(0.996264)"/>
       <use xlink:href="#URWPalladioL-Roma-30" transform="translate(149.439601 0) scale(0.996264)"/>
      </g>
     </g>
    </g>
    <g id="text_8">
     <!-- $x$ -->
     <g transform="translate(156.141978 202.390589) scale(0.1 -0.1)">
      <defs>
       <path id="URWPalladioL-Ital-78" d="M 134 566 
C 134 438 122 357 83 153 
C 70 77 64 58 58 13 
C 154 -39 256 -64 333 -64 
C 544 -64 794 121 992 419 
L 1478 1164 
L 1549 725 
C 1632 184 1779 -64 2010 -64 
C 2150 -64 2355 44 2560 229 
L 2874 509 
L 2816 630 
C 2586 439 2426 344 2323 344 
C 2227 344 2144 408 2080 534 
C 2022 655 1952 890 1920 1075 
L 1805 1716 
L 2029 2028 
C 2330 2441 2502 2587 2701 2587 
C 2803 2587 2880 2536 2912 2441 
L 3002 2466 
L 3098 3008 
C 3021 3053 2963 3072 2906 3072 
C 2650 3072 2394 2842 1997 2257 
L 1760 1907 
L 1722 2212 
C 1645 2842 1472 3072 1094 3072 
C 928 3072 787 3021 730 2938 
L 358 2409 
L 467 2346 
C 659 2562 787 2651 909 2651 
C 1120 2651 1261 2391 1370 1767 
L 1440 1373 
L 1184 977 
C 909 549 691 344 512 344 
C 416 344 346 371 333 403 
L 262 585 
L 134 566 
z
" transform="scale(0.015625)"/>
      </defs>
      <use xlink:href="#URWPalladioL-Ital-78" transform="scale(0.996264)"/>
     </g>
    </g>
   </g>
   <g id="matplotlib.axis_2">
    <g id="ytick_1">
     <g id="line2d_8">
      <defs>
       <path id="m5cf6654241" d="M 0 0 
L -3.5 0 
" style="stroke: #000000; stroke-width: 0.8"/>
      </defs>
      <g>
       <use xlink:href="#m5cf6654241" x="47.279434" y="167.699709" style="stroke: #000000; stroke-width: 0.8"/>
      </g>
     </g>
     <g id="text_9">
      <!-- $\mathdefault{0}$ -->
      <g transform="translate(35.298114 171.263827) scale(0.1 -0.1)">
       <use xlink:href="#URWPalladioL-Roma-30" transform="scale(0.996264)"/>
      </g>
     </g>
    </g>
    <g id="ytick_2">
     <g id="line2d_9">
      <g>
       <use xlink:href="#m5cf6654241" x="47.279434" y="131.666637" style="stroke: #000000; stroke-width: 0.8"/>
      </g>
     </g>
     <g id="text_10">
      <!-- $\mathdefault{200}$ -->
      <g transform="translate(25.335474 135.230756) scale(0.1 -0.1)">
       <use xlink:href="#URWPalladioL-Roma-32" transform="scale(0.996264)"/>
       <use xlink:href="#URWPalladioL-Roma-30" transform="translate(49.8132 0) scale(0.996264)"/>
       <use xlink:href="#URWPalladioL-Roma-30" transform="translate(99.626401 0) scale(0.996264)"/>
      </g>
     </g>
    </g>
    <g id="ytick_3">
     <g id="line2d_10">
      <g>
       <use xlink:href="#m5cf6654241" x="47.279434" y="95.633566" style="stroke: #000000; stroke-width: 0.8"/>
      </g>
     </g>
     <g id="text_11">
      <!-- $\mathdefault{400}$ -->
      <g transform="translate(25.335474 99.197684) scale(0.1 -0.1)">
       <defs>
        <path id="URWPalladioL-Roma-34" d="M 1792 1152 
L 1792 673 
C 1792 289 1722 199 1408 199 
L 1011 199 
L 1011 0 
C 1862 0 1862 0 2016 0 
C 2170 0 2170 0 3021 0 
L 3021 199 
L 2714 199 
C 2400 199 2330 282 2330 669 
L 2330 1152 
C 2707 1152 2842 1152 3021 1133 
L 3021 1588 
C 2720 1563 2598 1563 2502 1563 
L 2483 1563 
L 2330 1563 
L 2330 2457 
C 2330 3600 2342 4152 2374 4416 
L 2298 4448 
L 1824 4275 
L 13 1299 
L 83 1152 
L 1792 1152 
z
M 1792 1563 
L 416 1563 
L 1792 3826 
L 1792 1563 
z
" transform="scale(0.015625)"/>
       </defs>
       <use xlink:href="#URWPalladioL-Roma-34" transform="scale(0.996264)"/>
       <use xlink:href="#URWPalladioL-Roma-30" transform="translate(49.8132 0) scale(0.996264)"/>
       <use xlink:href="#URWPalladioL-Roma-30" transform="translate(99.626401 0) scale(0.996264)"/>
      </g>
     </g>
    </g>
    <g id="ytick_4">
     <g id="line2d_11">
      <g>
       <use xlink:href="#m5cf6654241" x="47.279434" y="59.600494" style="stroke: #000000; stroke-width: 0.8"/>
      </g>
     </g>
     <g id="text_12">
      <!-- $\mathdefault{600}$ -->
      <g transform="translate(25.335474 63.164613) scale(0.1 -0.1)">
       <defs>
        <path id="URWPalladioL-Roma-36" d="M 2662 4310 
L 2426 4419 
C 1811 4214 1549 4086 1222 3804 
C 563 3246 205 2464 205 1585 
C 205 526 717 -128 1542 -128 
C 2374 -128 2995 532 2995 1405 
C 2995 2143 2554 2624 1875 2624 
C 1555 2624 1363 2540 986 2239 
C 915 2181 909 2175 838 2124 
C 973 3284 1510 3913 2662 4259 
L 2662 4310 
z
M 1632 2239 
C 2118 2239 2445 1816 2445 1181 
C 2445 513 2118 83 1626 83 
C 1082 83 787 551 787 1412 
C 787 1636 813 1758 883 1867 
C 1024 2085 1325 2239 1632 2239 
z
" transform="scale(0.015625)"/>
       </defs>
       <use xlink:href="#URWPalladioL-Roma-36" transform="scale(0.996264)"/>
       <use xlink:href="#URWPalladioL-Roma-30" transform="translate(49.8132 0) scale(0.996264)"/>
       <use xlink:href="#URWPalladioL-Roma-30" transform="translate(99.626401 0) scale(0.996264)"/>
      </g>
     </g>
    </g>
    <g id="text_13">
     <!-- $-\ln p(x \vert \phi_{1:t})$ -->
     <g transform="translate(18.526063 128.838339) rotate(-90) scale(0.1 -0.1)">
      <defs>
       <path id="CMSY10-0" d="M 4218 1472 
C 4326 1472 4442 1472 4442 1600 
C 4442 1728 4326 1728 4218 1728 
L 755 1728 
C 646 1728 531 1728 531 1600 
C 531 1472 646 1472 755 1472 
L 4218 1472 
z
" transform="scale(0.015625)"/>
       <path id="URWPalladioL-Roma-6c" d="M 147 4256 
L 506 4256 
C 621 4256 666 4185 666 3992 
L 666 651 
C 666 244 646 199 429 199 
L 134 199 
L 134 0 
C 774 0 774 0 934 0 
C 1094 0 1094 0 1734 0 
L 1734 199 
L 1440 199 
C 1222 199 1203 244 1203 650 
L 1203 4621 
L 1146 4673 
C 864 4564 653 4512 147 4435 
L 147 4256 
z
" transform="scale(0.015625)"/>
       <path id="URWPalladioL-Roma-6e" d="M 2624 -7 
C 3014 -7 3021 -7 3130 -7 
C 3219 -7 3219 -7 3661 -7 
L 3661 179 
L 3398 205 
C 3181 205 3162 244 3162 654 
L 3162 1892 
C 3162 2642 2810 3008 2093 3008 
C 1856 3008 1722 2963 1587 2847 
L 1101 2424 
L 1101 2982 
L 1043 3008 
C 717 2873 384 2783 45 2745 
L 45 2565 
L 282 2565 
C 538 2565 563 2520 563 2094 
L 563 643 
C 563 237 544 192 326 192 
L 38 192 
L 38 -7 
C 474 -7 646 -7 832 -7 
C 1018 -7 1190 -7 1626 -7 
L 1626 192 
L 1338 192 
C 1120 192 1101 237 1101 643 
L 1101 2011 
C 1101 2300 1523 2616 1914 2616 
C 2342 2616 2624 2297 2624 1806 
L 2624 -7 
z
" transform="scale(0.015625)"/>
       <path id="URWPalladioL-Ital-70" d="M 736 25 
L 794 6 
C 960 -45 1056 -64 1126 -64 
C 1485 -64 2221 400 2496 801 
C 2758 1189 2976 1888 2976 2365 
C 2976 2792 2829 3072 2598 3072 
C 2330 3072 1990 2906 1658 2608 
C 1395 2385 1267 2219 1037 1844 
L 1190 2601 
C 1210 2710 1222 2804 1222 2881 
C 1222 3002 1171 3072 1082 3072 
C 947 3072 704 2938 230 2600 
L 51 2473 
L 96 2346 
L 301 2480 
C 480 2594 550 2626 608 2626 
C 672 2626 717 2568 717 2480 
C 717 2429 704 2302 691 2238 
L 320 55 
C 256 -327 134 -906 6 -1479 
L -45 -1715 
L 0 -1753 
C 134 -1708 262 -1676 467 -1645 
L 736 25 
z
M 915 1056 
C 1056 1869 1741 2702 2272 2702 
C 2438 2702 2515 2562 2515 2270 
C 2515 1755 2259 998 1920 515 
C 1792 331 1587 235 1325 235 
C 1126 235 966 280 800 381 
L 915 1056 
z
" transform="scale(0.015625)"/>
       <path id="CMR10-28" d="M 2118 -1536 
C 2118 -1517 2118 -1504 2010 -1395 
C 1210 -584 1005 632 1005 1616 
C 1005 2735 1248 3855 2035 4658 
C 2118 4735 2118 4748 2118 4767 
C 2118 4812 2093 4832 2054 4832 
C 1990 4832 1414 4395 1037 3577 
C 710 2870 634 2156 634 1616 
C 634 1114 704 336 1056 -391 
C 1440 -1182 1990 -1600 2054 -1600 
C 2093 -1600 2118 -1581 2118 -1536 
z
" transform="scale(0.015625)"/>
       <path id="CMSY10-6a" d="M 1018 4570 
C 1018 4685 1018 4800 890 4800 
C 762 4800 762 4685 762 4570 
L 762 -1370 
C 762 -1485 762 -1600 890 -1600 
C 1018 -1600 1018 -1485 1018 -1370 
L 1018 4570 
z
" transform="scale(0.015625)"/>
       <path id="PazoMath-Italic-66" d="M 2509 4158 
C 2381 4080 2208 4003 2010 3926 
L 1882 3033 
C 1683 2982 1491 2911 1293 2814 
C 531 2442 109 1786 109 984 
C 109 296 512 -64 1261 -64 
C 1299 -64 1338 -64 1376 -57 
C 1306 -436 1197 -970 1082 -1490 
L 1030 -1728 
L 1075 -1767 
C 1210 -1722 1338 -1690 1542 -1657 
L 1805 1 
C 2112 71 2413 193 2662 360 
C 3232 740 3635 1471 3635 2133 
C 3635 2737 3187 3104 2458 3104 
C 2419 3104 2381 3104 2342 3097 
C 2419 3515 2483 3778 2579 4061 
L 2509 4158 
z
M 3149 2037 
C 3149 1414 2790 733 2342 393 
C 2208 296 2035 226 1837 193 
C 1850 277 1869 354 1875 386 
L 1990 1067 
C 2042 1363 2086 1613 2240 2512 
L 2298 2853 
C 2842 2808 3149 2525 3149 2037 
z
M 595 977 
C 595 1697 1043 2481 1536 2751 
C 1613 2790 1722 2822 1850 2841 
L 1414 187 
C 832 251 595 515 595 977 
z
" transform="scale(0.015625)"/>
       <path id="URWPalladioL-Roma-3a" d="M 787 744 
C 595 744 422 564 422 372 
C 422 179 595 0 781 0 
C 986 0 1165 173 1165 372 
C 1165 564 986 744 787 744 
z
M 787 2944 
C 595 2944 422 2765 422 2572 
C 422 2380 595 2200 781 2200 
C 986 2200 1165 2373 1165 2566 
C 1165 2765 986 2944 787 2944 
z
" transform="scale(0.015625)"/>
       <path id="URWPalladioL-Ital-74" d="M 800 2465 
L 442 671 
C 435 626 429 615 410 538 
C 371 361 358 265 358 190 
C 358 31 429 -64 550 -64 
C 774 -64 998 62 1498 463 
L 1594 538 
L 1696 621 
L 1632 735 
L 1344 538 
C 1158 412 1030 348 960 348 
C 902 348 870 399 870 474 
C 870 639 960 1153 1146 2072 
L 1229 2465 
L 1914 2465 
L 1984 2784 
C 1741 2752 1523 2752 1280 2752 
C 1382 3348 1453 3659 1568 4001 
L 1498 4097 
C 1370 4021 1197 3944 998 3868 
L 838 2784 
C 557 2650 390 2580 275 2548 
L 262 2465 
L 800 2465 
z
" transform="scale(0.015625)"/>
       <path id="CMR10-29" d="M 1850 1616 
C 1850 2118 1779 2896 1427 3622 
C 1043 4414 493 4832 429 4832 
C 390 4832 365 4806 365 4767 
C 365 4748 365 4735 486 4620 
C 1114 3983 1478 2960 1478 1616 
C 1478 516 1242 -617 448 -1427 
C 365 -1504 365 -1517 365 -1536 
C 365 -1575 390 -1600 429 -1600 
C 493 -1600 1069 -1163 1446 -346 
C 1773 362 1850 1075 1850 1616 
z
" transform="scale(0.015625)"/>
      </defs>
      <use xlink:href="#CMSY10-0" transform="scale(1.038107)"/>
      <use xlink:href="#URWPalladioL-Roma-6c" transform="translate(98.546056 0) scale(0.996264)"/>
      <use xlink:href="#URWPalladioL-Roma-6e" transform="translate(127.536417 0) scale(0.996264)"/>
      <use xlink:href="#URWPalladioL-Ital-70" transform="translate(208.84762 0) scale(0.996264)"/>
      <use xlink:href="#CMR10-28" transform="translate(261.150492 0) scale(1.038107)"/>
      <use xlink:href="#URWPalladioL-Ital-78" transform="translate(305.583873 0) scale(0.996264)"/>
      <use xlink:href="#CMSY10-6a" transform="translate(358.88301 0) scale(1.038107)"/>
      <use xlink:href="#PazoMath-Italic-66" transform="translate(390.165709 0) scale(0.996264)"/>
      <use xlink:href="#URWPalladioL-Roma-31" transform="translate(447.59938 -18.577338) scale(0.757155)"/>
      <use xlink:href="#URWPalladioL-Roma-3a" transform="translate(486.403556 -18.577338) scale(0.757155)"/>
      <use xlink:href="#URWPalladioL-Ital-74" transform="translate(507.225286 -18.577338) scale(0.757155)"/>
      <use xlink:href="#CMR10-29" transform="translate(535.127716 0) scale(1.038107)"/>
     </g>
    </g>
   </g>
   <g id="line2d_12">
    <path d="M 57.836606 33.577397 
L 57.981324 34.125914 
L 58.126042 34.065294 
L 58.415478 34.729902 
L 58.704914 35.749393 
L 58.849632 35.598642 
L 58.99435 36.541819 
L 59.283785 36.977356 
L 59.428503 36.807085 
L 59.573221 36.850644 
L 60.007375 37.934391 
L 60.152093 37.852744 
L 60.296811 37.973767 
L 60.730965 39.713574 
L 60.875682 39.858201 
L 61.0204 40.289392 
L 61.165118 40.106622 
L 61.599272 41.900084 
L 61.74399 42.266549 
L 61.888708 42.268724 
L 62.033426 42.845258 
L 62.178144 42.490324 
L 62.612298 44.309078 
L 62.757015 45.581371 
L 62.901733 45.299136 
L 63.191169 47.071206 
L 63.625323 48.105251 
L 63.770041 48.00112 
L 64.059477 48.791207 
L 64.204195 48.677733 
L 64.927784 49.916301 
L 65.21722 51.335005 
L 65.361938 51.164732 
L 65.651374 51.30163 
L 65.796092 51.770349 
L 65.94081 51.293782 
L 66.230246 52.441803 
L 66.374964 52.49022 
L 66.519681 52.813491 
L 66.664399 52.446948 
L 66.809117 53.020959 
L 66.953835 52.933697 
L 67.243271 53.838526 
L 67.387989 53.450258 
L 67.532707 53.700767 
L 67.677425 54.258565 
L 67.822143 54.149157 
L 68.111579 54.795554 
L 68.545732 55.622136 
L 68.69045 55.568602 
L 68.835168 55.930589 
L 68.979886 55.949981 
L 69.124604 55.829282 
L 69.269322 56.384593 
L 69.41404 56.42729 
L 69.703476 57.573163 
L 69.848194 57.551617 
L 70.571783 59.704927 
L 70.716501 59.655759 
L 70.861219 60.145085 
L 71.150655 59.628339 
L 71.729527 61.588154 
L 71.874245 61.764789 
L 72.018962 61.4331 
L 72.597834 62.96653 
L 72.88727 62.850326 
L 73.176706 63.96905 
L 73.466142 64.514076 
L 73.61086 64.603281 
L 74.045013 65.878369 
L 74.189731 65.779751 
L 74.334449 66.24105 
L 74.479167 66.257575 
L 74.623885 66.126234 
L 74.913321 67.139645 
L 75.63691 69.805158 
L 75.781628 69.68948 
L 75.926346 70.326932 
L 76.071064 70.197485 
L 76.3605 71.217205 
L 76.505218 71.132356 
L 76.649936 70.615407 
L 76.794654 71.338605 
L 76.939372 71.438988 
L 77.08409 71.960683 
L 77.228808 72.059421 
L 77.373526 72.396137 
L 77.662961 73.209665 
L 77.807679 73.494181 
L 77.952397 73.133737 
L 78.241833 74.246358 
L 78.386551 74.287139 
L 78.675987 75.531519 
L 78.820705 75.450439 
L 79.110141 76.132609 
L 79.254858 75.890733 
L 79.544294 76.384569 
L 79.689012 76.465615 
L 79.83373 76.91339 
L 79.978448 76.972513 
L 80.267884 78.41302 
L 80.412602 78.375066 
L 80.55732 78.266694 
L 80.991474 79.151902 
L 81.136191 79.664644 
L 81.280909 79.609963 
L 81.859781 80.253064 
L 82.149217 80.878634 
L 82.293935 80.697602 
L 82.438653 80.09708 
L 82.583371 81.165478 
L 82.728089 81.379512 
L 83.162242 82.87933 
L 83.451678 83.362855 
L 83.596396 83.853198 
L 83.741114 83.859895 
L 83.885832 84.313492 
L 84.03055 84.291873 
L 84.319986 84.36686 
L 84.464704 84.386384 
L 84.754139 84.92659 
L 85.188293 85.314407 
L 85.333011 85.052535 
L 85.477729 85.287265 
L 85.622447 85.301486 
L 85.911883 85.512607 
L 86.201319 86.128455 
L 86.346037 86.161954 
L 86.490755 86.64496 
L 86.635472 86.163068 
L 86.78019 86.415212 
L 86.924908 87.118566 
L 87.069626 86.983454 
L 87.214344 87.510696 
L 87.359062 87.553678 
L 87.50378 87.870106 
L 87.648498 88.908469 
L 87.793216 88.94744 
L 87.937934 88.703254 
L 88.372088 89.008332 
L 88.806241 90.921327 
L 88.950959 90.862623 
L 89.095677 91.000853 
L 89.240395 91.38661 
L 89.385113 91.375383 
L 89.529831 91.651088 
L 89.819267 93.571545 
L 90.108703 93.672344 
L 90.398138 94.436241 
L 90.832292 94.000264 
L 91.121728 93.844693 
L 91.266446 93.667197 
L 91.845318 94.963395 
L 92.134753 94.926942 
L 92.279471 95.222646 
L 92.424189 94.990737 
L 92.568907 95.519882 
L 92.858343 95.248773 
L 93.003061 96.229925 
L 93.292497 96.429623 
L 93.437215 96.815863 
L 93.581933 96.815826 
L 93.726651 96.194617 
L 93.871369 97.290689 
L 94.016086 97.167191 
L 94.160804 96.87448 
L 94.45024 97.356695 
L 94.594958 97.401527 
L 95.029112 98.609637 
L 95.318548 98.088429 
L 95.752701 98.344868 
L 95.897419 98.808122 
L 96.042137 98.525296 
L 96.331573 99.337418 
L 96.476291 99.817904 
L 96.621009 100.739733 
L 96.765727 100.433071 
L 97.055163 100.760165 
L 97.199881 101.59583 
L 97.344599 101.194331 
L 97.489317 101.427777 
L 97.634034 101.396423 
L 97.778752 101.864633 
L 97.92347 101.373084 
L 98.502342 102.053656 
L 98.64706 102.569643 
L 98.791778 102.485697 
L 98.936496 102.680615 
L 99.081214 102.639537 
L 99.37065 103.33625 
L 99.515367 103.063004 
L 99.660085 103.611431 
L 99.804803 103.667986 
L 99.949521 103.407761 
L 100.094239 103.76021 
L 100.238957 103.605599 
L 100.528393 103.870687 
L 100.817829 104.005999 
L 101.107265 105.093816 
L 101.251982 105.018617 
L 101.3967 104.784025 
L 101.686136 105.090889 
L 101.830854 105.251207 
L 101.975572 105.064538 
L 102.12029 105.522874 
L 102.265008 105.510172 
L 102.409726 105.372886 
L 102.554444 105.885089 
L 102.699162 105.643949 
L 102.988598 106.33611 
L 103.712187 107.596194 
L 103.856905 107.648131 
L 104.001623 107.890466 
L 104.146341 107.783233 
L 104.291059 108.345196 
L 104.435777 108.192922 
L 104.580495 108.403754 
L 104.725213 108.352093 
L 104.869931 109.043008 
L 105.014648 109.039795 
L 105.304084 109.783371 
L 105.448802 109.818474 
L 105.59352 109.655847 
L 105.738238 110.126345 
L 106.027674 109.7763 
L 106.172392 109.95838 
L 106.31711 109.901291 
L 106.461828 109.991949 
L 106.606546 110.558549 
L 106.751263 110.232183 
L 107.040699 111.325483 
L 107.185417 111.862098 
L 107.330135 111.706243 
L 107.764289 112.445455 
L 107.909007 112.171604 
L 108.343161 112.401376 
L 108.632596 113.139491 
L 108.777314 113.155997 
L 108.922032 113.330071 
L 109.06675 113.017642 
L 109.356186 113.229612 
L 109.79034 113.410046 
L 110.513929 114.536833 
L 110.658647 115.442008 
L 110.803365 115.511604 
L 110.948083 115.977918 
L 111.092801 115.769811 
L 111.382237 115.820921 
L 111.526955 116.178071 
L 111.816391 116.152325 
L 111.961109 116.043225 
L 112.250544 117.274573 
L 112.395262 117.397639 
L 112.829416 118.313103 
L 112.974134 118.1617 
L 113.118852 117.691576 
L 113.26357 117.662365 
L 113.408288 117.343322 
L 113.553006 117.525413 
L 113.697724 117.377719 
L 113.842442 117.559307 
L 113.98716 117.506335 
L 114.131877 117.251397 
L 114.421313 117.498018 
L 114.855467 118.650856 
L 115.000185 118.516881 
L 115.144903 119.003139 
L 115.289621 118.811529 
L 115.434339 119.325446 
L 115.579057 119.095237 
L 116.01321 119.877439 
L 116.157928 120.783279 
L 116.302646 120.508761 
L 116.447364 120.825715 
L 116.881518 120.411219 
L 117.026236 120.191863 
L 117.315672 120.690261 
L 117.46039 120.691173 
L 117.605108 120.989352 
L 117.749825 121.015962 
L 118.183979 121.746982 
L 118.618133 121.988041 
L 118.762851 121.868147 
L 119.197005 122.65166 
L 119.341723 122.492269 
L 119.775876 123.306739 
L 120.21003 124.332977 
L 120.644184 123.804894 
L 120.788902 123.71364 
L 120.93362 123.981109 
L 121.078338 123.57078 
L 121.367774 123.764364 
L 121.657209 123.767461 
L 122.091363 125.231419 
L 122.236081 125.017712 
L 122.670235 125.156783 
L 122.814953 125.485391 
L 122.959671 125.352226 
L 123.104389 125.658568 
L 123.249106 125.588566 
L 123.393824 126.488118 
L 123.68326 126.07454 
L 123.972696 126.940031 
L 124.117414 127.418967 
L 124.262132 126.714267 
L 124.40685 126.879395 
L 124.551568 126.689529 
L 124.696286 126.802722 
L 124.841004 127.644629 
L 124.985722 127.465577 
L 125.130439 127.773343 
L 125.275157 127.715617 
L 125.419875 127.787563 
L 125.709311 128.767352 
L 125.854029 128.550077 
L 126.143465 128.757754 
L 126.288183 128.915439 
L 126.432901 129.385682 
L 126.722337 129.041211 
L 126.867055 129.810944 
L 127.011772 129.348389 
L 127.15649 129.32374 
L 127.735362 130.374129 
L 127.88008 129.873676 
L 128.314234 130.862716 
L 128.458952 130.860722 
L 128.60367 131.159969 
L 128.748387 131.201497 
L 128.893105 130.650488 
L 129.037823 131.007715 
L 129.327259 130.872793 
L 129.616695 131.424863 
L 129.761413 131.364011 
L 130.050849 131.965501 
L 130.340285 132.013345 
L 130.62972 133.013755 
L 130.774438 132.849113 
L 131.063874 132.839362 
L 131.208592 132.760564 
L 131.35331 133.316448 
L 131.498028 133.334765 
L 131.642746 133.135085 
L 131.932182 134.268737 
L 132.221618 134.739621 
L 132.655771 135.854391 
L 132.800489 135.640258 
L 132.945207 135.655057 
L 133.234643 135.846043 
L 133.379361 136.310567 
L 133.524079 136.345993 
L 133.668797 135.907107 
L 133.958233 136.801918 
L 134.102951 136.547106 
L 134.537104 137.391443 
L 134.971258 137.155922 
L 135.115976 136.708664 
L 135.260694 137.377865 
L 135.405412 137.26958 
L 135.55013 137.483863 
L 135.694848 137.358992 
L 136.129001 138.456965 
L 136.273719 138.36965 
L 136.707873 138.733079 
L 136.852591 138.317029 
L 137.142027 139.766378 
L 137.286745 140.001637 
L 137.576181 139.714729 
L 137.720899 139.797994 
L 137.865617 139.182245 
L 138.010334 139.77766 
L 138.155052 139.424247 
L 138.29977 139.436734 
L 138.444488 140.017844 
L 138.589206 139.640815 
L 138.733924 140.129616 
L 138.878642 140.205566 
L 139.02336 139.839166 
L 139.312796 140.260142 
L 139.457514 140.777644 
L 139.602232 140.55586 
L 139.746949 140.70253 
L 139.891667 141.476199 
L 140.036385 141.549167 
L 140.181103 141.222525 
L 140.615257 141.778861 
L 140.759975 141.290296 
L 140.904693 141.664728 
L 141.049411 141.595005 
L 141.194129 141.389636 
L 141.338847 141.691926 
L 141.483565 141.303074 
L 141.628282 141.639775 
L 141.773 142.319448 
L 141.917718 142.147603 
L 142.062436 142.349872 
L 142.207154 142.027344 
L 142.351872 142.192954 
L 142.641308 142.882834 
L 142.786026 142.718835 
L 143.075462 143.225462 
L 143.22018 142.771509 
L 143.364898 143.131679 
L 143.509615 142.922675 
L 143.654333 143.04547 
L 143.799051 142.972336 
L 144.088487 143.40257 
L 144.233205 143.652617 
L 144.377923 143.549822 
L 144.667359 143.841866 
L 144.812077 143.80383 
L 145.101513 144.077551 
L 145.24623 143.883343 
L 145.680384 144.844077 
L 145.825102 144.81038 
L 145.96982 144.980262 
L 146.114538 144.878763 
L 146.548692 146.105382 
L 146.69341 146.143812 
L 146.982846 146.41372 
L 147.127563 145.996026 
L 147.272281 146.184162 
L 147.416999 145.792769 
L 147.561717 145.726773 
L 147.706435 145.930627 
L 148.140589 147.229552 
L 148.430025 147.518979 
L 148.574743 147.362894 
L 148.719461 147.578971 
L 148.864179 147.474928 
L 149.008896 147.543072 
L 149.298332 146.727756 
L 149.44305 146.800464 
L 149.877204 147.589213 
L 150.021922 147.513171 
L 150.311358 148.442682 
L 150.456076 148.326275 
L 150.600794 148.423485 
L 150.745511 148.797237 
L 150.890229 148.588265 
L 151.179665 149.023745 
L 151.324383 148.755992 
L 151.469101 149.131421 
L 151.758537 149.26459 
L 151.903255 149.514821 
L 152.047973 150.197006 
L 152.192691 150.046084 
L 152.482127 150.071556 
L 152.626844 150.958606 
L 152.771562 150.541102 
L 152.91628 150.572724 
L 153.060998 150.356804 
L 153.495152 150.938172 
L 153.63987 150.915036 
L 153.784588 151.035572 
L 154.074024 151.95892 
L 154.218742 151.924626 
L 154.36346 152.457011 
L 154.652895 152.477249 
L 154.797613 152.820185 
L 154.942331 152.516349 
L 155.087049 153.063311 
L 155.665921 152.455104 
L 155.955357 153.010471 
L 156.100075 152.994568 
L 156.244792 152.836868 
L 156.534228 154.036359 
L 156.823664 153.64882 
L 157.1131 154.089791 
L 157.257818 154.110549 
L 157.402536 154.624432 
L 157.547254 155.59508 
L 157.83669 155.390312 
L 157.981408 155.631214 
L 158.126125 155.381192 
L 158.270843 155.77717 
L 158.415561 155.75696 
L 158.704997 155.919586 
L 158.849715 155.998109 
L 158.994433 156.211546 
L 159.283869 156.075366 
L 159.428587 155.638257 
L 159.718023 155.883965 
L 160.007458 156.447012 
L 160.296894 156.744844 
L 160.441612 156.518224 
L 160.58633 156.528416 
L 160.731048 156.695942 
L 160.875766 156.479347 
L 161.020484 156.762824 
L 161.165202 156.798788 
L 161.454638 157.07376 
L 161.888791 156.904815 
L 162.178227 157.316516 
L 162.467663 157.953516 
L 162.612381 157.916607 
L 163.046535 158.408394 
L 163.191253 158.268007 
L 163.480689 159.109742 
L 163.625406 159.0094 
L 163.914842 159.585851 
L 164.05956 159.813105 
L 164.348996 160.850835 
L 164.493714 160.683836 
L 164.638432 160.702924 
L 164.78315 160.473562 
L 164.927868 160.63792 
L 165.072586 160.591081 
L 165.217304 160.220759 
L 165.796175 161.23338 
L 165.940893 161.50414 
L 166.085611 161.332246 
L 166.230329 161.433998 
L 166.375047 161.986658 
L 166.664483 161.722278 
L 166.809201 161.920826 
L 166.953919 161.500205 
L 167.243355 162.186823 
L 167.53279 162.253281 
L 167.822226 162.793185 
L 168.25638 162.872011 
L 168.545816 162.970592 
L 168.690534 163.333358 
L 168.835252 163.328615 
L 169.124687 163.523269 
L 169.269405 163.500555 
L 169.414123 163.709858 
L 169.558841 163.352519 
L 170.137713 164.56141 
L 170.427149 165.44281 
L 170.571867 165.429511 
L 170.861303 165.166609 
L 171.00602 165.000887 
L 171.150738 165.329887 
L 171.295456 166.300786 
L 171.440174 166.213953 
L 171.584892 165.9589 
L 171.72961 165.953074 
L 172.019046 166.353387 
L 172.163764 166.858896 
L 172.308482 166.862619 
L 172.597918 166.210719 
L 172.887353 166.988876 
L 173.032071 166.517099 
L 173.321507 167.017791 
L 173.466225 166.747669 
L 173.610943 166.898319 
L 173.900379 167.485956 
L 174.045097 167.553302 
L 174.479251 165.918665 
L 174.623968 165.407471 
L 174.768686 165.471153 
L 174.913404 165.73753 
L 175.058122 165.535896 
L 175.20284 164.76786 
L 175.347558 164.878456 
L 175.636994 164.181964 
L 175.781712 164.060626 
L 175.92643 164.61367 
L 176.071148 164.34768 
L 176.360584 164.937178 
L 176.794737 164.257229 
L 176.939455 163.228312 
L 177.084173 163.530628 
L 177.373609 162.49706 
L 177.663045 160.869697 
L 177.807763 161.122098 
L 177.952481 161.142115 
L 178.097199 161.022422 
L 178.386634 161.185016 
L 178.531352 160.891086 
L 178.67607 160.148251 
L 179.110224 160.491211 
L 179.254942 160.269316 
L 179.39966 160.627924 
L 179.544378 160.047925 
L 179.689096 160.591067 
L 179.978532 159.770174 
L 180.123249 159.453257 
L 180.412685 159.897675 
L 180.846839 158.772584 
L 180.991557 159.067493 
L 181.136275 159.101131 
L 181.859865 158.37751 
L 182.1493 157.496658 
L 182.294018 157.560583 
L 182.583454 157.307166 
L 183.307044 156.482044 
L 183.451762 155.888059 
L 183.59648 155.926931 
L 183.741198 155.722249 
L 183.885915 155.76243 
L 184.030633 155.586701 
L 184.175351 155.146458 
L 184.609505 152.299745 
L 184.754223 152.680624 
L 184.898941 152.465457 
L 185.188377 151.946231 
L 185.333095 152.044852 
L 185.911966 151.472317 
L 186.056684 150.800857 
L 186.201402 151.425821 
L 186.34612 151.218189 
L 186.490838 151.262522 
L 186.635556 151.168088 
L 186.924992 149.993631 
L 187.214428 149.016067 
L 187.359146 149.070307 
L 187.503863 148.829218 
L 187.648581 148.990419 
L 187.793299 148.25547 
L 187.938017 148.207851 
L 188.082735 147.80757 
L 188.227453 148.211554 
L 188.372171 148.079425 
L 188.516889 147.591776 
L 188.661607 146.684565 
L 188.806325 146.75839 
L 188.951043 146.431987 
L 189.095761 146.545075 
L 189.240479 146.428601 
L 189.674632 144.524796 
L 190.108786 143.633166 
L 190.398222 143.296972 
L 190.54294 143.427351 
L 190.687658 143.207794 
L 191.121811 141.225075 
L 191.266529 141.457995 
L 191.411247 141.317454 
L 191.555965 141.907775 
L 191.700683 141.673487 
L 191.845401 141.048452 
L 191.990119 141.157143 
L 192.134837 141.036984 
L 192.279555 140.576663 
L 192.424273 140.999581 
L 192.713709 140.443646 
L 193.726734 137.376548 
L 193.871452 137.724354 
L 194.160888 137.320857 
L 194.305606 137.512945 
L 195.029195 135.86087 
L 195.173913 135.809987 
L 195.318631 135.398024 
L 195.463349 135.641814 
L 195.608067 135.100147 
L 195.752785 135.471366 
L 195.897503 135.31342 
L 196.042221 134.909879 
L 196.186939 135.146957 
L 196.331657 134.062076 
L 196.621092 134.556194 
L 196.910528 134.129475 
L 197.199964 134.462784 
L 197.344682 133.933873 
L 197.4894 133.928816 
L 197.634118 134.157153 
L 197.778836 133.919982 
L 197.923554 134.254918 
L 198.21299 133.430222 
L 198.502425 133.354065 
L 198.936579 133.029998 
L 199.081297 133.216923 
L 199.226015 132.43477 
L 199.370733 132.650157 
L 199.660169 132.273796 
L 199.949605 132.251916 
L 200.673194 130.309043 
L 200.817912 130.689758 
L 200.96263 130.715694 
L 201.107348 130.472925 
L 201.252066 131.04208 
L 201.396784 130.298418 
L 201.68622 130.18398 
L 201.830938 130.591552 
L 202.120373 130.489175 
L 202.409809 130.048654 
L 202.699245 129.134513 
L 202.988681 129.237031 
L 203.278117 128.205892 
L 203.422835 128.325182 
L 203.712271 127.482836 
L 204.146424 126.522549 
L 204.291142 126.309863 
L 204.43586 126.467694 
L 204.580578 125.887666 
L 204.725296 125.993155 
L 205.014732 125.466973 
L 205.15945 125.372575 
L 205.304168 125.437163 
L 205.593604 124.77327 
L 205.883039 124.058382 
L 206.027757 124.144406 
L 206.317193 123.453917 
L 206.606629 123.670328 
L 206.751347 123.166655 
L 207.040783 123.167753 
L 207.764372 121.252684 
L 208.63268 117.694922 
L 208.777398 117.618451 
L 208.922116 116.854583 
L 209.066834 116.911688 
L 209.211552 116.570114 
L 209.35627 116.717603 
L 209.500987 116.597971 
L 209.645705 116.694864 
L 209.790423 116.56427 
L 210.079859 116.94064 
L 210.803449 115.616821 
L 211.092885 114.79499 
L 211.237603 114.715749 
L 211.38232 115.043305 
L 212.10591 113.245159 
L 212.250628 113.732956 
L 212.395346 113.19084 
L 212.540064 113.227244 
L 212.684782 112.549078 
L 212.8295 112.504403 
L 213.263653 111.451134 
L 213.553089 111.295235 
L 213.987243 110.921691 
L 214.421397 109.762666 
L 214.566115 109.531017 
L 214.855551 108.035335 
L 215.144986 108.740053 
L 215.434422 108.486159 
L 215.57914 108.973016 
L 216.013294 109.241468 
L 216.158012 108.528827 
L 216.30273 108.947042 
L 216.592166 108.2625 
L 216.881601 108.500838 
L 217.749909 105.84684 
L 217.894627 105.591936 
L 218.039345 105.028667 
L 218.184063 105.289243 
L 218.328781 105.11868 
L 218.473499 105.401402 
L 218.907652 103.835897 
L 219.05237 104.156063 
L 219.197088 103.866424 
L 219.486524 103.762716 
L 219.920678 103.218686 
L 220.065396 102.418219 
L 220.210114 102.342787 
L 220.499549 100.923021 
L 220.788985 101.225617 
L 221.078421 99.956224 
L 221.223139 100.424475 
L 221.367857 99.889311 
L 221.802011 99.995875 
L 221.946729 99.711508 
L 222.380882 98.187329 
L 222.5256 98.113205 
L 222.815036 98.898914 
L 223.104472 97.924531 
L 223.24919 98.174407 
L 223.538626 97.805543 
L 223.683344 97.219879 
L 223.828062 95.788667 
L 223.97278 95.648355 
L 224.117497 95.673628 
L 224.262215 96.030907 
L 224.406933 95.818085 
L 224.696369 95.887368 
L 225.419959 94.717662 
L 225.564677 94.774548 
L 225.709395 94.636539 
L 225.854113 93.513318 
L 225.99883 93.772144 
L 226.288266 93.23432 
L 226.432984 93.464686 
L 226.577702 92.297568 
L 226.867138 92.050015 
L 227.156574 91.489673 
L 227.301292 91.831794 
L 227.880163 90.778541 
L 228.024881 90.84878 
L 228.459035 89.389554 
L 228.603753 89.829983 
L 228.748471 89.247098 
L 229.037907 89.85405 
L 229.472061 88.658514 
L 229.616778 88.717159 
L 229.761496 88.455929 
L 230.19565 86.267231 
L 230.340368 86.502029 
L 230.485086 86.04872 
L 230.629804 86.045988 
L 230.91924 84.413283 
L 231.063958 84.492244 
L 231.353394 83.59854 
L 231.642829 83.675456 
L 231.787547 83.666653 
L 231.932265 83.447687 
L 232.076983 82.922881 
L 232.221701 83.333634 
L 232.655855 82.020167 
L 232.800573 82.092736 
L 232.945291 81.383489 
L 233.090009 81.655372 
L 233.234727 81.432467 
L 233.524162 80.681461 
L 233.66888 80.556544 
L 233.958316 81.148636 
L 234.39247 80.34517 
L 234.826624 79.465613 
L 234.971342 79.575331 
L 235.116059 79.353943 
L 235.260777 79.555907 
L 235.550213 78.042431 
L 235.694931 78.553662 
L 236.129085 77.286695 
L 236.273803 77.524031 
L 236.418521 76.710168 
L 236.852675 77.528703 
L 236.997392 77.513853 
L 237.14211 77.888547 
L 237.431546 77.186818 
L 237.576264 77.276984 
L 237.8657 76.911887 
L 238.010418 76.677431 
L 238.155136 76.658974 
L 238.299854 76.422723 
L 238.444572 75.231279 
L 238.734008 75.059645 
L 238.878725 74.5671 
L 239.168161 75.113795 
L 239.312879 74.578154 
L 239.457597 74.794539 
L 239.602315 74.793125 
L 239.891751 74.62474 
L 240.181187 72.576591 
L 240.61534 70.752589 
L 240.760058 70.64027 
L 240.904776 70.792852 
L 241.194212 69.492189 
L 241.33893 69.528758 
L 241.483648 69.253881 
L 241.628366 69.550892 
L 242.641391 66.122901 
L 242.786109 66.019849 
L 243.075545 65.614489 
L 243.220263 65.677586 
L 243.364981 65.282425 
L 243.509699 65.409858 
L 243.654417 64.845382 
L 243.799135 64.78919 
L 244.522724 62.322767 
L 244.81216 62.236165 
L 245.101596 61.391972 
L 245.680468 59.583484 
L 245.825186 59.953489 
L 246.114621 59.632099 
L 246.548775 59.776417 
L 246.982929 58.394413 
L 247.127647 57.912046 
L 247.272365 57.820239 
L 247.706519 56.549152 
L 247.851237 56.198609 
L 248.140672 56.06129 
L 248.28539 55.807474 
L 248.574826 54.16924 
L 248.719544 54.384122 
L 248.864262 54.200599 
L 249.00898 52.732693 
L 249.153698 53.047673 
L 249.298416 52.713404 
L 249.587852 51.580115 
L 249.73257 51.888758 
L 249.877287 51.088872 
L 250.166723 51.131826 
L 250.456159 50.481629 
L 250.600877 50.645661 
L 250.745595 50.621513 
L 250.890313 50.93468 
L 251.179749 50.083239 
L 251.324467 49.810746 
L 251.613903 49.027843 
L 252.048056 47.658342 
L 252.337492 47.198107 
L 252.626928 46.334232 
L 252.916364 45.287094 
L 253.2058 44.211872 
L 253.350518 44.126853 
L 253.639953 44.400211 
L 253.784671 44.301772 
L 253.929389 44.053776 
L 254.074107 43.385554 
L 254.218825 43.244669 
L 254.363543 43.364732 
L 254.942415 42.07679 
L 255.087133 42.13678 
L 255.231851 41.841303 
L 255.521286 40.965294 
L 255.810722 40.481914 
L 255.95544 40.089854 
L 256.100158 40.089424 
L 257.113184 38.244895 
L 257.402619 36.736257 
L 257.547337 36.35011 
L 257.692055 36.928176 
L 258.705081 33.577397 
L 258.705081 33.577397 
" clip-path="url(#p9e39caf8df)" style="fill: none; stroke: #1f77b4; stroke-width: 1.5; stroke-linecap: square"/>
   </g>
   <g id="line2d_13">
    <path d="M 173.755661 174.324703 
L 173.755661 25.353876 
" clip-path="url(#p9e39caf8df)" style="fill: none; stroke-dasharray: 5.55,2.4; stroke-dashoffset: 0; stroke: #ff0000; stroke-opacity: 0.3; stroke-width: 1.5"/>
   </g>
   <g id="line2d_14">
    <path d="M 57.402452 32.125277 
L 62.322862 42.584777 
L 67.243271 52.523599 
L 72.018962 61.67217 
L 76.649936 70.075083 
L 81.280909 78.016772 
L 85.767165 85.270454 
L 90.108703 91.878019 
L 94.45024 98.080211 
L 98.64706 103.690335 
L 102.699162 108.747577 
L 106.751263 113.451694 
L 110.658647 117.653376 
L 114.566031 121.526706 
L 118.328697 124.946244 
L 122.091363 128.061303 
L 125.709311 130.769414 
L 129.327259 133.196016 
L 132.800489 135.260711 
L 136.273719 137.065968 
L 139.602232 138.552557 
L 142.930744 139.800878 
L 146.259256 140.81093 
L 149.587768 141.582713 
L 152.771562 142.097986 
L 155.955357 142.395259 
L 159.139151 142.474532 
L 162.322945 142.335804 
L 165.506739 141.979077 
L 168.690534 141.404349 
L 171.874328 140.611622 
L 175.20284 139.549772 
L 178.531352 138.249654 
L 181.859865 136.711267 
L 185.188377 134.934611 
L 188.661607 132.826677 
L 192.134837 130.459304 
L 195.752785 127.717412 
L 199.370733 124.694013 
L 203.133399 121.251053 
L 206.896065 117.503613 
L 210.803449 113.289771 
L 214.710833 108.747577 
L 218.762934 103.690335 
L 222.815036 98.279969 
L 227.011856 92.30411 
L 231.353394 85.72357 
L 235.694931 78.737658 
L 240.181187 71.093017 
L 244.81216 62.747758 
L 249.443134 53.941275 
L 254.218825 44.376521 
L 259.139234 34.008906 
L 259.862824 32.440341 
L 259.862824 32.440341 
" clip-path="url(#p9e39caf8df)" style="fill: none; stroke-dasharray: 5.55,2.4; stroke-dashoffset: 0; stroke: #d3d3d3; stroke-opacity: 0.5; stroke-width: 1.5"/>
   </g>
   <g id="patch_3">
    <path d="M 47.279434 174.324703 
L 47.279434 25.353876 
" style="fill: none; stroke: #000000; stroke-width: 0.8; stroke-linejoin: miter; stroke-linecap: square"/>
   </g>
   <g id="patch_4">
    <path d="M 269.985843 174.324703 
L 269.985843 25.353876 
" style="fill: none; stroke: #000000; stroke-width: 0.8; stroke-linejoin: miter; stroke-linecap: square"/>
   </g>
   <g id="patch_5">
    <path d="M 47.279434 174.324703 
L 269.985843 174.324703 
" style="fill: none; stroke: #000000; stroke-width: 0.8; stroke-linejoin: miter; stroke-linecap: square"/>
   </g>
   <g id="patch_6">
    <path d="M 47.279434 25.353876 
L 269.985843 25.353876 
" style="fill: none; stroke: #000000; stroke-width: 0.8; stroke-linejoin: miter; stroke-linecap: square"/>
   </g>
   <g id="text_14">
    <!-- $t=1000$, $\epsilon_T=1.00$, delta prior -->
    <g transform="translate(77.403883 19.353876) scale(0.12 -0.12)">
     <defs>
      <path id="CMR10-3d" d="M 4397 2048 
C 4493 2048 4614 2048 4614 2177 
C 4614 2305 4493 2305 4403 2305 
L 570 2305 
C 480 2305 358 2305 358 2177 
C 358 2048 480 2048 576 2048 
L 4397 2048 
z
M 4403 832 
C 4493 832 4614 832 4614 961 
C 4614 1089 4493 1089 4397 1089 
L 576 1089 
C 480 1089 358 1089 358 961 
C 358 832 480 832 570 832 
L 4403 832 
z
" transform="scale(0.015625)"/>
      <path id="URWPalladioL-Roma-2c" d="M 1306 789 
C 1133 731 1018 693 678 596 
C 634 109 474 -308 102 -923 
L 192 -994 
L 454 -872 
C 973 -199 1216 205 1395 699 
L 1306 789 
z
" transform="scale(0.015625)"/>
      <path id="PazoMath-Italic-65" d="M 2483 707 
L 2330 599 
C 1990 357 1683 250 1453 250 
C 1165 250 762 554 672 960 
C 659 1023 659 1094 659 1163 
C 659 1240 666 1322 678 1398 
C 838 1417 1146 1417 1190 1417 
C 1498 1417 1888 1417 2086 1411 
L 2125 1449 
L 2214 1673 
C 1741 1660 1664 1660 1421 1660 
C 1376 1660 960 1667 723 1667 
C 781 1983 902 2326 1178 2564 
C 1357 2719 1581 2803 1805 2803 
C 2016 2803 2227 2758 2355 2603 
C 2400 2558 2470 2448 2522 2351 
L 2643 2364 
L 2906 2700 
C 2707 2938 2406 3085 2067 3085 
C 1651 3085 1235 2925 890 2630 
C 480 2291 211 1818 128 1331 
C 109 1216 96 1101 96 992 
C 96 717 173 454 339 250 
C 538 6 883 -70 1222 -70 
C 1600 -70 1933 114 2534 586 
L 2483 707 
z
" transform="scale(0.015625)"/>
      <path id="URWPalladioL-Ital-54" d="M 2496 4136 
L 2963 4136 
C 3462 4136 3693 4104 3712 4028 
C 3731 3977 3744 3855 3738 3791 
L 3712 3383 
L 3891 3383 
L 4064 4416 
L 3482 4416 
C 2918 4416 2483 4416 2259 4416 
C 2022 4416 1613 4416 1062 4416 
L 454 4416 
L 339 3383 
L 525 3383 
L 621 3766 
C 653 3907 698 4009 736 4053 
C 774 4098 1018 4136 1254 4136 
L 1971 4136 
L 1421 801 
C 1318 218 1306 199 1050 179 
L 723 179 
L 698 0 
L 1062 0 
C 1318 0 1504 0 1606 0 
C 1728 0 1926 0 2176 0 
L 2458 0 
L 2477 179 
L 2099 179 
C 1933 179 1869 230 1869 365 
C 1869 423 1875 468 1894 590 
L 2496 4136 
z
" transform="scale(0.015625)"/>
      <path id="URWPalladioL-Roma-2e" d="M 794 744 
C 602 744 429 564 429 372 
C 429 179 602 0 787 0 
C 992 0 1171 173 1171 372 
C 1171 564 992 744 794 744 
z
" transform="scale(0.015625)"/>
      <path id="URWPalladioL-Roma-64" d="M 2637 2802 
C 2278 2956 2099 3008 1875 3008 
C 1702 3008 1549 2969 1389 2887 
L 826 2593 
C 461 2401 224 1935 224 1392 
C 224 881 397 460 710 204 
C 928 19 1229 -64 1645 -64 
C 1773 -64 1920 -38 1952 -13 
L 2662 583 
L 2630 -7 
C 2944 -7 3046 -7 3123 -7 
C 3174 -7 3264 -7 3398 -7 
C 3443 -7 3571 -7 3706 -7 
L 3706 192 
L 3411 192 
C 3194 192 3174 237 3174 643 
L 3174 4607 
L 3117 4659 
C 2835 4550 2624 4498 2118 4421 
L 2118 4242 
L 2477 4242 
C 2592 4242 2637 4171 2637 3978 
L 2637 2802 
z
M 2637 1424 
C 2637 1009 2624 946 2541 799 
C 2362 499 2048 302 1747 302 
C 1184 302 781 844 781 1603 
C 781 2298 1126 2706 1702 2706 
C 1946 2706 2202 2623 2426 2470 
C 2560 2381 2637 2298 2637 2246 
L 2637 1424 
z
" transform="scale(0.015625)"/>
      <path id="URWPalladioL-Roma-65" d="M 2797 447 
L 2714 511 
C 2304 269 2157 212 1882 212 
C 1466 212 1120 398 941 711 
C 819 921 774 1101 762 1472 
L 1696 1472 
C 2138 1472 2413 1472 2854 1544 
C 2861 1634 2867 1693 2867 1771 
C 2867 2520 2394 3008 1677 3008 
C 1440 3008 1165 2924 902 2770 
C 378 2469 166 2071 166 1404 
C 166 1000 262 654 435 410 
C 691 71 1120 -128 1600 -128 
C 1837 -128 2074 -77 2336 37 
C 2509 108 2643 191 2669 230 
L 2797 447 
z
M 2298 1690 
C 1965 1690 1811 1690 1581 1690 
C 1286 1690 1120 1690 774 1722 
C 774 2027 800 2169 883 2337 
C 1018 2622 1293 2796 1600 2796 
C 1811 2796 1978 2711 2093 2534 
C 2234 2319 2278 2129 2298 1690 
z
" transform="scale(0.015625)"/>
      <path id="URWPalladioL-Roma-74" d="M 627 2476 
L 627 619 
C 627 142 838 -64 1331 -64 
C 1478 -64 1632 -32 1670 13 
L 1978 353 
L 1894 463 
C 1734 372 1638 340 1517 340 
C 1267 340 1165 470 1165 788 
L 1165 2489 
L 1984 2489 
L 2042 2816 
L 1165 2816 
L 1165 3056 
C 1165 3321 1184 3547 1235 3951 
L 1158 4021 
C 1005 3925 813 3842 614 3778 
C 634 3585 640 3463 640 3271 
L 640 2822 
L 141 2598 
L 141 2476 
L 627 2476 
z
" transform="scale(0.015625)"/>
      <path id="URWPalladioL-Roma-61" d="M 2074 538 
L 2042 -1 
C 2458 -1 2458 -1 2541 -1 
C 2573 -1 2733 -1 3014 -1 
L 3014 192 
L 2765 192 
C 2611 192 2586 244 2586 558 
L 2586 1731 
C 2586 2668 2317 3008 1574 3008 
C 1299 3008 1043 2937 800 2791 
L 461 2585 
L 461 2171 
L 627 2126 
L 710 2323 
C 845 2623 909 2668 1203 2668 
C 1805 2668 2054 2431 2074 1852 
L 1440 1736 
C 570 1577 205 1277 205 722 
C 205 224 506 -64 1011 -64 
C 1126 -64 1235 -45 1280 -13 
L 2074 538 
z
M 2074 806 
C 1888 544 1485 302 1235 302 
C 979 302 755 538 755 812 
C 755 1048 883 1271 1075 1392 
C 1235 1488 1587 1577 2074 1648 
L 2074 806 
z
" transform="scale(0.015625)"/>
      <path id="URWPalladioL-Roma-70" d="M 64 2565 
L 301 2565 
C 557 2565 582 2520 582 2095 
L 582 -1142 
C 582 -1548 563 -1593 346 -1593 
L 51 -1593 
L 51 -1792 
C 691 -1792 691 -1792 851 -1792 
C 1011 -1792 1011 -1792 1651 -1792 
L 1651 -1593 
L 1357 -1593 
C 1139 -1593 1120 -1547 1120 -1138 
L 1120 89 
C 1312 -26 1517 -71 1805 -71 
C 1990 -71 2157 -32 2259 32 
L 2989 505 
C 3245 672 3546 1330 3546 1740 
C 3546 2451 2957 3008 2214 3008 
C 1978 3008 1747 2943 1645 2847 
L 1120 2367 
L 1120 2982 
L 1062 3008 
C 736 2873 403 2783 64 2745 
L 64 2565 
z
M 1120 1964 
C 1120 2053 1152 2124 1235 2233 
C 1421 2469 1683 2591 2003 2591 
C 2605 2591 2989 2169 2989 1504 
C 2989 787 2560 256 1984 256 
C 1632 256 1370 372 1120 633 
L 1120 1964 
z
" transform="scale(0.015625)"/>
      <path id="URWPalladioL-Roma-72" d="M 147 2565 
L 384 2565 
C 640 2565 666 2520 666 2094 
L 666 643 
C 666 237 646 192 429 192 
L 134 192 
L 134 -7 
C 595 -7 762 -7 922 -7 
C 1050 -7 1050 -7 1837 -7 
L 1837 192 
L 1504 192 
C 1216 192 1203 211 1203 638 
L 1203 1751 
C 1203 2139 1459 2463 1773 2463 
C 1965 2463 2099 2373 2202 2169 
L 2336 2169 
L 2394 2937 
C 2323 2982 2208 3008 2093 3008 
C 1901 3008 1696 2905 1562 2745 
L 1203 2322 
L 1203 2982 
L 1146 3008 
C 819 2873 486 2783 147 2745 
L 147 2565 
z
" transform="scale(0.015625)"/>
      <path id="URWPalladioL-Roma-69" d="M 1203 2993 
L 1146 3019 
C 819 2884 486 2793 147 2755 
L 147 2576 
L 384 2576 
C 640 2576 666 2531 666 2105 
L 666 651 
C 666 244 646 199 429 199 
L 134 199 
L 134 0 
C 774 0 774 0 934 0 
C 1094 0 1094 0 1734 0 
L 1734 199 
L 1440 199 
C 1222 199 1203 244 1203 651 
L 1203 2993 
z
M 909 4416 
C 717 4416 550 4249 550 4056 
C 550 3870 717 3704 902 3704 
C 1088 3704 1261 3870 1261 4056 
C 1261 4236 1088 4416 909 4416 
z
" transform="scale(0.015625)"/>
      <path id="URWPalladioL-Roma-6f" d="M 1786 3008 
C 851 3008 205 2347 205 1392 
C 205 487 774 -128 1600 -128 
C 2586 -128 3290 558 3290 1520 
C 3290 2386 2662 3008 1786 3008 
z
M 1670 2796 
C 2259 2796 2694 2155 2694 1283 
C 2694 545 2368 83 1850 83 
C 1222 83 800 699 800 1610 
C 800 2379 1107 2796 1670 2796 
z
" transform="scale(0.015625)"/>
     </defs>
     <use xlink:href="#URWPalladioL-Ital-74" transform="scale(0.996264)"/>
     <use xlink:href="#CMR10-3d" transform="translate(63.339214 0) scale(1.038107)"/>
     <use xlink:href="#URWPalladioL-Roma-31" transform="translate(172.954843 0) scale(0.996264)"/>
     <use xlink:href="#URWPalladioL-Roma-30" transform="translate(222.768044 0) scale(0.996264)"/>
     <use xlink:href="#URWPalladioL-Roma-30" transform="translate(272.581244 0) scale(0.996264)"/>
     <use xlink:href="#URWPalladioL-Roma-30" transform="translate(322.394445 0) scale(0.996264)"/>
     <use xlink:href="#URWPalladioL-Roma-2c" transform="translate(372.207645 0) scale(0.996264)"/>
     <use xlink:href="#PazoMath-Italic-65" transform="translate(423.266146 0) scale(0.996264)"/>
     <use xlink:href="#URWPalladioL-Ital-54" transform="translate(471.870865 -18.085743) scale(0.757155)"/>
     <use xlink:href="#CMR10-3d" transform="translate(550.313309 0) scale(1.038107)"/>
     <use xlink:href="#URWPalladioL-Roma-31" transform="translate(659.928938 0) scale(0.996264)"/>
     <use xlink:href="#URWPalladioL-Roma-2e" transform="translate(709.742138 0) scale(0.996264)"/>
     <use xlink:href="#URWPalladioL-Roma-30" transform="translate(734.648738 0) scale(0.996264)"/>
     <use xlink:href="#URWPalladioL-Roma-30" transform="translate(784.461939 0) scale(0.996264)"/>
     <use xlink:href="#URWPalladioL-Roma-2c" transform="translate(834.275139 0) scale(0.996264)"/>
     <use xlink:href="#URWPalladioL-Roma-64" transform="translate(884.08834 0) scale(0.996264)"/>
     <use xlink:href="#URWPalladioL-Roma-65" transform="translate(944.959971 0) scale(0.996264)"/>
     <use xlink:href="#URWPalladioL-Roma-6c" transform="translate(992.680266 0) scale(0.996264)"/>
     <use xlink:href="#URWPalladioL-Roma-74" transform="translate(1021.670627 0) scale(0.996264)"/>
     <use xlink:href="#URWPalladioL-Roma-61" transform="translate(1054.147715 0) scale(0.996264)"/>
     <use xlink:href="#URWPalladioL-Roma-70" transform="translate(1128.867516 0) scale(0.996264)"/>
     <use xlink:href="#URWPalladioL-Roma-72" transform="translate(1188.74191 0) scale(0.996264)"/>
     <use xlink:href="#URWPalladioL-Roma-69" transform="translate(1228.093806 0) scale(0.996264)"/>
     <use xlink:href="#URWPalladioL-Roma-6f" transform="translate(1257.084167 0) scale(0.996264)"/>
     <use xlink:href="#URWPalladioL-Roma-72" transform="translate(1311.479748 0) scale(0.996264)"/>
    </g>
   </g>
   <g id="legend_1">
    <g id="patch_7">
     <path d="M 54.279434 169.324703 
L 106.526004 169.324703 
Q 108.526004 169.324703 108.526004 167.324703 
L 108.526004 138.449407 
Q 108.526004 136.449407 106.526004 136.449407 
L 54.279434 136.449407 
Q 52.279434 136.449407 52.279434 138.449407 
L 52.279434 167.324703 
Q 52.279434 169.324703 54.279434 169.324703 
z
" style="fill: #ffffff; opacity: 0.8; stroke: #cccccc; stroke-linejoin: miter"/>
    </g>
    <g id="line2d_15">
     <path d="M 56.279434 144.077644 
L 66.279434 144.077644 
L 76.279434 144.077644 
" style="fill: none; stroke-dasharray: 5.55,2.4; stroke-dashoffset: 0; stroke: #ff0000; stroke-opacity: 0.3; stroke-width: 1.5"/>
    </g>
    <g id="text_15">
     <!-- $x^*$ -->
     <g transform="translate(84.279434 147.577644) scale(0.1 -0.1)">
      <defs>
       <path id="CMSY10-3" d="M 1760 2719 
C 1766 2808 1766 2962 1600 2962 
C 1498 2962 1414 2879 1434 2795 
L 1434 2712 
L 1523 1720 
L 704 2316 
C 646 2348 634 2360 589 2360 
C 499 2360 416 2271 416 2181 
C 416 2079 480 2053 544 2021 
L 1453 1586 
L 570 1158 
C 467 1107 416 1081 416 985 
C 416 889 499 806 589 806 
C 634 806 646 806 806 928 
L 1523 1446 
L 1427 371 
C 1427 236 1542 204 1594 204 
C 1670 204 1766 248 1766 371 
L 1670 1446 
L 2490 851 
C 2547 819 2560 806 2605 806 
C 2694 806 2778 896 2778 985 
C 2778 1081 2720 1113 2643 1152 
C 2259 1343 2246 1343 1741 1580 
L 2624 2008 
C 2726 2060 2778 2085 2778 2181 
C 2778 2277 2694 2360 2605 2360 
C 2560 2360 2547 2360 2387 2239 
L 1670 1720 
L 1760 2719 
z
" transform="scale(0.015625)"/>
      </defs>
      <use xlink:href="#URWPalladioL-Ital-78" transform="scale(0.996264)"/>
      <use xlink:href="#CMSY10-3" transform="translate(53.000254 36.164371) scale(0.788955)"/>
     </g>
    </g>
    <g id="line2d_16">
     <path d="M 56.279434 159.015292 
L 66.279434 159.015292 
L 76.279434 159.015292 
" style="fill: none; stroke-dasharray: 5.55,2.4; stroke-dashoffset: 0; stroke: #d3d3d3; stroke-opacity: 0.5; stroke-width: 1.5"/>
    </g>
    <g id="text_16">
     <!-- $\sim x^2$ -->
     <g transform="translate(84.279434 162.515292) scale(0.1 -0.1)">
      <defs>
       <path id="CMSY10-18" d="M 4622 2138 
C 4622 2278 4584 2342 4533 2342 
C 4501 2342 4449 2298 4443 2176 
C 4417 1562 3995 1210 3547 1210 
C 3143 1210 2836 1485 2522 1760 
C 2196 2054 1863 2349 1428 2349 
C 730 2349 352 1645 352 1062 
C 352 858 435 858 442 858 
C 512 858 531 986 531 1005 
C 557 1709 1037 1990 1428 1990 
C 1831 1990 2138 1715 2452 1440 
C 2778 1146 3111 851 3547 851 
C 4245 851 4622 1555 4622 2138 
z
" transform="scale(0.015625)"/>
      </defs>
      <use xlink:href="#CMSY10-18" transform="scale(1.038107)"/>
      <use xlink:href="#URWPalladioL-Ital-78" transform="translate(112.554605 0) scale(0.996264)"/>
      <use xlink:href="#URWPalladioL-Roma-32" transform="translate(164.608442 36.164371) scale(0.757155)"/>
     </g>
    </g>
   </g>
  </g>
 </g>
 <defs>
  <clipPath id="p9e39caf8df">
   <rect x="47.279434" y="25.353876" width="222.706409" height="148.970828"/>
  </clipPath>
 </defs>
</svg>
