<?xml version="1.0" encoding="utf-8" standalone="no"?>
<!DOCTYPE svg PUBLIC "-//W3C//DTD SVG 1.1//EN"
  "http://www.w3.org/Graphics/SVG/1.1/DTD/svg11.dtd">
<svg xmlns:xlink="http://www.w3.org/1999/xlink" width="460.8pt" height="345.6pt" viewBox="0 0 460.8 345.6" xmlns="http://www.w3.org/2000/svg" version="1.1">
 <metadata>
  <rdf:RDF xmlns:dc="http://purl.org/dc/elements/1.1/" xmlns:cc="http://creativecommons.org/ns#" xmlns:rdf="http://www.w3.org/1999/02/22-rdf-syntax-ns#">
   <cc:Work>
    <dc:type rdf:resource="http://purl.org/dc/dcmitype/StillImage"/>
    <dc:date>2023-12-13T18:09:57.268489</dc:date>
    <dc:format>image/svg+xml</dc:format>
    <dc:creator>
     <cc:Agent>
      <dc:title>Matplotlib v3.8.0, https://matplotlib.org/</dc:title>
     </cc:Agent>
    </dc:creator>
   </cc:Work>
  </rdf:RDF>
 </metadata>
 <defs>
  <style type="text/css">*{stroke-linejoin: round; stroke-linecap: butt}</style>
 </defs>
 <g id="figure_1">
  <g id="patch_1">
   <path d="M 0 345.6 
L 460.8 345.6 
L 460.8 0 
L 0 0 
z
" style="fill: #ffffff"/>
  </g>
  <g id="axes_1">
   <g id="patch_2">
    <path d="M 30.2533 107.753574 
L 450 107.753574 
L 450 23.974481 
L 30.2533 23.974481 
z
" style="fill: #ffffff"/>
   </g>
   <g id="matplotlib.axis_1">
    <g id="xtick_1">
     <g id="line2d_1">
      <defs>
       <path id="m1b6ed63202" d="M 0 0 
L 0 3.5 
" style="stroke: #000000; stroke-width: 0.8"/>
      </defs>
      <g>
       <use xlink:href="#m1b6ed63202" x="49.205457" y="107.753574" style="stroke: #000000; stroke-width: 0.8"/>
      </g>
     </g>
    </g>
    <g id="xtick_2">
     <g id="line2d_2">
      <g>
       <use xlink:href="#m1b6ed63202" x="96.935755" y="107.753574" style="stroke: #000000; stroke-width: 0.8"/>
      </g>
     </g>
    </g>
    <g id="xtick_3">
     <g id="line2d_3">
      <g>
       <use xlink:href="#m1b6ed63202" x="144.666054" y="107.753574" style="stroke: #000000; stroke-width: 0.8"/>
      </g>
     </g>
    </g>
    <g id="xtick_4">
     <g id="line2d_4">
      <g>
       <use xlink:href="#m1b6ed63202" x="192.396352" y="107.753574" style="stroke: #000000; stroke-width: 0.8"/>
      </g>
     </g>
    </g>
    <g id="xtick_5">
     <g id="line2d_5">
      <g>
       <use xlink:href="#m1b6ed63202" x="240.12665" y="107.753574" style="stroke: #000000; stroke-width: 0.8"/>
      </g>
     </g>
    </g>
    <g id="xtick_6">
     <g id="line2d_6">
      <g>
       <use xlink:href="#m1b6ed63202" x="287.856948" y="107.753574" style="stroke: #000000; stroke-width: 0.8"/>
      </g>
     </g>
    </g>
    <g id="xtick_7">
     <g id="line2d_7">
      <g>
       <use xlink:href="#m1b6ed63202" x="335.587246" y="107.753574" style="stroke: #000000; stroke-width: 0.8"/>
      </g>
     </g>
    </g>
    <g id="xtick_8">
     <g id="line2d_8">
      <g>
       <use xlink:href="#m1b6ed63202" x="383.317545" y="107.753574" style="stroke: #000000; stroke-width: 0.8"/>
      </g>
     </g>
    </g>
    <g id="xtick_9">
     <g id="line2d_9">
      <g>
       <use xlink:href="#m1b6ed63202" x="431.047843" y="107.753574" style="stroke: #000000; stroke-width: 0.8"/>
      </g>
     </g>
    </g>
   </g>
   <g id="matplotlib.axis_2">
    <g id="ytick_1">
     <g id="line2d_10">
      <defs>
       <path id="mce5b7a9ece" d="M 0 0 
L -3.5 0 
" style="stroke: #000000; stroke-width: 0.8"/>
      </defs>
      <g>
       <use xlink:href="#mce5b7a9ece" x="30.2533" y="103.945433" style="stroke: #000000; stroke-width: 0.8"/>
      </g>
     </g>
     <g id="text_1">
      <!-- $\mathdefault{0.0}$ -->
      <g transform="translate(10.8 107.509552) scale(0.1 -0.1)">
       <defs>
        <path id="URWPalladioL-Roma-30" d="M 1683 4416 
C 691 4416 186 3628 186 2077 
C 186 1326 320 680 544 366 
C 768 51 1126 -128 1523 -128 
C 2490 -128 2976 705 2976 2346 
C 2976 3749 2560 4416 1683 4416 
z
M 1568 4192 
C 2189 4192 2438 3564 2438 2025 
C 2438 661 2195 96 1606 96 
C 986 96 723 744 723 2308 
C 723 3660 960 4192 1568 4192 
z
" transform="scale(0.015625)"/>
        <path id="URWPalladioL-Roma-2e" d="M 794 744 
C 602 744 429 564 429 372 
C 429 179 602 0 787 0 
C 992 0 1171 173 1171 372 
C 1171 564 992 744 794 744 
z
" transform="scale(0.015625)"/>
       </defs>
       <use xlink:href="#URWPalladioL-Roma-30" transform="scale(0.996264)"/>
       <use xlink:href="#URWPalladioL-Roma-2e" transform="translate(49.8132 0) scale(0.996264)"/>
       <use xlink:href="#URWPalladioL-Roma-30" transform="translate(74.719801 0) scale(0.996264)"/>
      </g>
     </g>
    </g>
    <g id="ytick_2">
     <g id="line2d_11">
      <g>
       <use xlink:href="#mce5b7a9ece" x="30.2533" y="65.864028" style="stroke: #000000; stroke-width: 0.8"/>
      </g>
     </g>
     <g id="text_2">
      <!-- $\mathdefault{0.5}$ -->
      <g transform="translate(10.8 69.428146) scale(0.1 -0.1)">
       <defs>
        <path id="URWPalladioL-Roma-35" d="M 813 3877 
C 1638 3877 1997 3877 2765 3877 
L 2797 3907 
C 2784 4016 2784 4064 2784 4144 
C 2784 4229 2784 4277 2797 4386 
L 2765 4416 
C 2285 4416 1997 4416 1651 4416 
C 1299 4416 1018 4416 538 4416 
L 506 4403 
C 512 4011 518 3729 518 3523 
C 518 2977 499 2360 480 2077 
L 608 2038 
C 909 2341 1082 2432 1395 2432 
C 2010 2432 2394 1993 2394 1296 
C 2394 580 1984 160 1286 160 
C 941 160 621 277 531 444 
L 237 973 
L 83 883 
C 230 516 307 310 397 27 
C 576 -71 832 -128 1107 -128 
C 1536 -128 1990 59 2342 368 
C 2733 716 2938 1154 2938 1630 
C 2938 2359 2419 2874 1690 2874 
C 1382 2874 1152 2791 755 2554 
L 813 3877 
z
" transform="scale(0.015625)"/>
       </defs>
       <use xlink:href="#URWPalladioL-Roma-30" transform="scale(0.996264)"/>
       <use xlink:href="#URWPalladioL-Roma-2e" transform="translate(49.8132 0) scale(0.996264)"/>
       <use xlink:href="#URWPalladioL-Roma-35" transform="translate(74.719801 0) scale(0.996264)"/>
      </g>
     </g>
    </g>
    <g id="ytick_3">
     <g id="line2d_12">
      <g>
       <use xlink:href="#mce5b7a9ece" x="30.2533" y="27.782622" style="stroke: #000000; stroke-width: 0.8"/>
      </g>
     </g>
     <g id="text_3">
      <!-- $\mathdefault{1.0}$ -->
      <g transform="translate(10.8 31.34674) scale(0.1 -0.1)">
       <defs>
        <path id="URWPalladioL-Roma-31" d="M 429 3584 
L 493 3584 
L 1318 3956 
C 1325 3962 1331 3962 1338 3962 
C 1376 3962 1389 3905 1389 3751 
L 1389 613 
C 1389 276 1318 205 973 205 
L 614 205 
L 614 0 
C 1600 0 1600 0 1670 0 
C 1754 0 1894 0 2112 0 
C 2189 0 2413 0 2675 0 
L 2675 205 
L 2342 205 
C 1990 205 1926 276 1926 612 
L 1926 4443 
L 1837 4475 
C 1421 4257 966 4065 384 3860 
L 429 3584 
z
" transform="scale(0.015625)"/>
       </defs>
       <use xlink:href="#URWPalladioL-Roma-31" transform="scale(0.996264)"/>
       <use xlink:href="#URWPalladioL-Roma-2e" transform="translate(49.8132 0) scale(0.996264)"/>
       <use xlink:href="#URWPalladioL-Roma-30" transform="translate(74.719801 0) scale(0.996264)"/>
      </g>
     </g>
    </g>
   </g>
   <g id="line2d_13">
    <path d="M 49.332696 103.945433 
L 111.552265 103.908604 
L 111.679503 103.798534 
L 111.806741 103.489431 
L 112.061218 101.481815 
L 112.315695 96.312011 
L 112.69741 82.399887 
L 113.588079 48.169136 
L 114.097032 37.733607 
L 114.478747 33.41696 
L 114.860463 30.928968 
L 115.242178 29.52614 
L 115.623893 28.744673 
L 116.132846 28.216528 
L 116.769038 27.942588 
L 117.786945 27.814963 
L 120.840667 27.782888 
L 414.125138 27.782622 
L 430.920605 27.782622 
L 430.920605 27.782622 
" clip-path="url(#pf3a3bddf55)" style="fill: none; stroke: #1f77b4; stroke-width: 1.5; stroke-linecap: square"/>
   </g>
   <g id="line2d_14">
    <path d="M 49.332696 103.945433 
L 111.552265 103.908604 
L 111.679503 103.798534 
L 111.806741 103.489431 
L 112.061218 101.481815 
L 112.315695 96.312011 
L 112.69741 82.399887 
L 113.588079 48.169136 
L 114.097032 37.733607 
L 114.478747 33.41696 
L 114.860463 30.928968 
L 115.242178 29.52614 
L 115.623893 28.744673 
L 116.132846 28.216528 
L 116.769038 27.942588 
L 117.786945 27.814963 
L 120.840667 27.782888 
L 414.125138 27.782622 
L 430.920605 27.782622 
L 430.920605 27.782622 
" clip-path="url(#pf3a3bddf55)" style="fill: none; stroke: #ff7f0e; stroke-opacity: 0.7; stroke-width: 1.5; stroke-linecap: square"/>
   </g>
   <g id="patch_3">
    <path d="M 30.2533 107.753574 
L 30.2533 23.974481 
" style="fill: none; stroke: #000000; stroke-width: 0.8; stroke-linejoin: miter; stroke-linecap: square"/>
   </g>
   <g id="patch_4">
    <path d="M 450 107.753574 
L 450 23.974481 
" style="fill: none; stroke: #000000; stroke-width: 0.8; stroke-linejoin: miter; stroke-linecap: square"/>
   </g>
   <g id="patch_5">
    <path d="M 30.2533 107.753574 
L 450 107.753574 
" style="fill: none; stroke: #000000; stroke-width: 0.8; stroke-linejoin: miter; stroke-linecap: square"/>
   </g>
   <g id="patch_6">
    <path d="M 30.2533 23.974481 
L 450 23.974481 
" style="fill: none; stroke: #000000; stroke-width: 0.8; stroke-linejoin: miter; stroke-linecap: square"/>
   </g>
   <g id="text_4">
    <!-- $t=0$ -->
    <g transform="translate(49.205457 50.631465) scale(0.12 -0.12)">
     <defs>
      <path id="URWPalladioL-Ital-74" d="M 800 2465 
L 442 671 
C 435 626 429 615 410 538 
C 371 361 358 265 358 190 
C 358 31 429 -64 550 -64 
C 774 -64 998 62 1498 463 
L 1594 538 
L 1696 621 
L 1632 735 
L 1344 538 
C 1158 412 1030 348 960 348 
C 902 348 870 399 870 474 
C 870 639 960 1153 1146 2072 
L 1229 2465 
L 1914 2465 
L 1984 2784 
C 1741 2752 1523 2752 1280 2752 
C 1382 3348 1453 3659 1568 4001 
L 1498 4097 
C 1370 4021 1197 3944 998 3868 
L 838 2784 
C 557 2650 390 2580 275 2548 
L 262 2465 
L 800 2465 
z
" transform="scale(0.015625)"/>
      <path id="CMR10-3d" d="M 4397 2048 
C 4493 2048 4614 2048 4614 2177 
C 4614 2305 4493 2305 4403 2305 
L 570 2305 
C 480 2305 358 2305 358 2177 
C 358 2048 480 2048 576 2048 
L 4397 2048 
z
M 4403 832 
C 4493 832 4614 832 4614 961 
C 4614 1089 4493 1089 4397 1089 
L 576 1089 
C 480 1089 358 1089 358 961 
C 358 832 480 832 570 832 
L 4403 832 
z
" transform="scale(0.015625)"/>
     </defs>
     <use xlink:href="#URWPalladioL-Ital-74" transform="scale(0.996264)"/>
     <use xlink:href="#CMR10-3d" transform="translate(63.339214 0) scale(1.038107)"/>
     <use xlink:href="#URWPalladioL-Roma-30" transform="translate(172.954843 0) scale(0.996264)"/>
    </g>
   </g>
   <g id="text_5">
    <!-- $v_{\epsilon_T}&lt;c_{\beta}$ -->
    <g transform="translate(218.569687 17.974481) scale(0.12 -0.12)">
     <defs>
      <path id="URWPalladioL-Ital-76" d="M 2125 2701 
L 2195 2581 
C 2253 2619 2310 2638 2368 2638 
C 2541 2638 2643 2491 2643 2237 
C 2643 1293 2022 255 1459 255 
C 1146 255 947 521 947 935 
C 947 1603 1197 2182 1824 2957 
L 1760 3072 
C 1632 3024 1549 3008 1370 3008 
C 1190 3008 922 3008 736 3031 
L 659 3039 
C 621 3046 589 3046 582 3046 
C 506 3046 448 3033 378 3001 
C 288 2829 218 2600 134 2249 
L 275 2249 
L 384 2517 
C 429 2625 557 2695 710 2695 
C 742 2695 800 2695 883 2695 
C 934 2695 979 2695 1062 2695 
C 1197 2695 1299 2695 1466 2708 
C 755 1943 486 1414 486 777 
C 486 286 781 -64 1190 -64 
C 1459 -64 1702 51 1997 311 
C 2298 585 2605 1011 2803 1450 
C 2944 1768 3053 2194 3053 2448 
C 3053 2812 2886 3072 2656 3072 
C 2573 3072 2496 3046 2445 2996 
L 2125 2701 
z
" transform="scale(0.015625)"/>
      <path id="PazoMath-Italic-65" d="M 2483 707 
L 2330 599 
C 1990 357 1683 250 1453 250 
C 1165 250 762 554 672 960 
C 659 1023 659 1094 659 1163 
C 659 1240 666 1322 678 1398 
C 838 1417 1146 1417 1190 1417 
C 1498 1417 1888 1417 2086 1411 
L 2125 1449 
L 2214 1673 
C 1741 1660 1664 1660 1421 1660 
C 1376 1660 960 1667 723 1667 
C 781 1983 902 2326 1178 2564 
C 1357 2719 1581 2803 1805 2803 
C 2016 2803 2227 2758 2355 2603 
C 2400 2558 2470 2448 2522 2351 
L 2643 2364 
L 2906 2700 
C 2707 2938 2406 3085 2067 3085 
C 1651 3085 1235 2925 890 2630 
C 480 2291 211 1818 128 1331 
C 109 1216 96 1101 96 992 
C 96 717 173 454 339 250 
C 538 6 883 -70 1222 -70 
C 1600 -70 1933 114 2534 586 
L 2483 707 
z
" transform="scale(0.015625)"/>
      <path id="URWPalladioL-Ital-54" d="M 2496 4136 
L 2963 4136 
C 3462 4136 3693 4104 3712 4028 
C 3731 3977 3744 3855 3738 3791 
L 3712 3383 
L 3891 3383 
L 4064 4416 
L 3482 4416 
C 2918 4416 2483 4416 2259 4416 
C 2022 4416 1613 4416 1062 4416 
L 454 4416 
L 339 3383 
L 525 3383 
L 621 3766 
C 653 3907 698 4009 736 4053 
C 774 4098 1018 4136 1254 4136 
L 1971 4136 
L 1421 801 
C 1318 218 1306 199 1050 179 
L 723 179 
L 698 0 
L 1062 0 
C 1318 0 1504 0 1606 0 
C 1728 0 1926 0 2176 0 
L 2458 0 
L 2477 179 
L 2099 179 
C 1933 179 1869 230 1869 365 
C 1869 423 1875 468 1894 590 
L 2496 4136 
z
" transform="scale(0.015625)"/>
      <path id="CMMI10-3c" d="M 4320 3158 
C 4397 3196 4442 3228 4442 3297 
C 4442 3367 4384 3424 4314 3424 
C 4294 3424 4282 3424 4198 3380 
L 653 1724 
C 582 1692 531 1660 531 1584 
C 531 1508 582 1476 653 1444 
L 4198 -211 
C 4282 -256 4294 -256 4314 -256 
C 4384 -256 4442 -198 4442 -129 
C 4442 -59 4397 -27 4320 11 
L 960 1584 
L 4320 3158 
z
" transform="scale(0.015625)"/>
      <path id="URWPalladioL-Ital-63" d="M 2189 2105 
L 2336 2105 
C 2387 2518 2432 2753 2490 2919 
C 2336 3014 2112 3072 1875 3072 
C 1587 3072 1114 2842 755 2518 
C 403 2207 160 1539 160 871 
C 160 260 429 -64 941 -64 
C 1286 -64 1594 63 1946 350 
L 2266 611 
L 2214 738 
L 2118 674 
C 1658 369 1414 261 1190 261 
C 832 261 646 515 646 1017 
C 646 1705 870 2365 1184 2607 
C 1318 2709 1472 2760 1670 2760 
C 1958 2760 2189 2638 2189 2486 
L 2189 2105 
z
" transform="scale(0.015625)"/>
      <path id="PazoMath-Italic-62" d="M 77 -1773 
C 237 -1722 288 -1690 467 -1664 
C 518 -1092 563 -366 672 136 
C 928 -6 1165 -64 1491 -64 
C 2470 -64 3264 640 3264 1510 
C 3264 1843 3155 2029 2931 2195 
C 2778 2311 2637 2367 2330 2445 
L 2330 2477 
C 2349 2559 2394 2635 2496 2769 
C 2515 2795 2547 2833 2573 2858 
C 2989 3355 3110 3552 3110 3901 
C 3110 4252 2848 4544 2522 4544 
C 2259 4544 1798 4340 1427 4060 
C 1056 3786 966 3562 883 3185 
L 710 2388 
C 493 1380 275 33 -19 -1722 
L 77 -1773 
z
M 1312 2233 
L 1350 2156 
C 1581 2239 1690 2258 1843 2258 
C 2400 2258 2714 2009 2714 1465 
C 2714 1075 2566 692 2304 430 
C 2125 245 1901 155 1632 155 
C 1146 155 851 416 851 837 
C 851 901 851 965 870 1067 
L 1171 2425 
C 1312 3069 1421 3560 1472 3700 
C 1594 4031 1862 4223 2176 4223 
C 2496 4223 2714 4001 2714 3677 
C 2714 3398 2618 3232 2259 2737 
C 2086 2579 1971 2496 1709 2496 
C 1658 2496 1594 2496 1568 2502 
C 1523 2509 1491 2509 1427 2509 
L 1312 2233 
z
" transform="scale(0.015625)"/>
     </defs>
     <use xlink:href="#URWPalladioL-Ital-76" transform="scale(0.996264)"/>
     <use xlink:href="#PazoMath-Italic-65" transform="translate(52.004933 -14.943915) scale(0.757155)"/>
     <use xlink:href="#URWPalladioL-Ital-54" transform="translate(89.001191 -30.233168) scale(0.597764)"/>
     <use xlink:href="#CMMI10-3c" transform="translate(157.621353 0) scale(1.038107)"/>
     <use xlink:href="#URWPalladioL-Ital-63" transform="translate(268.482281 0) scale(0.996264)"/>
     <use xlink:href="#PazoMath-Italic-62" transform="translate(313.113833 -19.600084) scale(0.757155)"/>
    </g>
   </g>
   <g id="legend_1">
    <g id="patch_7">
     <path d="M 373.618118 102.753574 
L 443 102.753574 
Q 445 102.753574 445 100.753574 
L 445 70.485809 
Q 445 68.485809 443 68.485809 
L 373.618118 68.485809 
Q 371.618118 68.485809 371.618118 70.485809 
L 371.618118 100.753574 
Q 371.618118 102.753574 373.618118 102.753574 
z
" style="fill: #ffffff; opacity: 0.8; stroke: #cccccc; stroke-linejoin: miter"/>
    </g>
    <g id="line2d_15">
     <path d="M 375.618118 76.557452 
L 385.618118 76.557452 
L 395.618118 76.557452 
" style="fill: none; stroke: #1f77b4; stroke-width: 1.5; stroke-linecap: square"/>
    </g>
    <g id="text_6">
     <!-- $G_0(x, t)$ -->
     <g transform="translate(403.618118 80.057452) scale(0.1 -0.1)">
      <defs>
       <path id="URWPalladioL-Ital-47" d="M 3379 372 
C 3091 217 2842 159 2496 159 
C 1434 159 883 751 883 1877 
C 883 2621 1107 3264 1517 3672 
C 1830 3990 2246 4143 2778 4143 
C 3270 4143 3616 4053 3974 3825 
L 3974 3291 
L 4147 3291 
C 4179 3653 4230 3927 4320 4219 
C 3789 4410 3424 4480 2982 4480 
C 2394 4480 1926 4334 1466 4010 
C 717 3474 320 2685 320 1731 
C 320 540 1018 -128 2272 -128 
C 2618 -128 2950 -70 3341 63 
L 3533 127 
C 3699 185 3808 210 3891 223 
L 3917 267 
C 3904 357 3898 408 3898 452 
C 3898 471 3898 497 3904 522 
L 4051 1383 
C 4064 1440 4141 1504 4224 1517 
L 4429 1555 
L 4442 1733 
C 4192 1701 3968 1701 3642 1701 
C 3315 1701 3085 1701 2816 1733 
L 2784 1536 
L 3002 1536 
C 3482 1536 3539 1510 3539 1354 
C 3539 1257 3526 1128 3494 973 
L 3379 372 
z
" transform="scale(0.015625)"/>
       <path id="CMR10-28" d="M 2118 -1536 
C 2118 -1517 2118 -1504 2010 -1395 
C 1210 -584 1005 632 1005 1616 
C 1005 2735 1248 3855 2035 4658 
C 2118 4735 2118 4748 2118 4767 
C 2118 4812 2093 4832 2054 4832 
C 1990 4832 1414 4395 1037 3577 
C 710 2870 634 2156 634 1616 
C 634 1114 704 336 1056 -391 
C 1440 -1182 1990 -1600 2054 -1600 
C 2093 -1600 2118 -1581 2118 -1536 
z
" transform="scale(0.015625)"/>
       <path id="URWPalladioL-Ital-78" d="M 134 566 
C 134 438 122 357 83 153 
C 70 77 64 58 58 13 
C 154 -39 256 -64 333 -64 
C 544 -64 794 121 992 419 
L 1478 1164 
L 1549 725 
C 1632 184 1779 -64 2010 -64 
C 2150 -64 2355 44 2560 229 
L 2874 509 
L 2816 630 
C 2586 439 2426 344 2323 344 
C 2227 344 2144 408 2080 534 
C 2022 655 1952 890 1920 1075 
L 1805 1716 
L 2029 2028 
C 2330 2441 2502 2587 2701 2587 
C 2803 2587 2880 2536 2912 2441 
L 3002 2466 
L 3098 3008 
C 3021 3053 2963 3072 2906 3072 
C 2650 3072 2394 2842 1997 2257 
L 1760 1907 
L 1722 2212 
C 1645 2842 1472 3072 1094 3072 
C 928 3072 787 3021 730 2938 
L 358 2409 
L 467 2346 
C 659 2562 787 2651 909 2651 
C 1120 2651 1261 2391 1370 1767 
L 1440 1373 
L 1184 977 
C 909 549 691 344 512 344 
C 416 344 346 371 333 403 
L 262 585 
L 134 566 
z
" transform="scale(0.015625)"/>
       <path id="URWPalladioL-Roma-2c" d="M 1306 789 
C 1133 731 1018 693 678 596 
C 634 109 474 -308 102 -923 
L 192 -994 
L 454 -872 
C 973 -199 1216 205 1395 699 
L 1306 789 
z
" transform="scale(0.015625)"/>
       <path id="CMR10-29" d="M 1850 1616 
C 1850 2118 1779 2896 1427 3622 
C 1043 4414 493 4832 429 4832 
C 390 4832 365 4806 365 4767 
C 365 4748 365 4735 486 4620 
C 1114 3983 1478 2960 1478 1616 
C 1478 516 1242 -617 448 -1427 
C 365 -1504 365 -1517 365 -1536 
C 365 -1575 390 -1600 429 -1600 
C 493 -1600 1069 -1163 1446 -346 
C 1773 362 1850 1075 1850 1616 
z
" transform="scale(0.015625)"/>
      </defs>
      <use xlink:href="#URWPalladioL-Ital-47" transform="scale(0.996264)"/>
      <use xlink:href="#URWPalladioL-Roma-30" transform="translate(70.684959 -17.441431) scale(0.757155)"/>
      <use xlink:href="#CMR10-28" transform="translate(110.286149 0) scale(1.038107)"/>
      <use xlink:href="#URWPalladioL-Ital-78" transform="translate(154.71953 0) scale(0.996264)"/>
      <use xlink:href="#URWPalladioL-Roma-2c" transform="translate(206.773367 0) scale(0.996264)"/>
      <use xlink:href="#URWPalladioL-Ital-74" transform="translate(249.529626 0) scale(0.996264)"/>
      <use xlink:href="#CMR10-29" transform="translate(285.194908 0) scale(1.038107)"/>
     </g>
    </g>
    <g id="line2d_16">
     <path d="M 375.618118 92.152654 
L 385.618118 92.152654 
L 395.618118 92.152654 
" style="fill: none; stroke: #ff7f0e; stroke-opacity: 0.7; stroke-width: 1.5; stroke-linecap: square"/>
    </g>
    <g id="text_7">
     <!-- $G_{\epsilon_T}(x,t)$ -->
     <g transform="translate(403.618118 95.652654) scale(0.1 -0.1)">
      <use xlink:href="#URWPalladioL-Ital-47" transform="scale(0.996264)"/>
      <use xlink:href="#PazoMath-Italic-65" transform="translate(71.631376 -14.943915) scale(0.757155)"/>
      <use xlink:href="#URWPalladioL-Ital-54" transform="translate(108.627635 -30.233168) scale(0.597764)"/>
      <use xlink:href="#CMR10-28" transform="translate(149.573864 0) scale(1.038107)"/>
      <use xlink:href="#URWPalladioL-Ital-78" transform="translate(194.007245 0) scale(0.996264)"/>
      <use xlink:href="#URWPalladioL-Roma-2c" transform="translate(246.061081 0) scale(0.996264)"/>
      <use xlink:href="#URWPalladioL-Ital-74" transform="translate(288.817341 0) scale(0.996264)"/>
      <use xlink:href="#CMR10-29" transform="translate(324.482623 0) scale(1.038107)"/>
     </g>
    </g>
   </g>
  </g>
  <g id="axes_2">
   <g id="patch_8">
    <path d="M 30.2533 205.839139 
L 450 205.839139 
L 450 122.060046 
L 30.2533 122.060046 
z
" style="fill: #ffffff"/>
   </g>
   <g id="matplotlib.axis_3">
    <g id="xtick_10">
     <g id="line2d_17">
      <g>
       <use xlink:href="#m1b6ed63202" x="49.205457" y="205.839139" style="stroke: #000000; stroke-width: 0.8"/>
      </g>
     </g>
    </g>
    <g id="xtick_11">
     <g id="line2d_18">
      <g>
       <use xlink:href="#m1b6ed63202" x="96.935755" y="205.839139" style="stroke: #000000; stroke-width: 0.8"/>
      </g>
     </g>
    </g>
    <g id="xtick_12">
     <g id="line2d_19">
      <g>
       <use xlink:href="#m1b6ed63202" x="144.666054" y="205.839139" style="stroke: #000000; stroke-width: 0.8"/>
      </g>
     </g>
    </g>
    <g id="xtick_13">
     <g id="line2d_20">
      <g>
       <use xlink:href="#m1b6ed63202" x="192.396352" y="205.839139" style="stroke: #000000; stroke-width: 0.8"/>
      </g>
     </g>
    </g>
    <g id="xtick_14">
     <g id="line2d_21">
      <g>
       <use xlink:href="#m1b6ed63202" x="240.12665" y="205.839139" style="stroke: #000000; stroke-width: 0.8"/>
      </g>
     </g>
    </g>
    <g id="xtick_15">
     <g id="line2d_22">
      <g>
       <use xlink:href="#m1b6ed63202" x="287.856948" y="205.839139" style="stroke: #000000; stroke-width: 0.8"/>
      </g>
     </g>
    </g>
    <g id="xtick_16">
     <g id="line2d_23">
      <g>
       <use xlink:href="#m1b6ed63202" x="335.587246" y="205.839139" style="stroke: #000000; stroke-width: 0.8"/>
      </g>
     </g>
    </g>
    <g id="xtick_17">
     <g id="line2d_24">
      <g>
       <use xlink:href="#m1b6ed63202" x="383.317545" y="205.839139" style="stroke: #000000; stroke-width: 0.8"/>
      </g>
     </g>
    </g>
    <g id="xtick_18">
     <g id="line2d_25">
      <g>
       <use xlink:href="#m1b6ed63202" x="431.047843" y="205.839139" style="stroke: #000000; stroke-width: 0.8"/>
      </g>
     </g>
    </g>
   </g>
   <g id="matplotlib.axis_4">
    <g id="ytick_4">
     <g id="line2d_26">
      <g>
       <use xlink:href="#mce5b7a9ece" x="30.2533" y="202.030998" style="stroke: #000000; stroke-width: 0.8"/>
      </g>
     </g>
     <g id="text_8">
      <!-- $\mathdefault{0.0}$ -->
      <g transform="translate(10.8 205.595117) scale(0.1 -0.1)">
       <use xlink:href="#URWPalladioL-Roma-30" transform="scale(0.996264)"/>
       <use xlink:href="#URWPalladioL-Roma-2e" transform="translate(49.8132 0) scale(0.996264)"/>
       <use xlink:href="#URWPalladioL-Roma-30" transform="translate(74.719801 0) scale(0.996264)"/>
      </g>
     </g>
    </g>
    <g id="ytick_5">
     <g id="line2d_27">
      <g>
       <use xlink:href="#mce5b7a9ece" x="30.2533" y="163.949592" style="stroke: #000000; stroke-width: 0.8"/>
      </g>
     </g>
     <g id="text_9">
      <!-- $\mathdefault{0.5}$ -->
      <g transform="translate(10.8 167.513711) scale(0.1 -0.1)">
       <use xlink:href="#URWPalladioL-Roma-30" transform="scale(0.996264)"/>
       <use xlink:href="#URWPalladioL-Roma-2e" transform="translate(49.8132 0) scale(0.996264)"/>
       <use xlink:href="#URWPalladioL-Roma-35" transform="translate(74.719801 0) scale(0.996264)"/>
      </g>
     </g>
    </g>
    <g id="ytick_6">
     <g id="line2d_28">
      <g>
       <use xlink:href="#mce5b7a9ece" x="30.2533" y="125.868186" style="stroke: #000000; stroke-width: 0.8"/>
      </g>
     </g>
     <g id="text_10">
      <!-- $\mathdefault{1.0}$ -->
      <g transform="translate(10.8 129.432305) scale(0.1 -0.1)">
       <use xlink:href="#URWPalladioL-Roma-31" transform="scale(0.996264)"/>
       <use xlink:href="#URWPalladioL-Roma-2e" transform="translate(49.8132 0) scale(0.996264)"/>
       <use xlink:href="#URWPalladioL-Roma-30" transform="translate(74.719801 0) scale(0.996264)"/>
      </g>
     </g>
    </g>
   </g>
   <g id="line2d_29">
    <path d="M 49.332696 202.030998 
L 167.537153 201.921839 
L 170.718112 201.695117 
L 172.753927 201.344198 
L 174.280787 200.866231 
L 175.553171 200.242311 
L 176.698316 199.433254 
L 177.716223 198.457475 
L 178.734131 197.181702 
L 179.752038 195.545344 
L 180.769945 193.485483 
L 181.787852 190.940893 
L 182.932997 187.434842 
L 184.078143 183.209144 
L 185.477765 177.100132 
L 187.259102 168.155874 
L 190.821777 149.897237 
L 192.221399 143.992861 
L 193.493783 139.59766 
L 194.638928 136.419927 
L 195.784074 133.895154 
L 196.929219 131.918653 
L 198.074365 130.388742 
L 199.21951 129.217136 
L 200.491894 128.246413 
L 201.891516 127.48625 
L 203.418377 126.924601 
L 205.199714 126.509191 
L 207.617243 126.194501 
L 211.05268 125.993094 
L 217.160122 125.890274 
L 238.663409 125.868236 
L 430.920605 125.868186 
L 430.920605 125.868186 
" clip-path="url(#pb5cf9ba5a5)" style="fill: none; stroke: #1f77b4; stroke-width: 1.5; stroke-linecap: square"/>
   </g>
   <g id="line2d_30">
    <path d="M 49.332696 202.030998 
L 195.656835 201.929748 
L 197.310934 201.698183 
L 198.45608 201.335447 
L 199.473987 200.764824 
L 200.364656 199.979472 
L 201.128086 199.019704 
L 201.891516 197.727634 
L 202.654946 196.03919 
L 203.545615 193.492295 
L 204.436284 190.26154 
L 205.454191 185.701721 
L 206.599336 179.532156 
L 208.126197 169.998386 
L 211.688872 147.179278 
L 212.961255 140.66168 
L 214.106401 135.985926 
L 215.124308 132.788366 
L 216.014977 130.669277 
L 216.905645 129.096078 
L 217.796314 127.970848 
L 218.686983 127.195284 
L 219.70489 126.62307 
L 220.850035 126.249892 
L 222.376896 126.011418 
L 224.794425 125.895357 
L 232.30149 125.86886 
L 430.920605 125.868186 
L 430.920605 125.868186 
" clip-path="url(#pb5cf9ba5a5)" style="fill: none; stroke: #ff7f0e; stroke-opacity: 0.7; stroke-width: 1.5; stroke-linecap: square"/>
   </g>
   <g id="patch_9">
    <path d="M 30.2533 205.839139 
L 30.2533 122.060046 
" style="fill: none; stroke: #000000; stroke-width: 0.8; stroke-linejoin: miter; stroke-linecap: square"/>
   </g>
   <g id="patch_10">
    <path d="M 450 205.839139 
L 450 122.060046 
" style="fill: none; stroke: #000000; stroke-width: 0.8; stroke-linejoin: miter; stroke-linecap: square"/>
   </g>
   <g id="patch_11">
    <path d="M 30.2533 205.839139 
L 450 205.839139 
" style="fill: none; stroke: #000000; stroke-width: 0.8; stroke-linejoin: miter; stroke-linecap: square"/>
   </g>
   <g id="patch_12">
    <path d="M 30.2533 122.060046 
L 450 122.060046 
" style="fill: none; stroke: #000000; stroke-width: 0.8; stroke-linejoin: miter; stroke-linecap: square"/>
   </g>
   <g id="text_11">
    <!-- $t=1000$ -->
    <g transform="translate(49.205457 148.71703) scale(0.12 -0.12)">
     <use xlink:href="#URWPalladioL-Ital-74" transform="scale(0.996264)"/>
     <use xlink:href="#CMR10-3d" transform="translate(63.339214 0) scale(1.038107)"/>
     <use xlink:href="#URWPalladioL-Roma-31" transform="translate(172.954843 0) scale(0.996264)"/>
     <use xlink:href="#URWPalladioL-Roma-30" transform="translate(222.768044 0) scale(0.996264)"/>
     <use xlink:href="#URWPalladioL-Roma-30" transform="translate(272.581244 0) scale(0.996264)"/>
     <use xlink:href="#URWPalladioL-Roma-30" transform="translate(322.394445 0) scale(0.996264)"/>
    </g>
   </g>
  </g>
  <g id="axes_3">
   <g id="patch_13">
    <path d="M 30.2533 303.924703 
L 450 303.924703 
L 450 220.14561 
L 30.2533 220.14561 
z
" style="fill: #ffffff"/>
   </g>
   <g id="matplotlib.axis_5">
    <g id="xtick_19">
     <g id="line2d_31">
      <g>
       <use xlink:href="#m1b6ed63202" x="49.205457" y="303.924703" style="stroke: #000000; stroke-width: 0.8"/>
      </g>
     </g>
     <g id="text_12">
      <!-- $\mathdefault{−200}$ -->
      <g transform="translate(37.636392 318.052941) scale(0.1 -0.1)">
       <defs>
        <path id="CMSY10-0" d="M 4218 1472 
C 4326 1472 4442 1472 4442 1600 
C 4442 1728 4326 1728 4218 1728 
L 755 1728 
C 646 1728 531 1728 531 1600 
C 531 1472 646 1472 755 1472 
L 4218 1472 
z
" transform="scale(0.015625)"/>
        <path id="URWPalladioL-Roma-32" d="M 102 160 
L 102 0 
C 1299 0 1299 0 1530 0 
C 1760 0 1760 0 2995 0 
C 2982 125 2982 186 2982 269 
C 2982 348 2982 407 2995 539 
C 2259 539 1965 539 781 539 
L 1946 1761 
C 2566 2414 2758 2763 2758 3238 
C 2758 3966 2259 4416 1446 4416 
C 986 4416 672 4288 358 3969 
L 250 3099 
L 435 3099 
L 518 3393 
C 621 3763 851 3923 1280 3923 
C 1830 3923 2182 3577 2182 3035 
C 2182 2555 1914 2083 1190 1316 
L 102 160 
z
" transform="scale(0.015625)"/>
       </defs>
       <use xlink:href="#CMSY10-0" transform="scale(1.038107)"/>
       <use xlink:href="#URWPalladioL-Roma-32" transform="translate(81.941696 0) scale(0.996264)"/>
       <use xlink:href="#URWPalladioL-Roma-30" transform="translate(131.754897 0) scale(0.996264)"/>
       <use xlink:href="#URWPalladioL-Roma-30" transform="translate(181.568097 0) scale(0.996264)"/>
      </g>
     </g>
    </g>
    <g id="xtick_20">
     <g id="line2d_32">
      <g>
       <use xlink:href="#m1b6ed63202" x="96.935755" y="303.924703" style="stroke: #000000; stroke-width: 0.8"/>
      </g>
     </g>
     <g id="text_13">
      <!-- $\mathdefault{−150}$ -->
      <g transform="translate(85.36669 318.052941) scale(0.1 -0.1)">
       <use xlink:href="#CMSY10-0" transform="scale(1.038107)"/>
       <use xlink:href="#URWPalladioL-Roma-31" transform="translate(81.941696 0) scale(0.996264)"/>
       <use xlink:href="#URWPalladioL-Roma-35" transform="translate(131.754897 0) scale(0.996264)"/>
       <use xlink:href="#URWPalladioL-Roma-30" transform="translate(181.568097 0) scale(0.996264)"/>
      </g>
     </g>
    </g>
    <g id="xtick_21">
     <g id="line2d_33">
      <g>
       <use xlink:href="#m1b6ed63202" x="144.666054" y="303.924703" style="stroke: #000000; stroke-width: 0.8"/>
      </g>
     </g>
     <g id="text_14">
      <!-- $\mathdefault{−100}$ -->
      <g transform="translate(133.096988 318.052941) scale(0.1 -0.1)">
       <use xlink:href="#CMSY10-0" transform="scale(1.038107)"/>
       <use xlink:href="#URWPalladioL-Roma-31" transform="translate(81.941696 0) scale(0.996264)"/>
       <use xlink:href="#URWPalladioL-Roma-30" transform="translate(131.754897 0) scale(0.996264)"/>
       <use xlink:href="#URWPalladioL-Roma-30" transform="translate(181.568097 0) scale(0.996264)"/>
      </g>
     </g>
    </g>
    <g id="xtick_22">
     <g id="line2d_34">
      <g>
       <use xlink:href="#m1b6ed63202" x="192.396352" y="303.924703" style="stroke: #000000; stroke-width: 0.8"/>
      </g>
     </g>
     <g id="text_15">
      <!-- $\mathdefault{−50}$ -->
      <g transform="translate(183.317946 318.052941) scale(0.1 -0.1)">
       <use xlink:href="#CMSY10-0" transform="scale(1.038107)"/>
       <use xlink:href="#URWPalladioL-Roma-35" transform="translate(81.941696 0) scale(0.996264)"/>
       <use xlink:href="#URWPalladioL-Roma-30" transform="translate(131.754897 0) scale(0.996264)"/>
      </g>
     </g>
    </g>
    <g id="xtick_23">
     <g id="line2d_35">
      <g>
       <use xlink:href="#m1b6ed63202" x="240.12665" y="303.924703" style="stroke: #000000; stroke-width: 0.8"/>
      </g>
     </g>
     <g id="text_16">
      <!-- $\mathdefault{0}$ -->
      <g transform="translate(237.63599 318.052941) scale(0.1 -0.1)">
       <use xlink:href="#URWPalladioL-Roma-30" transform="scale(0.996264)"/>
      </g>
     </g>
    </g>
    <g id="xtick_24">
     <g id="line2d_36">
      <g>
       <use xlink:href="#m1b6ed63202" x="287.856948" y="303.924703" style="stroke: #000000; stroke-width: 0.8"/>
      </g>
     </g>
     <g id="text_17">
      <!-- $\mathdefault{50}$ -->
      <g transform="translate(282.875628 318.052941) scale(0.1 -0.1)">
       <use xlink:href="#URWPalladioL-Roma-35" transform="scale(0.996264)"/>
       <use xlink:href="#URWPalladioL-Roma-30" transform="translate(49.8132 0) scale(0.996264)"/>
      </g>
     </g>
    </g>
    <g id="xtick_25">
     <g id="line2d_37">
      <g>
       <use xlink:href="#m1b6ed63202" x="335.587246" y="303.924703" style="stroke: #000000; stroke-width: 0.8"/>
      </g>
     </g>
     <g id="text_18">
      <!-- $\mathdefault{100}$ -->
      <g transform="translate(328.115266 318.052941) scale(0.1 -0.1)">
       <use xlink:href="#URWPalladioL-Roma-31" transform="scale(0.996264)"/>
       <use xlink:href="#URWPalladioL-Roma-30" transform="translate(49.8132 0) scale(0.996264)"/>
       <use xlink:href="#URWPalladioL-Roma-30" transform="translate(99.626401 0) scale(0.996264)"/>
      </g>
     </g>
    </g>
    <g id="xtick_26">
     <g id="line2d_38">
      <g>
       <use xlink:href="#m1b6ed63202" x="383.317545" y="303.924703" style="stroke: #000000; stroke-width: 0.8"/>
      </g>
     </g>
     <g id="text_19">
      <!-- $\mathdefault{150}$ -->
      <g transform="translate(375.845565 318.052941) scale(0.1 -0.1)">
       <use xlink:href="#URWPalladioL-Roma-31" transform="scale(0.996264)"/>
       <use xlink:href="#URWPalladioL-Roma-35" transform="translate(49.8132 0) scale(0.996264)"/>
       <use xlink:href="#URWPalladioL-Roma-30" transform="translate(99.626401 0) scale(0.996264)"/>
      </g>
     </g>
    </g>
    <g id="xtick_27">
     <g id="line2d_39">
      <g>
       <use xlink:href="#m1b6ed63202" x="431.047843" y="303.924703" style="stroke: #000000; stroke-width: 0.8"/>
      </g>
     </g>
     <g id="text_20">
      <!-- $\mathdefault{200}$ -->
      <g transform="translate(423.575863 318.052941) scale(0.1 -0.1)">
       <use xlink:href="#URWPalladioL-Roma-32" transform="scale(0.996264)"/>
       <use xlink:href="#URWPalladioL-Roma-30" transform="translate(49.8132 0) scale(0.996264)"/>
       <use xlink:href="#URWPalladioL-Roma-30" transform="translate(99.626401 0) scale(0.996264)"/>
      </g>
     </g>
    </g>
    <g id="text_21">
     <!-- $x$ -->
     <g transform="translate(237.63599 331.990589) scale(0.1 -0.1)">
      <use xlink:href="#URWPalladioL-Ital-78" transform="scale(0.996264)"/>
     </g>
    </g>
   </g>
   <g id="matplotlib.axis_6">
    <g id="ytick_7">
     <g id="line2d_40">
      <g>
       <use xlink:href="#mce5b7a9ece" x="30.2533" y="300.116563" style="stroke: #000000; stroke-width: 0.8"/>
      </g>
     </g>
     <g id="text_22">
      <!-- $\mathdefault{0.0}$ -->
      <g transform="translate(10.8 303.680681) scale(0.1 -0.1)">
       <use xlink:href="#URWPalladioL-Roma-30" transform="scale(0.996264)"/>
       <use xlink:href="#URWPalladioL-Roma-2e" transform="translate(49.8132 0) scale(0.996264)"/>
       <use xlink:href="#URWPalladioL-Roma-30" transform="translate(74.719801 0) scale(0.996264)"/>
      </g>
     </g>
    </g>
    <g id="ytick_8">
     <g id="line2d_41">
      <g>
       <use xlink:href="#mce5b7a9ece" x="30.2533" y="262.035157" style="stroke: #000000; stroke-width: 0.8"/>
      </g>
     </g>
     <g id="text_23">
      <!-- $\mathdefault{0.5}$ -->
      <g transform="translate(10.8 265.599275) scale(0.1 -0.1)">
       <use xlink:href="#URWPalladioL-Roma-30" transform="scale(0.996264)"/>
       <use xlink:href="#URWPalladioL-Roma-2e" transform="translate(49.8132 0) scale(0.996264)"/>
       <use xlink:href="#URWPalladioL-Roma-35" transform="translate(74.719801 0) scale(0.996264)"/>
      </g>
     </g>
    </g>
    <g id="ytick_9">
     <g id="line2d_42">
      <g>
       <use xlink:href="#mce5b7a9ece" x="30.2533" y="223.953751" style="stroke: #000000; stroke-width: 0.8"/>
      </g>
     </g>
     <g id="text_24">
      <!-- $\mathdefault{1.0}$ -->
      <g transform="translate(10.8 227.51787) scale(0.1 -0.1)">
       <use xlink:href="#URWPalladioL-Roma-31" transform="scale(0.996264)"/>
       <use xlink:href="#URWPalladioL-Roma-2e" transform="translate(49.8132 0) scale(0.996264)"/>
       <use xlink:href="#URWPalladioL-Roma-30" transform="translate(74.719801 0) scale(0.996264)"/>
      </g>
     </g>
    </g>
   </g>
   <g id="line2d_43">
    <path d="M 49.332696 300.116563 
L 343.889551 300.008896 
L 348.088418 299.774815 
L 350.633185 299.431185 
L 352.541761 298.964313 
L 354.068622 298.375914 
L 355.341005 297.670476 
L 356.486151 296.80705 
L 357.631296 295.659899 
L 358.649203 294.338162 
L 359.66711 292.664953 
L 360.685017 290.569695 
L 361.702924 287.98209 
L 362.84807 284.40951 
L 363.993215 280.096012 
L 365.392838 273.867944 
L 367.301413 264.152843 
L 370.355135 248.531864 
L 371.754757 242.505486 
L 373.027141 237.965343 
L 374.172286 234.658618 
L 375.317431 232.030117 
L 376.462577 229.98622 
L 377.607722 228.423661 
L 378.752868 227.244852 
L 379.898013 226.364954 
L 381.170397 225.652856 
L 382.697258 225.065157 
L 384.478595 224.627936 
L 386.768886 224.306448 
L 390.077084 224.091802 
L 395.802811 223.981226 
L 413.9979 223.953911 
L 430.920605 223.953751 
L 430.920605 223.953751 
" clip-path="url(#pfa69ed797c)" style="fill: none; stroke: #1f77b4; stroke-width: 1.5; stroke-linecap: square"/>
   </g>
   <g id="line2d_44">
    <path d="M 49.332696 300.116563 
L 356.358912 300.011357 
L 358.521965 299.784158 
L 359.921587 299.433228 
L 361.066733 298.908974 
L 361.957401 298.265923 
L 362.84807 297.327414 
L 363.6115 296.212281 
L 364.374931 294.737255 
L 365.265599 292.470158 
L 366.156268 289.529337 
L 367.174175 285.28547 
L 368.31932 279.438973 
L 369.846181 270.336928 
L 373.027141 250.992584 
L 374.426763 244.034379 
L 375.571908 239.378595 
L 376.717054 235.633349 
L 377.734961 232.988809 
L 378.752868 230.894023 
L 379.770775 229.255299 
L 380.91592 227.849134 
L 382.061066 226.803843 
L 383.33345 225.960353 
L 384.733072 225.313083 
L 386.387171 224.808658 
L 388.422985 224.435119 
L 391.222229 224.171651 
L 395.548334 224.017842 
L 405.091213 223.958079 
L 430.920605 223.953753 
L 430.920605 223.953753 
" clip-path="url(#pfa69ed797c)" style="fill: none; stroke: #ff7f0e; stroke-opacity: 0.7; stroke-width: 1.5; stroke-linecap: square"/>
   </g>
   <g id="patch_14">
    <path d="M 30.2533 303.924703 
L 30.2533 220.14561 
" style="fill: none; stroke: #000000; stroke-width: 0.8; stroke-linejoin: miter; stroke-linecap: square"/>
   </g>
   <g id="patch_15">
    <path d="M 450 303.924703 
L 450 220.14561 
" style="fill: none; stroke: #000000; stroke-width: 0.8; stroke-linejoin: miter; stroke-linecap: square"/>
   </g>
   <g id="patch_16">
    <path d="M 30.2533 303.924703 
L 450 303.924703 
" style="fill: none; stroke: #000000; stroke-width: 0.8; stroke-linejoin: miter; stroke-linecap: square"/>
   </g>
   <g id="patch_17">
    <path d="M 30.2533 220.14561 
L 450 220.14561 
" style="fill: none; stroke: #000000; stroke-width: 0.8; stroke-linejoin: miter; stroke-linecap: square"/>
   </g>
   <g id="text_25">
    <!-- $t=2000$ -->
    <g transform="translate(49.205457 246.802594) scale(0.12 -0.12)">
     <use xlink:href="#URWPalladioL-Ital-74" transform="scale(0.996264)"/>
     <use xlink:href="#CMR10-3d" transform="translate(63.339214 0) scale(1.038107)"/>
     <use xlink:href="#URWPalladioL-Roma-32" transform="translate(172.954843 0) scale(0.996264)"/>
     <use xlink:href="#URWPalladioL-Roma-30" transform="translate(222.768044 0) scale(0.996264)"/>
     <use xlink:href="#URWPalladioL-Roma-30" transform="translate(272.581244 0) scale(0.996264)"/>
     <use xlink:href="#URWPalladioL-Roma-30" transform="translate(322.394445 0) scale(0.996264)"/>
    </g>
   </g>
  </g>
 </g>
 <defs>
  <clipPath id="pf3a3bddf55">
   <rect x="30.2533" y="23.974481" width="419.7467" height="83.779093"/>
  </clipPath>
  <clipPath id="pb5cf9ba5a5">
   <rect x="30.2533" y="122.060046" width="419.7467" height="83.779093"/>
  </clipPath>
  <clipPath id="pfa69ed797c">
   <rect x="30.2533" y="220.14561" width="419.7467" height="83.779093"/>
  </clipPath>
 </defs>
</svg>
