<?xml version="1.0" encoding="utf-8" standalone="no"?>
<!DOCTYPE svg PUBLIC "-//W3C//DTD SVG 1.1//EN"
  "http://www.w3.org/Graphics/SVG/1.1/DTD/svg11.dtd">
<svg xmlns:xlink="http://www.w3.org/1999/xlink" width="288pt" height="216pt" viewBox="0 0 288 216" xmlns="http://www.w3.org/2000/svg" version="1.1">
 <metadata>
  <rdf:RDF xmlns:dc="http://purl.org/dc/elements/1.1/" xmlns:cc="http://creativecommons.org/ns#" xmlns:rdf="http://www.w3.org/1999/02/22-rdf-syntax-ns#">
   <cc:Work>
    <dc:type rdf:resource="http://purl.org/dc/dcmitype/StillImage"/>
    <dc:date>2023-12-13T17:50:58.502283</dc:date>
    <dc:format>image/svg+xml</dc:format>
    <dc:creator>
     <cc:Agent>
      <dc:title>Matplotlib v3.6.2, https://matplotlib.org/</dc:title>
     </cc:Agent>
    </dc:creator>
   </cc:Work>
  </rdf:RDF>
 </metadata>
 <defs>
  <style type="text/css">*{stroke-linejoin: round; stroke-linecap: butt}</style>
 </defs>
 <g id="figure_1">
  <g id="patch_1">
   <path d="M 0 216 
L 288 216 
L 288 0 
L 0 0 
z
" style="fill: #ffffff"/>
  </g>
  <g id="axes_1">
   <g id="patch_2">
    <path d="M 47.279434 174.324703 
L 277.2 174.324703 
L 277.2 25.353876 
L 47.279434 25.353876 
z
" style="fill: #ffffff"/>
   </g>
   <g id="matplotlib.axis_1">
    <g id="xtick_1">
     <g id="line2d_1">
      <defs>
       <path id="m61c2d48f98" d="M 0 0 
L 0 3.5 
" style="stroke: #000000; stroke-width: 0.8"/>
      </defs>
      <g>
       <use xlink:href="#m61c2d48f98" x="57.730369" y="174.324703" style="stroke: #000000; stroke-width: 0.8"/>
      </g>
     </g>
     <g id="text_1">
      <!-- $\mathdefault{0}$ -->
      <g transform="translate(55.239709 188.452941) scale(0.1 -0.1)">
       <defs>
        <path id="URWPalladioL-Roma-30" d="M 1683 4416 
C 691 4416 186 3628 186 2077 
C 186 1326 320 680 544 366 
C 768 51 1126 -128 1523 -128 
C 2490 -128 2976 705 2976 2346 
C 2976 3749 2560 4416 1683 4416 
z
M 1568 4192 
C 2189 4192 2438 3564 2438 2025 
C 2438 661 2195 96 1606 96 
C 986 96 723 744 723 2308 
C 723 3660 960 4192 1568 4192 
z
" transform="scale(0.015625)"/>
       </defs>
       <use xlink:href="#URWPalladioL-Roma-30" transform="scale(0.996264)"/>
      </g>
     </g>
    </g>
    <g id="xtick_2">
     <g id="line2d_2">
      <g>
       <use xlink:href="#m61c2d48f98" x="92.578434" y="174.324703" style="stroke: #000000; stroke-width: 0.8"/>
      </g>
     </g>
     <g id="text_2">
      <!-- $\mathdefault{500}$ -->
      <g transform="translate(85.106454 188.452941) scale(0.1 -0.1)">
       <defs>
        <path id="URWPalladioL-Roma-35" d="M 813 3877 
C 1638 3877 1997 3877 2765 3877 
L 2797 3907 
C 2784 4016 2784 4064 2784 4144 
C 2784 4229 2784 4277 2797 4386 
L 2765 4416 
C 2285 4416 1997 4416 1651 4416 
C 1299 4416 1018 4416 538 4416 
L 506 4403 
C 512 4011 518 3729 518 3523 
C 518 2977 499 2360 480 2077 
L 608 2038 
C 909 2341 1082 2432 1395 2432 
C 2010 2432 2394 1993 2394 1296 
C 2394 580 1984 160 1286 160 
C 941 160 621 277 531 444 
L 237 973 
L 83 883 
C 230 516 307 310 397 27 
C 576 -71 832 -128 1107 -128 
C 1536 -128 1990 59 2342 368 
C 2733 716 2938 1154 2938 1630 
C 2938 2359 2419 2874 1690 2874 
C 1382 2874 1152 2791 755 2554 
L 813 3877 
z
" transform="scale(0.015625)"/>
       </defs>
       <use xlink:href="#URWPalladioL-Roma-35" transform="scale(0.996264)"/>
       <use xlink:href="#URWPalladioL-Roma-30" transform="translate(49.8132 0) scale(0.996264)"/>
       <use xlink:href="#URWPalladioL-Roma-30" transform="translate(99.626401 0) scale(0.996264)"/>
      </g>
     </g>
    </g>
    <g id="xtick_3">
     <g id="line2d_3">
      <g>
       <use xlink:href="#m61c2d48f98" x="127.4265" y="174.324703" style="stroke: #000000; stroke-width: 0.8"/>
      </g>
     </g>
     <g id="text_3">
      <!-- $\mathdefault{1000}$ -->
      <g transform="translate(117.463859 188.452941) scale(0.1 -0.1)">
       <defs>
        <path id="URWPalladioL-Roma-31" d="M 429 3584 
L 493 3584 
L 1318 3956 
C 1325 3962 1331 3962 1338 3962 
C 1376 3962 1389 3905 1389 3751 
L 1389 613 
C 1389 276 1318 205 973 205 
L 614 205 
L 614 0 
C 1600 0 1600 0 1670 0 
C 1754 0 1894 0 2112 0 
C 2189 0 2413 0 2675 0 
L 2675 205 
L 2342 205 
C 1990 205 1926 276 1926 612 
L 1926 4443 
L 1837 4475 
C 1421 4257 966 4065 384 3860 
L 429 3584 
z
" transform="scale(0.015625)"/>
       </defs>
       <use xlink:href="#URWPalladioL-Roma-31" transform="scale(0.996264)"/>
       <use xlink:href="#URWPalladioL-Roma-30" transform="translate(49.8132 0) scale(0.996264)"/>
       <use xlink:href="#URWPalladioL-Roma-30" transform="translate(99.626401 0) scale(0.996264)"/>
       <use xlink:href="#URWPalladioL-Roma-30" transform="translate(149.439601 0) scale(0.996264)"/>
      </g>
     </g>
    </g>
    <g id="xtick_4">
     <g id="line2d_4">
      <g>
       <use xlink:href="#m61c2d48f98" x="162.274565" y="174.324703" style="stroke: #000000; stroke-width: 0.8"/>
      </g>
     </g>
     <g id="text_4">
      <!-- $\mathdefault{1500}$ -->
      <g transform="translate(152.311925 188.452941) scale(0.1 -0.1)">
       <use xlink:href="#URWPalladioL-Roma-31" transform="scale(0.996264)"/>
       <use xlink:href="#URWPalladioL-Roma-35" transform="translate(49.8132 0) scale(0.996264)"/>
       <use xlink:href="#URWPalladioL-Roma-30" transform="translate(99.626401 0) scale(0.996264)"/>
       <use xlink:href="#URWPalladioL-Roma-30" transform="translate(149.439601 0) scale(0.996264)"/>
      </g>
     </g>
    </g>
    <g id="xtick_5">
     <g id="line2d_5">
      <g>
       <use xlink:href="#m61c2d48f98" x="197.12263" y="174.324703" style="stroke: #000000; stroke-width: 0.8"/>
      </g>
     </g>
     <g id="text_5">
      <!-- $\mathdefault{2000}$ -->
      <g transform="translate(187.15999 188.452941) scale(0.1 -0.1)">
       <defs>
        <path id="URWPalladioL-Roma-32" d="M 102 160 
L 102 0 
C 1299 0 1299 0 1530 0 
C 1760 0 1760 0 2995 0 
C 2982 125 2982 186 2982 269 
C 2982 348 2982 407 2995 539 
C 2259 539 1965 539 781 539 
L 1946 1761 
C 2566 2414 2758 2763 2758 3238 
C 2758 3966 2259 4416 1446 4416 
C 986 4416 672 4288 358 3969 
L 250 3099 
L 435 3099 
L 518 3393 
C 621 3763 851 3923 1280 3923 
C 1830 3923 2182 3577 2182 3035 
C 2182 2555 1914 2083 1190 1316 
L 102 160 
z
" transform="scale(0.015625)"/>
       </defs>
       <use xlink:href="#URWPalladioL-Roma-32" transform="scale(0.996264)"/>
       <use xlink:href="#URWPalladioL-Roma-30" transform="translate(49.8132 0) scale(0.996264)"/>
       <use xlink:href="#URWPalladioL-Roma-30" transform="translate(99.626401 0) scale(0.996264)"/>
       <use xlink:href="#URWPalladioL-Roma-30" transform="translate(149.439601 0) scale(0.996264)"/>
      </g>
     </g>
    </g>
    <g id="xtick_6">
     <g id="line2d_6">
      <g>
       <use xlink:href="#m61c2d48f98" x="231.970696" y="174.324703" style="stroke: #000000; stroke-width: 0.8"/>
      </g>
     </g>
     <g id="text_6">
      <!-- $\mathdefault{2500}$ -->
      <g transform="translate(222.008056 188.452941) scale(0.1 -0.1)">
       <use xlink:href="#URWPalladioL-Roma-32" transform="scale(0.996264)"/>
       <use xlink:href="#URWPalladioL-Roma-35" transform="translate(49.8132 0) scale(0.996264)"/>
       <use xlink:href="#URWPalladioL-Roma-30" transform="translate(99.626401 0) scale(0.996264)"/>
       <use xlink:href="#URWPalladioL-Roma-30" transform="translate(149.439601 0) scale(0.996264)"/>
      </g>
     </g>
    </g>
    <g id="xtick_7">
     <g id="line2d_7">
      <g>
       <use xlink:href="#m61c2d48f98" x="266.818761" y="174.324703" style="stroke: #000000; stroke-width: 0.8"/>
      </g>
     </g>
     <g id="text_7">
      <!-- $\mathdefault{3000}$ -->
      <g transform="translate(256.856121 188.452941) scale(0.1 -0.1)">
       <defs>
        <path id="URWPalladioL-Roma-33" d="M 275 3197 
L 474 3197 
L 589 3554 
C 659 3770 1062 3987 1395 3987 
C 1811 3987 2150 3649 2150 3248 
C 2150 2770 1773 2368 1318 2368 
C 1267 2368 1197 2368 1114 2381 
L 1018 2381 
L 941 2047 
L 986 2008 
C 1229 2118 1350 2150 1523 2150 
C 2054 2150 2362 1809 2362 1222 
C 2362 566 1971 135 1376 135 
C 1082 135 819 231 627 411 
C 474 553 390 701 269 1049 
L 96 985 
C 230 593 282 361 320 39 
C 659 -77 941 -128 1178 -128 
C 1690 -128 2278 161 2630 593 
C 2848 857 2957 1140 2957 1442 
C 2957 1751 2829 2022 2598 2182 
C 2438 2298 2291 2350 1971 2407 
C 2483 2803 2675 3096 2675 3472 
C 2675 4040 2202 4416 1491 4416 
C 1056 4416 768 4295 461 3989 
L 275 3197 
z
" transform="scale(0.015625)"/>
       </defs>
       <use xlink:href="#URWPalladioL-Roma-33" transform="scale(0.996264)"/>
       <use xlink:href="#URWPalladioL-Roma-30" transform="translate(49.8132 0) scale(0.996264)"/>
       <use xlink:href="#URWPalladioL-Roma-30" transform="translate(99.626401 0) scale(0.996264)"/>
       <use xlink:href="#URWPalladioL-Roma-30" transform="translate(149.439601 0) scale(0.996264)"/>
      </g>
     </g>
    </g>
    <g id="text_8">
     <!-- $x$ -->
     <g transform="translate(159.749057 202.390589) scale(0.1 -0.1)">
      <defs>
       <path id="URWPalladioL-Ital-78" d="M 134 566 
C 134 438 122 357 83 153 
C 70 77 64 58 58 13 
C 154 -39 256 -64 333 -64 
C 544 -64 794 121 992 419 
L 1478 1164 
L 1549 725 
C 1632 184 1779 -64 2010 -64 
C 2150 -64 2355 44 2560 229 
L 2874 509 
L 2816 630 
C 2586 439 2426 344 2323 344 
C 2227 344 2144 408 2080 534 
C 2022 655 1952 890 1920 1075 
L 1805 1716 
L 2029 2028 
C 2330 2441 2502 2587 2701 2587 
C 2803 2587 2880 2536 2912 2441 
L 3002 2466 
L 3098 3008 
C 3021 3053 2963 3072 2906 3072 
C 2650 3072 2394 2842 1997 2257 
L 1760 1907 
L 1722 2212 
C 1645 2842 1472 3072 1094 3072 
C 928 3072 787 3021 730 2938 
L 358 2409 
L 467 2346 
C 659 2562 787 2651 909 2651 
C 1120 2651 1261 2391 1370 1767 
L 1440 1373 
L 1184 977 
C 909 549 691 344 512 344 
C 416 344 346 371 333 403 
L 262 585 
L 134 566 
z
" transform="scale(0.015625)"/>
      </defs>
      <use xlink:href="#URWPalladioL-Ital-78" transform="scale(0.996264)"/>
     </g>
    </g>
   </g>
   <g id="matplotlib.axis_2">
    <g id="ytick_1">
     <g id="line2d_8">
      <defs>
       <path id="m4f23e081d9" d="M 0 0 
L -3.5 0 
" style="stroke: #000000; stroke-width: 0.8"/>
      </defs>
      <g>
       <use xlink:href="#m4f23e081d9" x="47.279434" y="169.519193" style="stroke: #000000; stroke-width: 0.8"/>
      </g>
     </g>
     <g id="text_9">
      <!-- $\mathdefault{0}$ -->
      <g transform="translate(35.298114 173.083311) scale(0.1 -0.1)">
       <use xlink:href="#URWPalladioL-Roma-30" transform="scale(0.996264)"/>
      </g>
     </g>
    </g>
    <g id="ytick_2">
     <g id="line2d_9">
      <g>
       <use xlink:href="#m4f23e081d9" x="47.279434" y="145.49164" style="stroke: #000000; stroke-width: 0.8"/>
      </g>
     </g>
     <g id="text_10">
      <!-- $\mathdefault{50}$ -->
      <g transform="translate(30.316794 149.055759) scale(0.1 -0.1)">
       <use xlink:href="#URWPalladioL-Roma-35" transform="scale(0.996264)"/>
       <use xlink:href="#URWPalladioL-Roma-30" transform="translate(49.8132 0) scale(0.996264)"/>
      </g>
     </g>
    </g>
    <g id="ytick_3">
     <g id="line2d_10">
      <g>
       <use xlink:href="#m4f23e081d9" x="47.279434" y="121.464087" style="stroke: #000000; stroke-width: 0.8"/>
      </g>
     </g>
     <g id="text_11">
      <!-- $\mathdefault{100}$ -->
      <g transform="translate(25.335474 125.028206) scale(0.1 -0.1)">
       <use xlink:href="#URWPalladioL-Roma-31" transform="scale(0.996264)"/>
       <use xlink:href="#URWPalladioL-Roma-30" transform="translate(49.8132 0) scale(0.996264)"/>
       <use xlink:href="#URWPalladioL-Roma-30" transform="translate(99.626401 0) scale(0.996264)"/>
      </g>
     </g>
    </g>
    <g id="ytick_4">
     <g id="line2d_11">
      <g>
       <use xlink:href="#m4f23e081d9" x="47.279434" y="97.436534" style="stroke: #000000; stroke-width: 0.8"/>
      </g>
     </g>
     <g id="text_12">
      <!-- $\mathdefault{150}$ -->
      <g transform="translate(25.335474 101.000653) scale(0.1 -0.1)">
       <use xlink:href="#URWPalladioL-Roma-31" transform="scale(0.996264)"/>
       <use xlink:href="#URWPalladioL-Roma-35" transform="translate(49.8132 0) scale(0.996264)"/>
       <use xlink:href="#URWPalladioL-Roma-30" transform="translate(99.626401 0) scale(0.996264)"/>
      </g>
     </g>
    </g>
    <g id="ytick_5">
     <g id="line2d_12">
      <g>
       <use xlink:href="#m4f23e081d9" x="47.279434" y="73.408981" style="stroke: #000000; stroke-width: 0.8"/>
      </g>
     </g>
     <g id="text_13">
      <!-- $\mathdefault{200}$ -->
      <g transform="translate(25.335474 76.9731) scale(0.1 -0.1)">
       <use xlink:href="#URWPalladioL-Roma-32" transform="scale(0.996264)"/>
       <use xlink:href="#URWPalladioL-Roma-30" transform="translate(49.8132 0) scale(0.996264)"/>
       <use xlink:href="#URWPalladioL-Roma-30" transform="translate(99.626401 0) scale(0.996264)"/>
      </g>
     </g>
    </g>
    <g id="ytick_6">
     <g id="line2d_13">
      <g>
       <use xlink:href="#m4f23e081d9" x="47.279434" y="49.381429" style="stroke: #000000; stroke-width: 0.8"/>
      </g>
     </g>
     <g id="text_14">
      <!-- $\mathdefault{250}$ -->
      <g transform="translate(25.335474 52.945547) scale(0.1 -0.1)">
       <use xlink:href="#URWPalladioL-Roma-32" transform="scale(0.996264)"/>
       <use xlink:href="#URWPalladioL-Roma-35" transform="translate(49.8132 0) scale(0.996264)"/>
       <use xlink:href="#URWPalladioL-Roma-30" transform="translate(99.626401 0) scale(0.996264)"/>
      </g>
     </g>
    </g>
    <g id="ytick_7">
     <g id="line2d_14">
      <g>
       <use xlink:href="#m4f23e081d9" x="47.279434" y="25.353876" style="stroke: #000000; stroke-width: 0.8"/>
      </g>
     </g>
     <g id="text_15">
      <!-- $\mathdefault{300}$ -->
      <g transform="translate(25.335474 28.917994) scale(0.1 -0.1)">
       <use xlink:href="#URWPalladioL-Roma-33" transform="scale(0.996264)"/>
       <use xlink:href="#URWPalladioL-Roma-30" transform="translate(49.8132 0) scale(0.996264)"/>
       <use xlink:href="#URWPalladioL-Roma-30" transform="translate(99.626401 0) scale(0.996264)"/>
      </g>
     </g>
    </g>
    <g id="text_16">
     <!-- $-\ln p(x \vert \phi_{1:t})$ -->
     <g transform="translate(18.526063 128.838339) rotate(-90) scale(0.1 -0.1)">
      <defs>
       <path id="CMSY10-0" d="M 4218 1472 
C 4326 1472 4442 1472 4442 1600 
C 4442 1728 4326 1728 4218 1728 
L 755 1728 
C 646 1728 531 1728 531 1600 
C 531 1472 646 1472 755 1472 
L 4218 1472 
z
" transform="scale(0.015625)"/>
       <path id="URWPalladioL-Roma-6c" d="M 147 4256 
L 506 4256 
C 621 4256 666 4185 666 3992 
L 666 651 
C 666 244 646 199 429 199 
L 134 199 
L 134 0 
C 774 0 774 0 934 0 
C 1094 0 1094 0 1734 0 
L 1734 199 
L 1440 199 
C 1222 199 1203 244 1203 650 
L 1203 4621 
L 1146 4673 
C 864 4564 653 4512 147 4435 
L 147 4256 
z
" transform="scale(0.015625)"/>
       <path id="URWPalladioL-Roma-6e" d="M 2624 -7 
C 3014 -7 3021 -7 3130 -7 
C 3219 -7 3219 -7 3661 -7 
L 3661 179 
L 3398 205 
C 3181 205 3162 244 3162 654 
L 3162 1892 
C 3162 2642 2810 3008 2093 3008 
C 1856 3008 1722 2963 1587 2847 
L 1101 2424 
L 1101 2982 
L 1043 3008 
C 717 2873 384 2783 45 2745 
L 45 2565 
L 282 2565 
C 538 2565 563 2520 563 2094 
L 563 643 
C 563 237 544 192 326 192 
L 38 192 
L 38 -7 
C 474 -7 646 -7 832 -7 
C 1018 -7 1190 -7 1626 -7 
L 1626 192 
L 1338 192 
C 1120 192 1101 237 1101 643 
L 1101 2011 
C 1101 2300 1523 2616 1914 2616 
C 2342 2616 2624 2297 2624 1806 
L 2624 -7 
z
" transform="scale(0.015625)"/>
       <path id="URWPalladioL-Ital-70" d="M 736 25 
L 794 6 
C 960 -45 1056 -64 1126 -64 
C 1485 -64 2221 400 2496 801 
C 2758 1189 2976 1888 2976 2365 
C 2976 2792 2829 3072 2598 3072 
C 2330 3072 1990 2906 1658 2608 
C 1395 2385 1267 2219 1037 1844 
L 1190 2601 
C 1210 2710 1222 2804 1222 2881 
C 1222 3002 1171 3072 1082 3072 
C 947 3072 704 2938 230 2600 
L 51 2473 
L 96 2346 
L 301 2480 
C 480 2594 550 2626 608 2626 
C 672 2626 717 2568 717 2480 
C 717 2429 704 2302 691 2238 
L 320 55 
C 256 -327 134 -906 6 -1479 
L -45 -1715 
L 0 -1753 
C 134 -1708 262 -1676 467 -1645 
L 736 25 
z
M 915 1056 
C 1056 1869 1741 2702 2272 2702 
C 2438 2702 2515 2562 2515 2270 
C 2515 1755 2259 998 1920 515 
C 1792 331 1587 235 1325 235 
C 1126 235 966 280 800 381 
L 915 1056 
z
" transform="scale(0.015625)"/>
       <path id="CMR10-28" d="M 2118 -1536 
C 2118 -1517 2118 -1504 2010 -1395 
C 1210 -584 1005 632 1005 1616 
C 1005 2735 1248 3855 2035 4658 
C 2118 4735 2118 4748 2118 4767 
C 2118 4812 2093 4832 2054 4832 
C 1990 4832 1414 4395 1037 3577 
C 710 2870 634 2156 634 1616 
C 634 1114 704 336 1056 -391 
C 1440 -1182 1990 -1600 2054 -1600 
C 2093 -1600 2118 -1581 2118 -1536 
z
" transform="scale(0.015625)"/>
       <path id="CMSY10-6a" d="M 1018 4570 
C 1018 4685 1018 4800 890 4800 
C 762 4800 762 4685 762 4570 
L 762 -1370 
C 762 -1485 762 -1600 890 -1600 
C 1018 -1600 1018 -1485 1018 -1370 
L 1018 4570 
z
" transform="scale(0.015625)"/>
       <path id="PazoMath-Italic-66" d="M 2509 4158 
C 2381 4080 2208 4003 2010 3926 
L 1882 3033 
C 1683 2982 1491 2911 1293 2814 
C 531 2442 109 1786 109 984 
C 109 296 512 -64 1261 -64 
C 1299 -64 1338 -64 1376 -57 
C 1306 -436 1197 -970 1082 -1490 
L 1030 -1728 
L 1075 -1767 
C 1210 -1722 1338 -1690 1542 -1657 
L 1805 1 
C 2112 71 2413 193 2662 360 
C 3232 740 3635 1471 3635 2133 
C 3635 2737 3187 3104 2458 3104 
C 2419 3104 2381 3104 2342 3097 
C 2419 3515 2483 3778 2579 4061 
L 2509 4158 
z
M 3149 2037 
C 3149 1414 2790 733 2342 393 
C 2208 296 2035 226 1837 193 
C 1850 277 1869 354 1875 386 
L 1990 1067 
C 2042 1363 2086 1613 2240 2512 
L 2298 2853 
C 2842 2808 3149 2525 3149 2037 
z
M 595 977 
C 595 1697 1043 2481 1536 2751 
C 1613 2790 1722 2822 1850 2841 
L 1414 187 
C 832 251 595 515 595 977 
z
" transform="scale(0.015625)"/>
       <path id="URWPalladioL-Roma-3a" d="M 787 744 
C 595 744 422 564 422 372 
C 422 179 595 0 781 0 
C 986 0 1165 173 1165 372 
C 1165 564 986 744 787 744 
z
M 787 2944 
C 595 2944 422 2765 422 2572 
C 422 2380 595 2200 781 2200 
C 986 2200 1165 2373 1165 2566 
C 1165 2765 986 2944 787 2944 
z
" transform="scale(0.015625)"/>
       <path id="URWPalladioL-Ital-74" d="M 800 2465 
L 442 671 
C 435 626 429 615 410 538 
C 371 361 358 265 358 190 
C 358 31 429 -64 550 -64 
C 774 -64 998 62 1498 463 
L 1594 538 
L 1696 621 
L 1632 735 
L 1344 538 
C 1158 412 1030 348 960 348 
C 902 348 870 399 870 474 
C 870 639 960 1153 1146 2072 
L 1229 2465 
L 1914 2465 
L 1984 2784 
C 1741 2752 1523 2752 1280 2752 
C 1382 3348 1453 3659 1568 4001 
L 1498 4097 
C 1370 4021 1197 3944 998 3868 
L 838 2784 
C 557 2650 390 2580 275 2548 
L 262 2465 
L 800 2465 
z
" transform="scale(0.015625)"/>
       <path id="CMR10-29" d="M 1850 1616 
C 1850 2118 1779 2896 1427 3622 
C 1043 4414 493 4832 429 4832 
C 390 4832 365 4806 365 4767 
C 365 4748 365 4735 486 4620 
C 1114 3983 1478 2960 1478 1616 
C 1478 516 1242 -617 448 -1427 
C 365 -1504 365 -1517 365 -1536 
C 365 -1575 390 -1600 429 -1600 
C 493 -1600 1069 -1163 1446 -346 
C 1773 362 1850 1075 1850 1616 
z
" transform="scale(0.015625)"/>
      </defs>
      <use xlink:href="#CMSY10-0" transform="scale(1.038107)"/>
      <use xlink:href="#URWPalladioL-Roma-6c" transform="translate(98.546056 0) scale(0.996264)"/>
      <use xlink:href="#URWPalladioL-Roma-6e" transform="translate(127.536417 0) scale(0.996264)"/>
      <use xlink:href="#URWPalladioL-Ital-70" transform="translate(208.84762 0) scale(0.996264)"/>
      <use xlink:href="#CMR10-28" transform="translate(261.150492 0) scale(1.038107)"/>
      <use xlink:href="#URWPalladioL-Ital-78" transform="translate(305.583873 0) scale(0.996264)"/>
      <use xlink:href="#CMSY10-6a" transform="translate(358.88301 0) scale(1.038107)"/>
      <use xlink:href="#PazoMath-Italic-66" transform="translate(390.165709 0) scale(0.996264)"/>
      <use xlink:href="#URWPalladioL-Roma-31" transform="translate(447.59938 -18.577338) scale(0.757155)"/>
      <use xlink:href="#URWPalladioL-Roma-3a" transform="translate(486.403556 -18.577338) scale(0.757155)"/>
      <use xlink:href="#URWPalladioL-Ital-74" transform="translate(507.225286 -18.577338) scale(0.757155)"/>
      <use xlink:href="#CMR10-29" transform="translate(535.127716 0) scale(1.038107)"/>
     </g>
    </g>
   </g>
   <g id="line2d_15">
    <path d="M 57.730369 95.575151 
L 57.869761 96.292666 
L 57.939457 95.165345 
L 58.009153 95.828458 
L 58.148545 97.199429 
L 58.218242 96.13114 
L 58.287938 96.73761 
L 58.497026 95.736564 
L 58.566722 95.932299 
L 58.706114 93.983437 
L 58.775811 93.937289 
L 58.845507 93.646257 
L 58.984899 95.084082 
L 59.124291 93.963112 
L 59.263684 94.530589 
L 59.542468 92.230205 
L 59.612164 92.880759 
L 59.68186 92.341391 
L 59.751556 92.730663 
L 59.890949 94.255642 
L 59.960645 93.388936 
L 60.100037 94.444742 
L 60.309125 91.84599 
L 60.448518 93.103891 
L 60.657606 91.178444 
L 60.866695 93.525601 
L 61.006087 93.216859 
L 61.075783 92.446243 
L 61.145479 93.48436 
L 61.215175 93.069824 
L 61.424264 94.515122 
L 61.49396 93.365989 
L 61.563656 94.494893 
L 61.633352 94.17977 
L 62.121225 89.280513 
L 62.190921 91.209806 
L 62.260617 90.519774 
L 62.400009 88.819455 
L 62.469706 90.014463 
L 62.539402 89.406761 
L 62.609098 87.951671 
L 62.678794 88.397573 
L 62.818186 88.944954 
L 62.887882 88.065226 
L 62.957578 89.731608 
L 63.027275 89.660084 
L 63.096971 89.530588 
L 63.306059 91.197101 
L 63.375755 90.853876 
L 63.445451 91.049536 
L 63.515148 91.304412 
L 63.584844 90.351882 
L 63.65454 90.540959 
L 63.724236 90.78776 
L 63.793932 89.861207 
L 64.072717 93.001907 
L 64.142413 92.069585 
L 64.212109 92.807243 
L 64.281805 92.005031 
L 64.421197 94.492713 
L 64.560589 94.344753 
L 64.699982 93.202337 
L 64.978766 95.212022 
L 65.048462 94.798259 
L 65.118159 96.388774 
L 65.187855 95.519378 
L 65.257551 94.687225 
L 65.327247 95.397723 
L 65.396943 94.609672 
L 65.466639 95.0782 
L 65.536335 95.86835 
L 65.675728 95.103844 
L 65.745424 94.959736 
L 65.81512 92.930481 
L 65.884816 92.959816 
L 66.024208 93.985759 
L 66.233297 91.072103 
L 66.442385 92.754982 
L 66.581777 91.885626 
L 66.72117 89.976902 
L 66.790866 90.452153 
L 66.860562 89.947401 
L 66.999954 86.534097 
L 67.06965 87.259403 
L 67.139346 87.696685 
L 67.209042 87.646245 
L 67.278739 87.638349 
L 67.348435 86.585337 
L 67.487827 88.025187 
L 67.557523 87.458142 
L 67.627219 89.071111 
L 67.696915 88.436748 
L 67.836308 87.304892 
L 68.115092 89.505614 
L 68.184788 89.144497 
L 68.254484 89.71354 
L 68.324181 89.570523 
L 68.463573 90.335966 
L 68.602965 88.085093 
L 68.672661 88.229179 
L 68.812053 86.75316 
L 69.021142 88.760845 
L 69.090838 88.160634 
L 69.299926 89.262904 
L 69.509015 87.808925 
L 69.578711 87.839454 
L 69.648407 89.359986 
L 69.718103 89.24621 
L 69.787799 88.419616 
L 69.996888 90.761555 
L 70.066584 90.205785 
L 70.13628 90.230077 
L 70.205976 90.476249 
L 70.275672 90.02443 
L 70.345368 90.109903 
L 70.415064 90.290291 
L 70.484761 89.912212 
L 70.554457 91.15743 
L 70.693849 89.619508 
L 70.763545 89.731348 
L 70.833241 90.451948 
L 71.04233 88.514104 
L 71.181722 87.222764 
L 71.251418 87.443826 
L 71.321114 87.915901 
L 71.878683 84.404727 
L 71.948379 84.737372 
L 72.018075 86.269289 
L 72.087772 85.764491 
L 72.227164 84.74989 
L 72.29686 85.744445 
L 72.366556 84.891777 
L 72.436252 84.995498 
L 72.505948 85.27167 
L 72.784733 81.341359 
L 72.924125 83.579595 
L 72.993821 83.636279 
L 73.063517 84.312473 
L 73.133214 83.700528 
L 73.20291 83.86452 
L 73.481694 82.993957 
L 73.690783 87.808265 
L 73.969567 85.468989 
L 74.039263 86.649529 
L 74.108959 86.006414 
L 74.178656 85.911264 
L 74.387744 87.64103 
L 74.527136 86.471388 
L 74.805921 89.035794 
L 74.945313 90.115698 
L 75.015009 89.492871 
L 75.154401 90.067542 
L 75.224097 90.159095 
L 75.293794 89.271052 
L 75.36349 89.559018 
L 75.502882 90.49474 
L 75.642274 89.951942 
L 75.71197 89.176966 
L 75.781667 89.857126 
L 75.851363 89.778945 
L 75.921059 89.633367 
L 76.060451 90.637321 
L 76.130147 90.594766 
L 76.199843 91.339532 
L 76.269539 90.045986 
L 76.339236 90.584306 
L 76.478628 92.357304 
L 76.548324 90.442569 
L 76.61802 90.525177 
L 76.757412 92.814978 
L 76.827109 91.418979 
L 76.896805 92.237533 
L 77.105893 94.532216 
L 77.175589 92.728889 
L 77.245285 93.556457 
L 77.314981 92.793238 
L 77.454374 93.778635 
L 77.802854 89.607454 
L 77.87255 90.926344 
L 77.942247 90.253142 
L 78.011943 89.323062 
L 78.221031 91.839273 
L 78.290727 91.762053 
L 78.569512 89.36607 
L 78.639208 91.410005 
L 78.848296 89.418332 
L 78.917992 90.048609 
L 78.987689 89.742352 
L 79.057385 89.789948 
L 79.127081 89.061193 
L 79.196777 89.971937 
L 79.266473 88.524499 
L 79.475561 91.13093 
L 79.545258 90.871446 
L 79.614954 90.930784 
L 79.68465 90.693415 
L 79.824042 89.049762 
L 79.893738 89.753198 
L 79.963434 89.05029 
L 80.242219 90.85941 
L 80.311915 90.501521 
L 80.451307 91.195399 
L 80.660396 89.609359 
L 80.730092 90.382832 
L 80.799788 89.741568 
L 80.869484 89.976912 
L 80.93918 89.748673 
L 81.078572 91.265992 
L 81.148269 91.188653 
L 81.217965 90.933602 
L 81.287661 92.638914 
L 81.357357 91.800569 
L 81.427053 91.007087 
L 81.496749 91.281127 
L 81.566445 91.541919 
L 81.705838 92.764946 
L 81.84523 91.091078 
L 81.914926 91.524089 
L 82.054318 92.322565 
L 82.124014 91.637067 
L 82.193711 91.653354 
L 82.263407 92.549706 
L 82.333103 92.19878 
L 82.402799 92.300689 
L 82.472495 92.971621 
L 82.75128 90.838572 
L 82.890672 89.837291 
L 82.960368 90.603208 
L 83.030064 89.155383 
L 83.169456 90.248453 
L 83.308849 89.371467 
L 83.378545 89.408109 
L 83.448241 89.700654 
L 83.517937 91.342833 
L 83.587633 90.489366 
L 83.657329 90.41791 
L 83.866418 91.796908 
L 83.936114 90.435992 
L 84.00581 91.578166 
L 84.145202 90.460664 
L 84.284595 93.016533 
L 84.354291 92.669803 
L 84.493683 91.24901 
L 84.563379 90.267111 
L 84.633075 90.782073 
L 84.772467 91.019007 
L 84.981556 89.97024 
L 85.120948 91.310984 
L 85.330036 90.02507 
L 85.399733 90.784144 
L 85.469429 90.654168 
L 85.539125 90.506569 
L 85.748213 91.915896 
L 85.817909 92.05769 
L 86.305782 95.072345 
L 86.514871 92.916351 
L 86.723959 93.70756 
L 86.863351 93.086798 
L 86.933047 92.042457 
L 87.002744 93.427617 
L 87.07244 93.343171 
L 87.211832 91.550273 
L 87.490617 94.353045 
L 87.699705 93.917352 
L 87.908793 95.504214 
L 88.048186 94.363266 
L 88.117882 93.870644 
L 88.187578 94.008267 
L 88.32697 93.544754 
L 88.396666 92.210475 
L 88.466362 92.706123 
L 88.605755 92.726136 
L 88.814843 90.568401 
L 88.884539 91.079028 
L 89.093628 88.174118 
L 89.163324 87.822551 
L 89.511804 91.261225 
L 89.5815 91.007101 
L 89.720893 92.37914 
L 89.790589 91.878864 
L 89.929981 92.502749 
L 89.999677 93.903553 
L 90.069373 93.184893 
L 90.278462 91.569095 
L 90.48755 88.962666 
L 90.766335 91.327193 
L 90.836031 91.228256 
L 91.045119 90.097926 
L 91.254208 91.108379 
L 91.463296 89.658196 
L 91.532992 89.593335 
L 91.602688 90.015979 
L 91.672384 89.059012 
L 91.881473 90.689828 
L 91.951169 90.115814 
L 92.020865 90.168255 
L 92.160257 89.544365 
L 92.229953 90.026495 
L 92.29965 88.778939 
L 92.508738 90.824152 
L 92.578434 90.573715 
L 92.787522 93.791818 
L 92.926915 93.656017 
L 93.205699 97.129158 
L 93.345092 96.049284 
L 93.484484 97.67291 
L 93.693572 97.025593 
L 93.763268 96.910589 
L 94.042053 94.40005 
L 94.111749 95.248728 
L 94.320837 93.222567 
L 94.46023 95.142669 
L 94.599622 93.303571 
L 94.669318 94.917513 
L 94.739014 94.563354 
L 94.878406 94.077492 
L 95.017799 92.152741 
L 95.087495 92.857283 
L 95.296583 92.0622 
L 95.366279 92.09034 
L 95.435975 92.993731 
L 95.505672 92.658898 
L 95.645064 93.061562 
L 95.71476 91.829281 
L 95.784456 92.453478 
L 95.923848 92.838964 
L 95.993544 92.476491 
L 96.063241 92.6458 
L 96.272329 94.316415 
L 96.481417 93.316766 
L 96.62081 95.686268 
L 96.690506 94.829793 
L 96.760202 95.118541 
L 96.899594 93.16016 
L 96.96929 94.010188 
L 97.038986 96.164455 
L 97.108683 95.944487 
L 97.387467 92.887795 
L 97.457163 93.603754 
L 97.87534 89.965121 
L 97.945036 90.76557 
L 98.014732 90.285403 
L 98.154125 88.366165 
L 98.223821 89.315724 
L 98.293517 88.821155 
L 98.363213 89.312482 
L 98.502605 88.624006 
L 98.572301 88.974187 
L 98.641997 86.933577 
L 98.711694 87.53166 
L 98.851086 91.028863 
L 99.060174 89.499882 
L 99.12987 89.424485 
L 99.408655 87.322163 
L 99.478351 87.536976 
L 99.548047 88.532293 
L 99.617743 88.295125 
L 99.757136 88.919194 
L 99.826832 88.702438 
L 99.966224 91.036619 
L 100.03592 90.452432 
L 100.105616 88.79363 
L 100.175312 90.433271 
L 100.245008 90.152757 
L 100.384401 88.551894 
L 100.454097 87.253987 
L 100.523793 87.96949 
L 100.593489 87.90863 
L 100.732881 89.267611 
L 100.872274 89.064841 
L 101.011666 88.342002 
L 101.081362 89.107369 
L 101.360147 86.506279 
L 101.429843 87.585155 
L 101.499539 87.496827 
L 101.569235 85.850903 
L 101.638931 86.112418 
L 101.708627 86.242098 
L 101.778323 84.9176 
L 101.848019 86.644407 
L 101.917716 86.008812 
L 102.057108 86.606413 
L 102.1965 85.457041 
L 102.266196 85.52682 
L 102.405589 86.201937 
L 102.614677 85.963323 
L 102.823765 83.930918 
L 102.893461 84.400936 
L 102.963158 82.564433 
L 103.032854 84.734346 
L 103.10255 83.959891 
L 103.590423 86.058263 
L 103.729815 83.247931 
L 103.938903 85.404491 
L 104.0086 85.520624 
L 104.078296 85.166367 
L 104.217688 86.612486 
L 104.35708 84.498141 
L 104.635865 86.631202 
L 104.914649 83.654849 
L 104.984345 84.270893 
L 105.054042 83.311275 
L 105.123738 84.573037 
L 105.193434 83.976845 
L 105.26313 83.657882 
L 105.402522 84.532614 
L 105.472218 83.89205 
L 105.541914 84.361036 
L 105.611611 83.882655 
L 105.681307 84.579021 
L 105.751003 84.418616 
L 105.820699 84.229305 
L 105.960091 83.321928 
L 106.029787 84.567154 
L 106.099483 83.975221 
L 106.238876 85.435606 
L 106.308572 83.986388 
L 106.378268 83.991618 
L 106.447964 85.119864 
L 106.587356 84.132485 
L 106.796445 86.63625 
L 106.866141 86.349524 
L 106.935837 87.628736 
L 107.075229 85.25341 
L 107.214622 85.924724 
L 107.354014 83.987048 
L 107.563102 86.687432 
L 107.632798 85.531251 
L 107.702494 85.632227 
L 108.050975 83.815168 
L 108.120671 86.688846 
L 108.190367 85.076631 
L 108.469152 87.454523 
L 108.538848 87.25479 
L 108.608544 87.706173 
L 108.887329 91.551571 
L 109.026721 90.608472 
L 109.096417 90.921777 
L 109.166113 90.52429 
L 109.235809 90.697416 
L 109.305505 90.669844 
L 109.444898 89.127971 
L 109.58429 88.98231 
L 109.653986 88.942347 
L 109.793378 88.004287 
L 109.863075 87.848653 
L 110.002467 91.034666 
L 110.072163 90.138843 
L 110.141859 89.587824 
L 110.211555 90.06679 
L 110.281251 89.762234 
L 110.420644 91.214337 
L 110.49034 89.741904 
L 110.560036 89.766097 
L 110.629732 91.008172 
L 110.699428 90.917223 
L 110.978213 92.741411 
L 111.187301 91.767748 
L 111.466086 89.898786 
L 111.535782 90.370068 
L 111.605478 89.6336 
L 111.675174 89.713483 
L 111.74487 89.8 
L 111.814566 89.493018 
L 112.093351 91.579043 
L 112.232743 90.36098 
L 112.302439 90.704315 
L 112.372135 90.798396 
L 112.441831 90.700034 
L 112.511528 91.299973 
L 112.720616 90.19308 
L 112.790312 92.228671 
L 112.929704 90.604672 
L 112.9994 90.729582 
L 113.069097 89.250614 
L 113.138793 89.651541 
L 113.208489 89.265377 
L 113.278185 89.926313 
L 113.347881 88.846716 
L 113.417577 89.594216 
L 113.487273 88.316 
L 113.556969 88.822804 
L 113.696362 89.703069 
L 113.766058 90.374047 
L 113.835754 89.299383 
L 113.90545 89.645799 
L 113.975146 89.952302 
L 114.114539 91.318304 
L 114.184235 90.642774 
L 114.393323 91.566905 
L 114.532715 91.064724 
L 114.741804 93.823274 
L 114.881196 93.468227 
L 114.950892 94.81151 
L 115.020588 93.563707 
L 115.090284 93.704023 
L 115.15998 93.327495 
L 115.229677 94.123372 
L 115.369069 92.445868 
L 115.578157 93.79278 
L 115.647853 93.45021 
L 115.71755 94.412614 
L 115.787246 93.242884 
L 115.856942 93.319736 
L 115.926638 93.147118 
L 116.06603 95.825941 
L 116.135726 93.979201 
L 116.344815 97.344657 
L 116.553903 95.845116 
L 116.623599 95.594313 
L 116.693295 95.820492 
L 116.762992 95.295174 
L 117.111472 97.241367 
L 117.250864 100.925096 
L 117.320561 100.464311 
L 117.459953 100.814054 
L 117.529649 102.048583 
L 117.599345 100.471119 
L 117.808433 102.069788 
L 117.87813 102.619654 
L 117.947826 100.96133 
L 118.017522 101.895844 
L 118.087218 101.162048 
L 118.156914 101.646196 
L 118.22661 100.941435 
L 118.296306 98.812386 
L 118.366003 99.282778 
L 118.575091 97.325325 
L 118.644787 94.807916 
L 118.714483 95.3362 
L 118.784179 95.358278 
L 118.853875 96.030723 
L 119.13266 93.613673 
L 119.202356 94.55727 
L 119.341748 92.652386 
L 119.411444 93.701707 
L 119.550837 90.979286 
L 119.620533 91.848162 
L 119.690229 91.424909 
L 119.759925 91.014648 
L 119.829621 91.595541 
L 119.899317 90.960854 
L 119.969014 91.864986 
L 120.108406 89.877724 
L 120.247798 91.761079 
L 120.38719 90.446651 
L 120.456886 90.765105 
L 120.526583 89.832093 
L 120.596279 90.311241 
L 120.665975 89.790202 
L 120.805367 90.699883 
L 120.944759 89.42783 
L 121.084152 90.335371 
L 121.153848 90.494636 
L 121.29324 88.928458 
L 121.432632 89.164331 
L 121.502328 89.120308 
L 121.572025 88.121827 
L 121.641721 88.947669 
L 121.711417 88.869698 
L 121.781113 88.450432 
L 121.990201 90.561719 
L 122.059897 90.819121 
L 122.129594 91.604533 
L 122.19929 89.986041 
L 122.268986 90.906166 
L 122.338682 90.302405 
L 122.408378 91.710606 
L 122.478074 90.913292 
L 122.54777 90.10985 
L 122.617466 91.310311 
L 122.687163 90.610556 
L 122.756859 88.723691 
L 122.826555 90.160215 
L 122.896251 88.461993 
L 122.965947 88.9781 
L 123.035643 88.430604 
L 123.105339 86.775403 
L 123.175036 87.921818 
L 123.244732 87.503304 
L 123.384124 85.79448 
L 123.45382 86.296269 
L 123.523516 86.364832 
L 123.593212 85.698432 
L 123.662908 85.795573 
L 123.732605 87.337931 
L 123.802301 86.438578 
L 123.871997 86.558066 
L 123.941693 87.279447 
L 124.011389 85.609679 
L 124.081085 86.471593 
L 124.150781 86.734013 
L 124.220478 86.392363 
L 124.290174 86.926386 
L 124.429566 86.495615 
L 124.499262 87.739318 
L 124.568958 87.531091 
L 124.847743 85.794908 
L 124.917439 86.418308 
L 125.056831 85.558388 
L 125.265919 86.17461 
L 125.405312 87.801502 
L 125.475008 87.264257 
L 125.544704 85.645342 
L 125.753792 88.728227 
L 125.823489 88.597285 
L 125.893185 88.841142 
L 126.032577 88.022536 
L 126.241665 90.093057 
L 126.381058 89.687962 
L 126.729538 87.365309 
L 126.799234 87.639805 
L 126.86893 87.311672 
L 126.938627 85.38312 
L 127.008323 85.768705 
L 127.078019 85.542379 
L 127.356803 86.141293 
L 127.4265 85.769025 
L 127.496196 86.565739 
L 127.565892 85.070875 
L 127.635588 85.117256 
L 127.77498 84.461492 
L 127.914372 85.444446 
L 127.984069 85.58125 
L 128.053765 88.04817 
L 128.123461 87.773338 
L 128.193157 86.865818 
L 128.262853 87.101886 
L 128.332549 87.148812 
L 128.402245 85.446333 
L 128.471941 85.96072 
L 128.611334 88.625956 
L 128.68103 88.454517 
L 128.820422 88.895421 
L 128.890118 88.660028 
L 128.959814 88.828988 
L 129.029511 89.731482 
L 129.168903 92.600208 
L 129.238599 92.554405 
L 129.377991 94.591903 
L 129.656776 93.308168 
L 129.796168 92.159462 
L 129.93556 93.080008 
L 130.005256 92.424864 
L 130.074953 92.824121 
L 130.144649 92.593942 
L 130.214345 92.344736 
L 130.284041 92.876303 
L 130.353737 91.387502 
L 130.423433 92.614384 
L 130.493129 92.1017 
L 130.562825 91.203094 
L 130.632522 92.189186 
L 130.702218 92.143587 
L 130.771914 92.522857 
L 130.911306 93.545734 
L 130.981002 91.881389 
L 131.050698 94.801687 
L 131.120394 94.47143 
L 131.190091 93.6881 
L 131.329483 94.968262 
L 131.399179 94.87862 
L 131.468875 94.935599 
L 131.608267 96.868974 
L 131.817356 94.954153 
L 131.887052 95.088803 
L 131.956748 95.00915 
L 132.026444 95.670479 
L 132.09614 94.441916 
L 132.374925 98.410177 
L 132.444621 97.543022 
L 132.514317 97.770515 
L 132.584013 98.296641 
L 132.653709 100.406695 
L 132.723405 99.246866 
L 132.793102 99.544365 
L 133.071886 95.20076 
L 133.141582 95.514079 
L 133.211278 95.483482 
L 133.280975 94.360624 
L 133.350671 94.71853 
L 133.559759 93.674066 
L 133.629455 93.938886 
L 133.699151 94.966145 
L 133.768847 93.379174 
L 133.838544 94.621476 
L 133.90824 94.57675 
L 133.977936 93.69357 
L 134.047632 94.540883 
L 134.117328 93.836473 
L 134.187024 94.129772 
L 134.25672 94.123153 
L 134.326416 93.948837 
L 134.396113 94.096223 
L 134.535505 96.975482 
L 134.605201 96.762164 
L 134.814289 95.238946 
L 134.883986 95.449969 
L 134.953682 94.186468 
L 135.023378 95.146204 
L 135.093074 95.068746 
L 135.16277 94.62359 
L 135.232466 95.838036 
L 135.441555 93.207169 
L 135.511251 93.369108 
L 135.580947 94.041477 
L 135.720339 93.026175 
L 135.929427 93.583004 
L 135.999124 93.125399 
L 136.06882 94.593331 
L 136.138516 94.17153 
L 136.347604 96.272121 
L 136.4173 96.131986 
L 136.486997 95.522482 
L 136.556693 95.798754 
L 136.626389 95.650552 
L 136.835477 94.155436 
L 137.044566 93.319553 
L 137.114262 93.376843 
L 137.183958 94.609887 
L 137.253654 93.212578 
L 137.32335 93.801108 
L 137.393046 92.657139 
L 137.462742 93.728639 
L 137.532439 93.207936 
L 137.741527 94.549968 
L 137.880919 93.579838 
L 137.950615 93.482389 
L 138.020311 92.551256 
L 138.090008 92.676647 
L 138.2294 92.331711 
L 138.299096 92.775758 
L 138.368792 91.925534 
L 138.438488 92.247668 
L 138.57788 92.446188 
L 138.926361 93.772746 
L 139.065753 92.837719 
L 139.13545 94.825049 
L 139.344538 92.858383 
L 139.414234 92.906148 
L 139.48393 91.774577 
L 139.553626 91.896021 
L 139.623322 91.821257 
L 139.762715 89.353361 
L 139.971803 91.76839 
L 140.180891 94.207915 
L 140.250588 93.803819 
L 140.459676 91.567496 
L 140.529372 91.736944 
L 140.599068 91.046596 
L 140.668764 91.379263 
L 140.947549 90.066345 
L 141.156637 92.919071 
L 141.226333 92.547075 
L 141.29603 92.828323 
L 141.365726 92.259049 
L 141.435422 93.613306 
L 141.505118 92.182144 
L 141.574814 92.607016 
L 141.714206 93.709958 
L 141.783902 96.110129 
L 141.853599 95.377008 
L 141.923295 96.22219 
L 141.992991 95.963115 
L 142.202079 94.376086 
L 142.271775 94.986218 
L 142.341472 94.844372 
L 142.55056 93.690638 
L 142.899041 94.969668 
L 142.968737 94.967663 
L 143.038433 94.416432 
L 143.247521 96.185153 
L 143.317217 95.673981 
L 143.386914 95.864992 
L 143.526306 97.331073 
L 143.735394 100.06613 
L 144.014179 98.323235 
L 144.083875 98.871798 
L 144.153571 97.597626 
L 144.223267 97.859649 
L 144.362659 97.498131 
L 144.432355 97.175447 
L 144.641444 99.561976 
L 144.71114 98.957387 
L 144.989925 100.063287 
L 145.199013 98.12782 
L 145.268709 99.653135 
L 145.338405 99.194592 
L 145.408101 98.066993 
L 145.477797 98.205921 
L 145.547494 98.335544 
L 145.61719 99.455147 
L 145.756582 97.360521 
L 145.895974 96.390528 
L 145.96567 96.866128 
L 146.105063 95.259516 
L 146.244455 94.535626 
L 146.383847 96.877177 
L 146.453543 95.959785 
L 146.662632 94.26738 
L 146.732328 95.336128 
L 146.802024 94.650529 
L 146.87172 92.379357 
L 146.941416 94.272914 
L 147.080808 91.261471 
L 147.150505 91.971998 
L 147.359593 93.758547 
L 147.498985 91.923939 
L 147.638377 92.488918 
L 147.708074 92.360847 
L 147.847466 93.204742 
L 147.917162 91.608912 
L 147.986858 91.984087 
L 148.12625 90.753942 
L 148.195947 91.272518 
L 148.335339 90.084867 
L 148.544427 90.815728 
L 148.614123 90.373456 
L 148.753516 92.027836 
L 149.0323 89.574846 
L 149.101996 90.922939 
L 149.171692 90.908114 
L 149.241388 90.240594 
L 149.380781 91.681934 
L 149.520173 90.874083 
L 149.589869 91.046053 
L 149.659565 90.256503 
L 149.729261 90.933905 
L 149.798958 90.277961 
L 149.868654 90.291936 
L 149.93835 90.541837 
L 150.008046 90.415827 
L 150.147438 88.345592 
L 150.217134 86.854626 
L 150.28683 88.235598 
L 150.356527 88.185847 
L 150.426223 87.279716 
L 150.635311 89.450507 
L 150.705007 89.333872 
L 150.8444 88.819814 
L 150.914096 87.617756 
L 150.983792 89.363343 
L 151.053488 89.005757 
L 151.123184 89.478559 
L 151.19288 88.888347 
L 151.401969 91.612258 
L 151.471665 91.375254 
L 151.680753 92.273366 
L 151.750449 91.157984 
L 151.959538 95.642143 
L 152.09893 94.876837 
L 152.168626 95.0989 
L 152.238322 93.45651 
L 152.308018 95.04462 
L 152.377714 94.101957 
L 152.447411 94.135191 
L 152.517107 95.684959 
L 152.586803 94.679309 
L 152.726195 96.185645 
L 152.795891 95.208324 
L 153.283764 99.768433 
L 153.35346 98.897188 
L 153.423156 99.260917 
L 153.562549 100.381092 
L 153.632245 99.077953 
L 153.701941 100.076668 
L 153.771637 99.890697 
L 153.841333 99.34292 
L 153.911029 100.149213 
L 153.980725 99.112035 
L 154.25951 101.904137 
L 154.329206 101.043866 
L 154.398902 101.485593 
L 154.538294 103.325694 
L 154.607991 102.888263 
L 154.747383 104.23958 
L 154.817079 103.02876 
L 154.886775 103.989433 
L 154.956471 103.431963 
L 155.51404 105.883698 
L 155.583736 105.782246 
L 155.723129 106.512337 
L 155.792825 105.99433 
L 156.001913 108.556875 
L 156.071609 108.466995 
L 156.280698 109.905125 
L 156.489786 112.02363 
L 156.629178 112.743549 
L 156.838267 111.0873 
L 156.907963 110.911269 
L 157.047355 112.849771 
L 157.256444 115.430528 
L 157.32614 115.691581 
L 157.395836 115.27526 
L 157.465532 115.851597 
L 157.535228 115.574085 
L 157.604924 115.755844 
L 157.744316 113.581169 
L 157.814013 113.775102 
L 158.232189 118.155352 
L 158.301886 117.844863 
L 158.371582 118.104151 
L 158.441278 119.101051 
L 158.510974 118.543663 
L 158.650366 119.705209 
L 158.720062 118.991038 
L 158.859455 120.12142 
L 158.929151 120.34761 
L 158.998847 121.015045 
L 159.068543 122.834623 
L 159.138239 122.432072 
L 159.207935 122.630648 
L 159.277631 122.500014 
L 159.347327 124.866022 
L 159.417024 123.752424 
L 159.48672 123.836767 
L 159.556416 123.260849 
L 159.695808 124.870775 
L 159.765504 124.811518 
L 159.8352 124.749808 
L 159.904897 125.07131 
L 160.044289 127.534136 
L 160.113985 127.442666 
L 160.253377 129.014624 
L 160.323073 128.916665 
L 160.392769 129.831371 
L 160.462466 129.020955 
L 160.532162 130.479854 
L 160.601858 130.040296 
L 160.671554 129.873141 
L 160.810946 128.857597 
L 160.950338 130.338916 
L 161.020035 130.296499 
L 161.089731 129.875869 
L 161.229123 133.075243 
L 161.298819 132.645034 
L 161.368515 132.041569 
L 161.507908 133.217762 
L 161.577604 133.273129 
L 161.716996 137.232785 
L 161.856388 136.686612 
L 161.926084 137.329165 
L 161.99578 136.662286 
L 162.065477 137.718471 
L 162.135173 137.664564 
L 162.413957 138.877071 
L 162.553349 138.513843 
L 162.623046 137.347951 
L 162.692742 137.704863 
L 162.762438 138.003323 
L 162.971526 139.840897 
L 163.041222 140.299527 
L 163.110919 139.695066 
L 163.180615 139.722251 
L 163.250311 140.169091 
L 163.320007 139.591372 
L 163.529095 140.983398 
L 163.598791 141.176835 
L 163.738184 140.586497 
L 163.80788 140.726212 
L 164.016968 142.704835 
L 164.086664 143.52339 
L 164.156361 143.424942 
L 164.504841 145.616503 
L 164.71393 147.607372 
L 164.853322 148.483431 
L 164.992714 151.251343 
L 165.06241 150.805912 
L 165.132106 150.856825 
L 165.201802 150.245052 
L 165.271499 150.683441 
L 165.341195 150.558509 
L 165.410891 149.570756 
L 165.759372 152.993891 
L 165.829068 152.535402 
L 165.898764 152.806802 
L 165.96846 154.2809 
L 166.038156 153.954244 
L 166.107852 153.575724 
L 166.177548 154.105308 
L 166.247244 152.983393 
L 166.386637 154.814797 
L 166.456333 154.790496 
L 166.526029 154.992057 
L 166.665421 156.432131 
L 166.735117 156.404411 
L 166.804813 156.218726 
L 167.22299 158.232947 
L 167.432079 158.877153 
L 167.501775 157.92403 
L 167.780559 161.148479 
L 167.919952 163.499418 
L 167.989648 163.463944 
L 168.198736 162.320685 
L 168.268432 163.198219 
L 168.338128 165.787878 
L 168.407824 165.556268 
L 168.547217 164.860433 
L 168.686609 165.928178 
L 168.826001 167.286442 
L 168.965394 165.547644 
L 169.104786 167.623204 
L 169.174482 166.364845 
L 169.244178 166.900591 
L 169.313874 167.70033 
L 169.38357 166.97984 
L 169.453266 167.381664 
L 169.662355 169.128686 
L 169.941139 163.405159 
L 170.010836 163.575015 
L 170.080532 164.285516 
L 170.150228 163.747704 
L 170.359316 160.740544 
L 170.498708 159.812748 
L 170.568405 161.28787 
L 170.638101 160.578401 
L 170.777493 162.150756 
L 170.847189 161.613074 
L 170.986581 160.337143 
L 171.056277 157.592736 
L 171.125974 158.399096 
L 171.404758 151.301654 
L 171.474454 151.974879 
L 171.54415 152.028269 
L 171.613847 151.709014 
L 171.683543 151.868759 
L 171.753239 152.142698 
L 171.892631 149.377359 
L 171.962327 149.732495 
L 172.032023 150.464994 
L 172.101719 150.292126 
L 172.171416 149.700271 
L 172.241112 150.656778 
L 172.310808 149.109761 
L 172.380504 150.558471 
L 172.589592 147.523616 
L 172.728985 148.709002 
L 172.938073 145.708072 
L 173.077465 146.584397 
L 173.425946 144.6543 
L 173.565338 142.304823 
L 173.635034 142.475328 
L 173.774427 141.799394 
L 174.541084 136.036186 
L 174.750172 128.443213 
L 174.819869 129.459122 
L 175.168349 127.396656 
L 175.377438 126.236232 
L 175.447134 124.445261 
L 175.51683 126.112213 
L 175.586526 125.558401 
L 175.656222 125.676649 
L 175.725918 125.424767 
L 175.935007 120.922626 
L 176.004703 119.684732 
L 176.074399 119.829403 
L 176.144095 119.186352 
L 176.213791 119.616319 
L 176.42288 116.461333 
L 176.492576 117.538872 
L 176.562272 117.186446 
L 176.841056 112.792273 
L 176.910752 113.093908 
L 176.980449 112.783239 
L 177.328929 106.209996 
L 177.538018 104.430314 
L 177.607714 104.778073 
L 177.67741 104.192453 
L 177.886498 98.90399 
L 177.956194 99.525254 
L 178.025891 99.150391 
L 178.095587 100.724942 
L 178.165283 100.100031 
L 178.234979 98.432889 
L 178.304675 98.722797 
L 178.374371 98.402298 
L 178.444067 97.174495 
L 178.513763 98.302536 
L 178.58346 97.671653 
L 178.862244 93.662661 
L 179.001636 90.965326 
L 179.071333 91.003534 
L 179.141029 90.196105 
L 179.210725 91.425998 
L 179.280421 91.007387 
L 179.350117 90.78298 
L 179.419813 91.373392 
L 179.628902 89.907612 
L 179.83799 91.312531 
L 179.907686 90.30646 
L 179.977382 91.073316 
L 180.047078 89.840372 
L 180.116774 91.053255 
L 180.186471 90.787857 
L 180.256167 89.830496 
L 180.325863 90.592452 
L 180.395559 87.935016 
L 180.465255 89.286804 
L 180.534951 89.697199 
L 180.674344 89.256346 
L 180.813736 90.186471 
L 180.953128 88.788035 
L 181.022824 89.420995 
L 181.09252 88.832161 
L 181.162216 89.733327 
L 181.301609 87.549703 
L 181.371305 87.579982 
L 181.650089 86.979388 
L 181.719785 87.502725 
L 181.789482 85.432822 
L 181.859178 86.031707 
L 181.99857 85.200376 
L 182.207658 85.700598 
L 182.277355 85.930606 
L 182.347051 85.81492 
L 182.416747 85.603562 
L 182.486443 84.96681 
L 182.625835 87.419997 
L 182.695531 87.056237 
L 182.765227 88.667942 
L 182.90462 86.651824 
L 182.974316 86.422979 
L 183.113708 87.577097 
L 183.322797 86.620337 
L 183.392493 86.728824 
L 183.601581 89.481382 
L 183.671277 89.380518 
L 183.740973 88.947367 
L 183.810669 89.297974 
L 183.880366 88.434485 
L 183.950062 88.792736 
L 184.089454 88.687961 
L 184.228846 88.31764 
L 184.437935 89.91599 
L 184.507631 89.638835 
L 184.716719 90.298169 
L 184.925808 89.135394 
L 185.0652 89.938787 
L 185.134896 89.067898 
L 185.204592 89.386455 
L 185.41368 91.180203 
L 185.483377 91.107236 
L 185.553073 91.286772 
L 185.762161 89.84529 
L 185.831857 89.249951 
L 185.901553 89.48964 
L 185.971249 91.433662 
L 186.040946 90.540781 
L 186.110642 91.129539 
L 186.31973 89.504249 
L 186.389426 89.529289 
L 186.459122 88.220293 
L 186.528819 88.596133 
L 186.598515 88.745864 
L 186.668211 90.14276 
L 186.737907 89.906326 
L 186.807603 90.194188 
L 186.877299 89.846897 
L 187.016691 90.864405 
L 187.156084 89.540103 
L 187.22578 90.004286 
L 187.504564 87.097325 
L 187.57426 87.353435 
L 187.643957 88.255889 
L 187.783349 86.534997 
L 187.853045 86.662481 
L 187.922741 87.416292 
L 187.992437 86.828399 
L 188.062133 88.278201 
L 188.271222 86.233321 
L 188.340918 86.242179 
L 188.550006 83.99645 
L 188.759095 84.693276 
L 188.828791 84.527673 
L 188.898487 84.507274 
L 188.968183 83.894681 
L 189.037879 84.026505 
L 189.107575 83.815411 
L 189.177271 84.894275 
L 189.246968 84.802297 
L 189.316664 84.104849 
L 189.456056 86.884007 
L 189.525752 86.369692 
L 189.595448 86.642085 
L 189.734841 88.285218 
L 189.804537 88.402093 
L 189.874233 88.85095 
L 189.943929 86.969603 
L 190.013625 88.098145 
L 190.153017 86.38509 
L 190.29241 87.078473 
L 190.431802 84.805668 
L 190.571194 85.85151 
L 190.64089 85.321579 
L 190.780283 85.969666 
L 190.849979 85.836521 
L 191.059067 87.615993 
L 191.268155 84.451003 
L 191.337852 85.369335 
L 191.407548 84.626945 
L 191.477244 84.634759 
L 191.54694 84.600748 
L 191.825724 81.751534 
L 191.895421 82.46287 
L 191.965117 82.229464 
L 192.034813 82.413453 
L 192.174205 83.836409 
L 192.313597 82.12833 
L 192.383294 83.884578 
L 192.45299 83.14307 
L 192.662078 84.497191 
L 192.731774 84.478953 
L 192.80147 83.378356 
L 192.871166 83.430392 
L 192.940863 83.086114 
L 193.149951 88.122742 
L 193.289343 85.68523 
L 193.359039 87.0475 
L 193.428735 86.865653 
L 193.498432 86.751288 
L 193.568128 86.316563 
L 194.056001 89.497001 
L 194.125697 89.388009 
L 194.265089 88.20694 
L 194.404481 88.564739 
L 194.543874 90.518259 
L 194.61357 90.034853 
L 194.892354 92.850201 
L 195.031746 92.229744 
L 195.101443 92.234452 
L 195.240835 91.352955 
L 195.310531 92.567927 
L 195.380227 91.885737 
L 195.449923 91.688665 
L 195.798404 88.640089 
L 195.8681 89.128574 
L 195.937796 90.724793 
L 196.007492 89.223997 
L 196.077188 89.967265 
L 196.146885 90.909831 
L 196.355973 88.133433 
L 196.425669 88.569521 
L 196.495365 88.344176 
L 196.565061 87.000507 
L 196.77415 89.920343 
L 197.052934 87.26874 
L 197.12263 88.22891 
L 197.192327 87.658538 
L 197.262023 86.993812 
L 197.471111 87.762427 
L 197.610503 86.705977 
L 197.680199 88.205807 
L 197.819592 85.995937 
L 197.889288 86.221376 
L 197.958984 87.624325 
L 198.02868 86.383334 
L 198.168072 87.208058 
L 198.307465 85.724911 
L 198.377161 85.668982 
L 198.516553 87.654258 
L 198.655945 86.392699 
L 198.93473 88.74268 
L 199.143818 91.323137 
L 199.28321 89.358556 
L 199.352907 91.218661 
L 199.422603 90.204175 
L 199.561995 89.145568 
L 199.910476 92.719376 
L 199.980172 92.680245 
L 200.049868 93.681187 
L 200.18926 91.836823 
L 200.258956 92.16854 
L 200.328652 91.619988 
L 200.398349 91.855977 
L 200.607437 90.802783 
L 200.677133 88.483155 
L 200.746829 88.869281 
L 200.816525 89.589983 
L 200.886221 88.699696 
L 201.025614 90.543031 
L 201.09531 89.333126 
L 201.234702 90.569018 
L 201.304398 90.373076 
L 201.374094 90.830752 
L 201.652879 86.850288 
L 202.00136 90.286513 
L 202.210448 91.528189 
L 202.419536 88.632905 
L 202.628625 91.066322 
L 202.698321 90.40877 
L 202.907409 89.674235 
L 202.977105 89.939446 
L 203.046802 88.943519 
L 203.116498 89.606339 
L 203.325586 87.530381 
L 203.464978 89.218543 
L 203.604371 88.919384 
L 203.743763 89.004477 
L 203.813459 87.78403 
L 203.883155 88.765789 
L 203.952851 88.53649 
L 204.022547 87.590794 
L 204.092244 88.387563 
L 204.16194 87.758714 
L 204.231636 88.866288 
L 204.301332 88.330482 
L 204.371028 88.183748 
L 204.580116 88.789532 
L 204.789205 85.594985 
L 204.928597 86.012936 
L 204.998293 85.461342 
L 205.137685 87.513974 
L 205.207382 86.723628 
L 205.277078 86.907439 
L 205.346774 86.780882 
L 205.41647 86.328254 
L 205.486166 84.894272 
L 205.555862 85.13466 
L 205.625558 86.084109 
L 205.695255 85.977685 
L 205.764951 83.657966 
L 205.834647 84.614922 
L 205.904343 84.607149 
L 205.974039 85.121301 
L 206.043735 84.762052 
L 206.113431 85.832571 
L 206.183127 85.10471 
L 206.32252 85.593956 
L 206.461912 84.912745 
L 206.671 86.813256 
L 206.810393 85.154972 
L 206.880089 84.930472 
L 206.949785 84.981715 
L 207.019481 86.500622 
L 207.089177 85.981481 
L 207.298266 87.815448 
L 207.437658 89.036808 
L 207.507354 89.124066 
L 207.646746 90.161408 
L 207.716442 89.749615 
L 207.995227 92.846264 
L 208.064923 92.587312 
L 208.274011 90.280355 
L 208.343707 91.398063 
L 208.413404 91.056142 
L 208.552796 91.900862 
L 208.83158 89.574093 
L 209.110365 92.39795 
L 209.180061 92.62159 
L 209.389149 91.58583 
L 209.458846 91.612918 
L 209.528542 94.413561 
L 209.598238 93.078864 
L 209.73763 92.091038 
L 209.807326 91.297725 
L 209.946718 93.953885 
L 210.086111 91.521683 
L 210.155807 92.098674 
L 210.225503 91.334812 
L 210.434591 92.636286 
L 210.504288 91.840679 
L 210.573984 92.038957 
L 210.64368 92.590628 
L 210.713376 92.417845 
L 210.783072 92.151543 
L 210.852768 92.426684 
L 211.061857 90.237338 
L 211.340641 93.836247 
L 211.410337 93.42151 
L 211.480033 93.055262 
L 211.619426 95.492902 
L 211.828514 91.557239 
L 211.89821 91.93683 
L 211.967906 91.271789 
L 212.176995 92.175848 
L 212.246691 92.074008 
L 212.455779 94.554776 
L 212.525475 93.112693 
L 212.80426 96.411083 
L 212.873956 95.045846 
L 212.943652 95.569675 
L 213.013348 96.51785 
L 213.083044 96.475623 
L 213.152741 96.501628 
L 213.222437 96.359582 
L 213.71031 99.637561 
L 213.780006 99.484808 
L 213.919398 96.874839 
L 214.05879 98.857307 
L 214.128486 99.027125 
L 214.198182 98.491938 
L 214.337575 99.13671 
L 214.407271 98.550647 
L 214.476967 98.935713 
L 214.546663 99.955269 
L 214.616359 99.718118 
L 214.686055 99.496041 
L 214.825448 100.829463 
L 215.034536 100.024434 
L 215.104232 100.048126 
L 215.173928 99.566741 
L 215.243624 101.187345 
L 215.313321 100.195602 
L 215.452713 102.910489 
L 215.522409 102.571679 
L 215.592105 102.617343 
L 215.661801 102.935274 
L 216.079978 96.633535 
L 216.149674 97.070383 
L 216.358763 98.241496 
L 216.498155 96.472287 
L 216.567851 97.817964 
L 216.637547 96.011523 
L 216.707243 96.207151 
L 216.776939 96.585352 
L 216.846635 95.862783 
L 217.055724 97.663222 
L 217.195116 97.042821 
L 217.264812 97.08896 
L 217.543597 94.43984 
L 217.613293 94.873381 
L 217.682989 93.411915 
L 217.752685 93.683166 
L 217.822381 93.702813 
L 217.892077 93.214403 
L 217.961774 94.349853 
L 218.03147 94.104104 
L 218.101166 94.006905 
L 218.170862 95.43595 
L 218.240558 94.842082 
L 218.310254 94.891953 
L 218.37995 93.424805 
L 218.449646 94.755657 
L 218.519343 93.568779 
L 218.658735 94.973442 
L 218.728431 94.165757 
L 218.798127 91.689103 
L 218.867823 91.927246 
L 219.076912 92.803019 
L 219.146608 92.577783 
L 219.355696 90.517891 
L 219.425392 91.286025 
L 219.495088 90.709178 
L 219.564785 91.229251 
L 219.704177 90.02406 
L 219.773873 91.052023 
L 219.843569 89.298468 
L 219.913265 89.731445 
L 219.982961 89.375225 
L 220.052657 90.116824 
L 220.122354 89.185075 
L 220.261746 91.36284 
L 220.470834 88.577423 
L 220.54053 89.843707 
L 220.610227 89.79998 
L 220.679923 88.547354 
L 220.749619 89.454884 
L 220.819315 87.648653 
L 220.889011 88.916352 
L 220.958707 87.529989 
L 221.098099 89.328711 
L 221.237492 86.803782 
L 221.376884 87.603255 
L 221.516276 89.899849 
L 221.585972 90.019755 
L 221.655668 89.071334 
L 221.795061 90.538875 
L 221.864757 90.485759 
L 222.073845 88.71218 
L 222.282934 89.407838 
L 222.35263 89.355347 
L 222.422326 88.868233 
L 222.492022 89.686976 
L 222.561718 89.295466 
L 222.770807 88.399799 
L 222.840503 88.446994 
L 222.910199 87.7844 
L 223.049591 91.561526 
L 223.119287 90.911813 
L 223.188983 90.882559 
L 223.328376 89.931089 
L 223.398072 91.224826 
L 223.537464 90.154209 
L 223.60716 90.933612 
L 223.676856 89.753695 
L 223.746552 89.806134 
L 223.816249 91.325139 
L 223.885945 90.639373 
L 223.955641 90.85051 
L 224.025337 90.299304 
L 224.164729 93.468119 
L 224.234425 92.837169 
L 224.304121 92.463616 
L 224.373818 91.387386 
L 224.51321 92.561648 
L 224.722298 90.062613 
L 225.001083 91.820874 
L 225.279867 89.857896 
L 225.349563 87.674178 
L 225.558652 92.392039 
L 225.628348 90.944884 
L 225.698044 91.68666 
L 225.76774 90.935967 
L 225.837436 91.325658 
L 225.907132 91.397725 
L 226.046525 90.1998 
L 226.255613 88.838503 
L 226.325309 90.292709 
L 226.395005 90.190302 
L 226.464702 88.787917 
L 226.604094 90.965198 
L 226.67379 90.750041 
L 226.743486 90.622245 
L 226.952574 92.257076 
L 227.301055 89.027625 
L 227.370751 89.138318 
L 227.440447 90.003092 
L 227.510143 88.176023 
L 227.57984 88.864078 
L 227.649536 89.517448 
L 227.719232 89.354841 
L 227.788928 88.772835 
L 227.858624 89.081585 
L 227.998016 89.617466 
L 228.067713 89.454399 
L 228.137409 89.120041 
L 228.207105 90.297267 
L 228.276801 88.464669 
L 228.346497 88.915749 
L 228.416193 89.006757 
L 228.485889 89.494739 
L 228.694978 88.303921 
L 228.764674 88.385975 
L 228.83437 88.836722 
L 228.904066 87.274177 
L 229.043458 89.861058 
L 229.252547 87.999327 
L 229.322243 87.926356 
L 229.391939 88.704445 
L 229.461635 88.223732 
L 229.531331 88.236401 
L 229.601027 89.847706 
L 229.670724 89.24046 
L 229.949508 90.821645 
L 230.019204 89.950648 
L 230.228293 92.082064 
L 230.297989 91.779005 
L 230.367685 90.652087 
L 230.646469 94.715201 
L 230.716166 93.55937 
L 230.785862 93.824235 
L 230.855558 93.914933 
L 230.925254 93.594286 
L 230.99495 94.111396 
L 231.134342 93.53914 
L 231.204038 94.881522 
L 231.273735 94.742509 
L 231.413127 94.531217 
L 231.691911 92.903149 
L 231.901 93.792989 
L 232.040392 92.097492 
L 232.110088 94.117796 
L 232.179784 93.592872 
L 232.319177 94.987695 
L 232.388873 94.64684 
L 232.458569 95.697755 
L 232.528265 95.458627 
L 232.667657 96.174791 
L 232.807049 97.061691 
L 232.876746 96.978548 
L 233.016138 96.31922 
L 233.364618 98.20857 
L 233.504011 98.137087 
L 233.573707 97.685619 
L 233.643403 98.358477 
L 233.782795 97.045864 
L 233.852491 97.109521 
L 233.991884 97.762482 
L 234.06158 97.879555 
L 234.131276 97.797683 
L 234.200972 97.264951 
L 234.270668 94.715331 
L 234.340364 95.632284 
L 234.41006 93.812306 
L 234.479757 95.069775 
L 234.549453 93.137857 
L 234.619149 94.175262 
L 234.828237 91.664713 
L 234.897933 92.164983 
L 234.967629 92.001422 
L 235.176718 95.807223 
L 235.246414 95.893658 
L 235.525199 92.523172 
L 235.594895 91.918369 
L 235.664591 91.970774 
L 235.803983 92.724234 
L 235.943375 90.83713 
L 236.013071 91.405121 
L 236.22216 89.480432 
L 236.291856 90.035627 
L 236.431248 88.053584 
L 236.500944 88.656407 
L 236.57064 88.352216 
L 236.640337 88.888736 
L 236.710033 88.713777 
L 236.779729 88.023792 
L 236.849425 88.343772 
L 236.919121 88.239026 
L 237.058513 88.826479 
L 237.267602 86.19753 
L 237.337298 86.102927 
L 237.47669 86.835982 
L 237.685779 89.689066 
L 237.755475 88.427916 
L 237.894867 89.51585 
L 237.964563 88.842173 
L 238.034259 89.006035 
L 238.103955 88.863719 
L 238.243348 88.397069 
L 238.38274 85.41198 
L 238.452436 85.679216 
L 238.522132 85.011108 
L 238.591828 85.025121 
L 238.661524 85.097939 
L 238.731221 84.096492 
L 238.940309 86.283507 
L 239.079701 84.806209 
L 239.149397 84.644417 
L 239.219093 84.676278 
L 239.358486 86.542491 
L 239.428182 86.18858 
L 239.497878 85.447291 
L 239.567574 88.9228 
L 239.63727 88.655435 
L 239.706966 89.346696 
L 239.776663 89.076427 
L 239.846359 88.751721 
L 240.055447 90.235747 
L 240.125143 89.696429 
L 240.194839 89.72002 
L 240.264535 90.067209 
L 240.334232 88.485715 
L 240.403928 88.905365 
L 240.752408 91.20504 
L 240.891801 89.891025 
L 241.031193 91.082419 
L 241.100889 90.175133 
L 241.170585 90.245498 
L 241.240281 89.98611 
L 241.309977 90.134416 
L 241.519066 91.106121 
L 241.588762 90.816373 
L 241.658458 91.611834 
L 241.937243 89.511783 
L 242.146331 92.44759 
L 242.216027 92.036463 
L 242.425115 93.539529 
L 242.494812 93.455548 
L 242.564508 94.070558 
L 242.843292 91.352148 
L 243.052381 89.571224 
L 243.122077 90.149246 
L 243.400861 87.121642 
L 243.540254 89.175026 
L 243.60995 88.710926 
L 243.749342 87.89796 
L 243.819038 87.987994 
L 244.028127 89.829533 
L 244.097823 89.376901 
L 244.167519 87.971992 
L 244.237215 88.504429 
L 244.306911 88.473276 
L 244.446303 87.444955 
L 244.515999 88.103707 
L 244.585696 86.597886 
L 244.655392 87.472947 
L 244.794784 86.367282 
L 245.143265 88.801591 
L 245.212961 88.278836 
L 245.282657 89.170837 
L 245.352353 88.532173 
L 245.561441 89.169788 
L 245.631138 88.491709 
L 245.700834 89.170665 
L 245.77053 89.107588 
L 245.840226 88.678514 
L 245.909922 87.277061 
L 245.979618 89.0499 
L 246.049314 88.534945 
L 246.11901 89.159638 
L 246.188707 88.043131 
L 246.258403 88.209097 
L 246.328099 88.381523 
L 246.467491 89.084831 
L 246.676579 87.370471 
L 246.746276 87.563695 
L 247.094756 89.192301 
L 247.164452 89.207721 
L 247.303845 90.610415 
L 247.373541 88.842145 
L 247.443237 89.390256 
L 247.652325 88.174083 
L 247.722021 89.45859 
L 247.791718 88.942376 
L 247.861414 88.828694 
L 248.140198 86.154567 
L 248.209894 86.530787 
L 248.349287 85.525082 
L 248.488679 86.69984 
L 248.558375 87.00289 
L 248.697767 85.457813 
L 248.767463 86.838978 
L 248.83716 85.49947 
L 248.906856 88.023753 
L 248.976552 86.976087 
L 249.18564 85.363479 
L 249.325032 85.266078 
L 249.394729 85.622066 
L 249.464425 84.992424 
L 249.882601 89.155004 
L 249.952298 86.633204 
L 250.021994 88.067714 
L 250.370474 84.591735 
L 250.579563 83.96698 
L 250.649259 83.229607 
L 250.718955 83.642538 
L 250.788651 84.252652 
L 250.858347 83.891638 
L 250.99774 83.361642 
L 251.206828 84.20938 
L 251.276524 83.818892 
L 251.415916 87.486793 
L 251.485613 87.068584 
L 251.555309 87.390115 
L 251.903789 84.333935 
L 251.973485 84.884593 
L 252.043182 86.328669 
L 252.112878 85.687934 
L 252.321966 85.241637 
L 252.391662 84.752024 
L 252.600751 85.799424 
L 252.740143 84.142642 
L 252.809839 85.377342 
L 252.879535 84.665502 
L 252.949231 84.979826 
L 253.018927 86.519735 
L 253.088624 85.379987 
L 253.228016 86.433282 
L 253.297712 86.558688 
L 253.437104 87.715589 
L 253.5068 86.500217 
L 253.646193 89.809567 
L 253.715889 89.428605 
L 253.785585 89.651681 
L 253.855281 90.285227 
L 254.203762 96.213605 
L 254.273458 97.145137 
L 254.343154 97.023347 
L 254.41285 96.496782 
L 254.482546 96.559172 
L 254.552242 96.518548 
L 254.691635 97.187236 
L 254.831027 95.672642 
L 254.900723 95.974407 
L 254.970419 96.319692 
L 255.040115 95.654814 
L 255.179507 97.351377 
L 255.249204 97.001307 
L 255.388596 95.831331 
L 255.458292 96.380638 
L 255.66738 94.721205 
L 255.806773 96.646571 
L 255.876469 97.326685 
L 255.946165 97.218923 
L 256.085557 95.524087 
L 256.155253 95.62255 
L 256.224949 95.998318 
L 256.294646 93.907059 
L 256.364342 94.545971 
L 256.57343 92.871517 
L 256.712822 93.933439 
L 256.782518 93.639425 
L 256.852215 93.48069 
L 256.921911 93.011661 
L 256.991607 90.643943 
L 257.061303 90.733959 
L 257.130999 90.347101 
L 257.200695 91.377126 
L 257.270391 90.55946 
L 257.340088 91.274088 
L 257.409784 91.20476 
L 257.549176 91.574223 
L 257.758264 94.972749 
L 257.82796 94.572949 
L 257.897657 94.808098 
L 258.106745 91.349538 
L 258.176441 91.364746 
L 258.246137 91.149868 
L 258.315833 90.032439 
L 258.385529 90.713966 
L 258.455226 90.664317 
L 258.524922 90.064512 
L 258.594618 90.639202 
L 258.73401 89.999459 
L 258.803706 90.195776 
L 258.873402 89.231071 
L 259.082491 91.233274 
L 259.152187 90.889966 
L 259.221883 89.199231 
L 259.291579 89.734218 
L 259.570364 91.914051 
L 259.64006 90.670828 
L 259.709756 91.738785 
L 259.779452 91.244868 
L 259.849148 91.554429 
L 259.918844 91.29523 
L 259.98854 91.978867 
L 260.127933 91.178208 
L 260.197629 91.404934 
L 260.267325 90.338128 
L 260.337021 90.49144 
L 260.406717 89.951695 
L 260.476413 90.745998 
L 260.685502 87.860413 
L 260.89459 91.094987 
L 261.103679 93.189985 
L 261.173375 92.315672 
L 261.243071 94.143401 
L 261.312767 93.829074 
L 261.521855 93.05806 
L 261.591551 94.543193 
L 261.661248 93.993338 
L 261.730944 94.503131 
L 261.80064 94.127663 
L 261.870336 94.499765 
L 261.940032 94.421182 
L 262.009728 94.146796 
L 262.218817 91.43677 
L 262.288513 92.089245 
L 262.358209 91.984369 
L 262.567297 90.559386 
L 262.636993 91.82265 
L 262.70669 90.64305 
L 262.776386 91.382218 
L 262.846082 91.1878 
L 262.915778 90.733073 
L 262.985474 91.29662 
L 263.124866 89.351236 
L 263.194562 89.531627 
L 263.264259 89.396434 
L 263.333955 88.659706 
L 263.543043 91.285081 
L 263.752132 91.909489 
L 263.891524 90.851308 
L 263.96122 92.075612 
L 264.030916 91.647367 
L 264.100612 91.153579 
L 264.309701 93.754748 
L 264.379397 93.383862 
L 264.449093 94.311246 
L 264.518789 94.244146 
L 264.588485 94.676658 
L 264.658181 96.321802 
L 264.727877 95.009778 
L 264.86727 96.080044 
L 265.006662 94.327777 
L 265.076358 94.37679 
L 265.21575 92.956289 
L 265.424839 95.302463 
L 265.564231 93.690133 
L 265.703623 96.724227 
L 265.773319 95.535244 
L 265.843015 95.887486 
L 265.912712 95.302504 
L 266.052104 96.532769 
L 266.1218 94.993141 
L 266.191496 95.219966 
L 266.330888 96.111051 
L 266.470281 95.98299 
L 266.609673 97.782544 
L 266.679369 97.117177 
L 266.749065 96.664392 
L 266.749065 96.664392 
" clip-path="url(#pa7fe7712e2)" style="fill: none; stroke: #1f77b4; stroke-width: 1.5; stroke-linecap: square"/>
   </g>
   <g id="line2d_16">
    <path d="M 169.522963 174.324703 
L 169.522963 25.353876 
" clip-path="url(#pa7fe7712e2)" style="fill: none; stroke-dasharray: 5.55,2.4; stroke-dashoffset: 0; stroke: #ff0000; stroke-opacity: 0.3; stroke-width: 1.5"/>
   </g>
   <g id="patch_3">
    <path d="M 47.279434 174.324703 
L 47.279434 25.353876 
" style="fill: none; stroke: #000000; stroke-width: 0.8; stroke-linejoin: miter; stroke-linecap: square"/>
   </g>
   <g id="patch_4">
    <path d="M 277.2 174.324703 
L 277.2 25.353876 
" style="fill: none; stroke: #000000; stroke-width: 0.8; stroke-linejoin: miter; stroke-linecap: square"/>
   </g>
   <g id="patch_5">
    <path d="M 47.279434 174.324703 
L 277.2 174.324703 
" style="fill: none; stroke: #000000; stroke-width: 0.8; stroke-linejoin: miter; stroke-linecap: square"/>
   </g>
   <g id="patch_6">
    <path d="M 47.279434 25.353876 
L 277.2 25.353876 
" style="fill: none; stroke: #000000; stroke-width: 0.8; stroke-linejoin: miter; stroke-linecap: square"/>
   </g>
   <g id="text_17">
    <!-- $t=1000$, $\epsilon_T=1.00$, flat prior -->
    <g transform="translate(85.631551 19.353876) scale(0.12 -0.12)">
     <defs>
      <path id="CMR10-3d" d="M 4397 2048 
C 4493 2048 4614 2048 4614 2177 
C 4614 2305 4493 2305 4403 2305 
L 570 2305 
C 480 2305 358 2305 358 2177 
C 358 2048 480 2048 576 2048 
L 4397 2048 
z
M 4403 832 
C 4493 832 4614 832 4614 961 
C 4614 1089 4493 1089 4397 1089 
L 576 1089 
C 480 1089 358 1089 358 961 
C 358 832 480 832 570 832 
L 4403 832 
z
" transform="scale(0.015625)"/>
      <path id="URWPalladioL-Roma-2c" d="M 1306 789 
C 1133 731 1018 693 678 596 
C 634 109 474 -308 102 -923 
L 192 -994 
L 454 -872 
C 973 -199 1216 205 1395 699 
L 1306 789 
z
" transform="scale(0.015625)"/>
      <path id="PazoMath-Italic-65" d="M 2483 707 
L 2330 599 
C 1990 357 1683 250 1453 250 
C 1165 250 762 554 672 960 
C 659 1023 659 1094 659 1163 
C 659 1240 666 1322 678 1398 
C 838 1417 1146 1417 1190 1417 
C 1498 1417 1888 1417 2086 1411 
L 2125 1449 
L 2214 1673 
C 1741 1660 1664 1660 1421 1660 
C 1376 1660 960 1667 723 1667 
C 781 1983 902 2326 1178 2564 
C 1357 2719 1581 2803 1805 2803 
C 2016 2803 2227 2758 2355 2603 
C 2400 2558 2470 2448 2522 2351 
L 2643 2364 
L 2906 2700 
C 2707 2938 2406 3085 2067 3085 
C 1651 3085 1235 2925 890 2630 
C 480 2291 211 1818 128 1331 
C 109 1216 96 1101 96 992 
C 96 717 173 454 339 250 
C 538 6 883 -70 1222 -70 
C 1600 -70 1933 114 2534 586 
L 2483 707 
z
" transform="scale(0.015625)"/>
      <path id="URWPalladioL-Ital-54" d="M 2496 4136 
L 2963 4136 
C 3462 4136 3693 4104 3712 4028 
C 3731 3977 3744 3855 3738 3791 
L 3712 3383 
L 3891 3383 
L 4064 4416 
L 3482 4416 
C 2918 4416 2483 4416 2259 4416 
C 2022 4416 1613 4416 1062 4416 
L 454 4416 
L 339 3383 
L 525 3383 
L 621 3766 
C 653 3907 698 4009 736 4053 
C 774 4098 1018 4136 1254 4136 
L 1971 4136 
L 1421 801 
C 1318 218 1306 199 1050 179 
L 723 179 
L 698 0 
L 1062 0 
C 1318 0 1504 0 1606 0 
C 1728 0 1926 0 2176 0 
L 2458 0 
L 2477 179 
L 2099 179 
C 1933 179 1869 230 1869 365 
C 1869 423 1875 468 1894 590 
L 2496 4136 
z
" transform="scale(0.015625)"/>
      <path id="URWPalladioL-Roma-2e" d="M 794 744 
C 602 744 429 564 429 372 
C 429 179 602 0 787 0 
C 992 0 1171 173 1171 372 
C 1171 564 992 744 794 744 
z
" transform="scale(0.015625)"/>
      <path id="URWPalladioL-Roma-3" d="M 2278 4242 
L 2547 4242 
C 2650 4242 2707 4120 2707 3888 
L 2707 649 
C 2707 244 2688 199 2470 199 
L 2176 199 
L 2176 0 
C 2816 0 2816 0 2976 0 
C 3136 0 3136 0 3776 0 
L 3776 199 
L 3482 199 
C 3264 199 3245 244 3245 649 
L 3245 4595 
L 3187 4659 
C 2918 4562 2707 4511 2278 4422 
L 2278 4601 
C 2208 4614 2202 4620 2138 4633 
C 2003 4659 1946 4672 1882 4672 
C 1683 4672 1459 4563 1318 4404 
L 947 3985 
C 762 3775 678 3490 678 3070 
L 678 2803 
L 237 2604 
L 237 2476 
L 678 2476 
L 678 651 
C 678 244 659 199 442 199 
L 147 199 
L 147 0 
C 787 0 787 0 954 0 
C 1107 0 1286 0 1786 0 
L 1786 199 
L 1453 199 
C 1235 199 1216 245 1216 653 
L 1216 2489 
L 2010 2489 
L 2054 2816 
L 1216 2816 
L 1216 3348 
C 1216 4067 1299 4242 1658 4242 
C 1824 4242 1946 4199 2138 4071 
L 2278 4109 
L 2278 4242 
z
" transform="scale(0.015625)"/>
      <path id="URWPalladioL-Roma-61" d="M 2074 538 
L 2042 -1 
C 2458 -1 2458 -1 2541 -1 
C 2573 -1 2733 -1 3014 -1 
L 3014 192 
L 2765 192 
C 2611 192 2586 244 2586 558 
L 2586 1731 
C 2586 2668 2317 3008 1574 3008 
C 1299 3008 1043 2937 800 2791 
L 461 2585 
L 461 2171 
L 627 2126 
L 710 2323 
C 845 2623 909 2668 1203 2668 
C 1805 2668 2054 2431 2074 1852 
L 1440 1736 
C 570 1577 205 1277 205 722 
C 205 224 506 -64 1011 -64 
C 1126 -64 1235 -45 1280 -13 
L 2074 538 
z
M 2074 806 
C 1888 544 1485 302 1235 302 
C 979 302 755 538 755 812 
C 755 1048 883 1271 1075 1392 
C 1235 1488 1587 1577 2074 1648 
L 2074 806 
z
" transform="scale(0.015625)"/>
      <path id="URWPalladioL-Roma-74" d="M 627 2476 
L 627 619 
C 627 142 838 -64 1331 -64 
C 1478 -64 1632 -32 1670 13 
L 1978 353 
L 1894 463 
C 1734 372 1638 340 1517 340 
C 1267 340 1165 470 1165 788 
L 1165 2489 
L 1984 2489 
L 2042 2816 
L 1165 2816 
L 1165 3056 
C 1165 3321 1184 3547 1235 3951 
L 1158 4021 
C 1005 3925 813 3842 614 3778 
C 634 3585 640 3463 640 3271 
L 640 2822 
L 141 2598 
L 141 2476 
L 627 2476 
z
" transform="scale(0.015625)"/>
      <path id="URWPalladioL-Roma-70" d="M 64 2565 
L 301 2565 
C 557 2565 582 2520 582 2095 
L 582 -1142 
C 582 -1548 563 -1593 346 -1593 
L 51 -1593 
L 51 -1792 
C 691 -1792 691 -1792 851 -1792 
C 1011 -1792 1011 -1792 1651 -1792 
L 1651 -1593 
L 1357 -1593 
C 1139 -1593 1120 -1547 1120 -1138 
L 1120 89 
C 1312 -26 1517 -71 1805 -71 
C 1990 -71 2157 -32 2259 32 
L 2989 505 
C 3245 672 3546 1330 3546 1740 
C 3546 2451 2957 3008 2214 3008 
C 1978 3008 1747 2943 1645 2847 
L 1120 2367 
L 1120 2982 
L 1062 3008 
C 736 2873 403 2783 64 2745 
L 64 2565 
z
M 1120 1964 
C 1120 2053 1152 2124 1235 2233 
C 1421 2469 1683 2591 2003 2591 
C 2605 2591 2989 2169 2989 1504 
C 2989 787 2560 256 1984 256 
C 1632 256 1370 372 1120 633 
L 1120 1964 
z
" transform="scale(0.015625)"/>
      <path id="URWPalladioL-Roma-72" d="M 147 2565 
L 384 2565 
C 640 2565 666 2520 666 2094 
L 666 643 
C 666 237 646 192 429 192 
L 134 192 
L 134 -7 
C 595 -7 762 -7 922 -7 
C 1050 -7 1050 -7 1837 -7 
L 1837 192 
L 1504 192 
C 1216 192 1203 211 1203 638 
L 1203 1751 
C 1203 2139 1459 2463 1773 2463 
C 1965 2463 2099 2373 2202 2169 
L 2336 2169 
L 2394 2937 
C 2323 2982 2208 3008 2093 3008 
C 1901 3008 1696 2905 1562 2745 
L 1203 2322 
L 1203 2982 
L 1146 3008 
C 819 2873 486 2783 147 2745 
L 147 2565 
z
" transform="scale(0.015625)"/>
      <path id="URWPalladioL-Roma-69" d="M 1203 2993 
L 1146 3019 
C 819 2884 486 2793 147 2755 
L 147 2576 
L 384 2576 
C 640 2576 666 2531 666 2105 
L 666 651 
C 666 244 646 199 429 199 
L 134 199 
L 134 0 
C 774 0 774 0 934 0 
C 1094 0 1094 0 1734 0 
L 1734 199 
L 1440 199 
C 1222 199 1203 244 1203 651 
L 1203 2993 
z
M 909 4416 
C 717 4416 550 4249 550 4056 
C 550 3870 717 3704 902 3704 
C 1088 3704 1261 3870 1261 4056 
C 1261 4236 1088 4416 909 4416 
z
" transform="scale(0.015625)"/>
      <path id="URWPalladioL-Roma-6f" d="M 1786 3008 
C 851 3008 205 2347 205 1392 
C 205 487 774 -128 1600 -128 
C 2586 -128 3290 558 3290 1520 
C 3290 2386 2662 3008 1786 3008 
z
M 1670 2796 
C 2259 2796 2694 2155 2694 1283 
C 2694 545 2368 83 1850 83 
C 1222 83 800 699 800 1610 
C 800 2379 1107 2796 1670 2796 
z
" transform="scale(0.015625)"/>
     </defs>
     <use xlink:href="#URWPalladioL-Ital-74" transform="scale(0.996264)"/>
     <use xlink:href="#CMR10-3d" transform="translate(63.339214 0) scale(1.038107)"/>
     <use xlink:href="#URWPalladioL-Roma-31" transform="translate(172.954843 0) scale(0.996264)"/>
     <use xlink:href="#URWPalladioL-Roma-30" transform="translate(222.768044 0) scale(0.996264)"/>
     <use xlink:href="#URWPalladioL-Roma-30" transform="translate(272.581244 0) scale(0.996264)"/>
     <use xlink:href="#URWPalladioL-Roma-30" transform="translate(322.394445 0) scale(0.996264)"/>
     <use xlink:href="#URWPalladioL-Roma-2c" transform="translate(372.207645 0) scale(0.996264)"/>
     <use xlink:href="#PazoMath-Italic-65" transform="translate(423.266146 0) scale(0.996264)"/>
     <use xlink:href="#URWPalladioL-Ital-54" transform="translate(471.870865 -18.085743) scale(0.757155)"/>
     <use xlink:href="#CMR10-3d" transform="translate(550.313309 0) scale(1.038107)"/>
     <use xlink:href="#URWPalladioL-Roma-31" transform="translate(659.928938 0) scale(0.996264)"/>
     <use xlink:href="#URWPalladioL-Roma-2e" transform="translate(709.742138 0) scale(0.996264)"/>
     <use xlink:href="#URWPalladioL-Roma-30" transform="translate(734.648738 0) scale(0.996264)"/>
     <use xlink:href="#URWPalladioL-Roma-30" transform="translate(784.461939 0) scale(0.996264)"/>
     <use xlink:href="#URWPalladioL-Roma-2c" transform="translate(834.275139 0) scale(0.996264)"/>
     <use xlink:href="#URWPalladioL-Roma-3" transform="translate(884.08834 0) scale(0.996264)"/>
     <use xlink:href="#URWPalladioL-Roma-61" transform="translate(944.660784 0) scale(0.996264)"/>
     <use xlink:href="#URWPalladioL-Roma-74" transform="translate(994.473985 0) scale(0.996264)"/>
     <use xlink:href="#URWPalladioL-Roma-70" transform="translate(1051.857673 0) scale(0.996264)"/>
     <use xlink:href="#URWPalladioL-Roma-72" transform="translate(1111.732067 0) scale(0.996264)"/>
     <use xlink:href="#URWPalladioL-Roma-69" transform="translate(1151.083963 0) scale(0.996264)"/>
     <use xlink:href="#URWPalladioL-Roma-6f" transform="translate(1180.074325 0) scale(0.996264)"/>
     <use xlink:href="#URWPalladioL-Roma-72" transform="translate(1234.469905 0) scale(0.996264)"/>
    </g>
   </g>
   <g id="legend_1">
    <g id="patch_7">
     <path d="M 228.955188 48.291524 
L 270.2 48.291524 
Q 272.2 48.291524 272.2 46.291524 
L 272.2 32.353876 
Q 272.2 30.353876 270.2 30.353876 
L 228.955188 30.353876 
Q 226.955188 30.353876 226.955188 32.353876 
L 226.955188 46.291524 
Q 226.955188 48.291524 228.955188 48.291524 
z
" style="fill: #ffffff; opacity: 0.8; stroke: #cccccc; stroke-linejoin: miter"/>
    </g>
    <g id="line2d_17">
     <path d="M 230.955188 37.982113 
L 240.955188 37.982113 
L 250.955188 37.982113 
" style="fill: none; stroke-dasharray: 5.55,2.4; stroke-dashoffset: 0; stroke: #ff0000; stroke-opacity: 0.3; stroke-width: 1.5"/>
    </g>
    <g id="text_18">
     <!-- $x^*$ -->
     <g transform="translate(258.955188 41.482113) scale(0.1 -0.1)">
      <defs>
       <path id="CMSY10-3" d="M 1760 2719 
C 1766 2808 1766 2962 1600 2962 
C 1498 2962 1414 2879 1434 2795 
L 1434 2712 
L 1523 1720 
L 704 2316 
C 646 2348 634 2360 589 2360 
C 499 2360 416 2271 416 2181 
C 416 2079 480 2053 544 2021 
L 1453 1586 
L 570 1158 
C 467 1107 416 1081 416 985 
C 416 889 499 806 589 806 
C 634 806 646 806 806 928 
L 1523 1446 
L 1427 371 
C 1427 236 1542 204 1594 204 
C 1670 204 1766 248 1766 371 
L 1670 1446 
L 2490 851 
C 2547 819 2560 806 2605 806 
C 2694 806 2778 896 2778 985 
C 2778 1081 2720 1113 2643 1152 
C 2259 1343 2246 1343 1741 1580 
L 2624 2008 
C 2726 2060 2778 2085 2778 2181 
C 2778 2277 2694 2360 2605 2360 
C 2560 2360 2547 2360 2387 2239 
L 1670 1720 
L 1760 2719 
z
" transform="scale(0.015625)"/>
      </defs>
      <use xlink:href="#URWPalladioL-Ital-78" transform="scale(0.996264)"/>
      <use xlink:href="#CMSY10-3" transform="translate(53.000254 36.164371) scale(0.788955)"/>
     </g>
    </g>
   </g>
  </g>
 </g>
 <defs>
  <clipPath id="pa7fe7712e2">
   <rect x="47.279434" y="25.353876" width="229.920566" height="148.970828"/>
  </clipPath>
 </defs>
</svg>
