<?xml version="1.0" encoding="utf-8"?>
<!DOCTYPE svg PUBLIC "-//W3C//DTD SVG 1.1//EN" "http://www.w3.org/Graphics/SVG/1.1/DTD/svg11.dtd">
<svg version="1.1" id="Layer_1" xmlns="http://www.w3.org/2000/svg" xmlns:xlink="http://www.w3.org/1999/xlink" x="0px" y="0px"
	 width="288px" height="288px" viewBox="0 0 288 288" enable-background="new 0 0 288 288" xml:space="preserve">
<rect x="81" y="9" stroke="#000000" width="18" height="18"/>
<rect x="117" y="9" fill="#FFFFFF" stroke="#000000" width="18" height="18"/>
<rect x="81" y="45" fill="#FFFFFF" stroke="#000000" width="18" height="18"/>
<rect x="117" y="45" fill="#FFFFFF" stroke="#000000" width="18" height="18"/>
<rect x="153" y="9" fill="#FFFFFF" stroke="#000000" width="18" height="18"/>
<rect x="189" y="9" fill="#FFFFFF" stroke="#000000" width="18" height="18"/>
<rect x="153" y="45" fill="#FFFFFF" stroke="#000000" width="18" height="18"/>
<rect x="189" y="45" fill="#FFFFFF" stroke="#000000" width="18" height="18"/>
<rect x="225" y="9" fill="#FFFFFF" stroke="#000000" width="18" height="18"/>
<rect x="261" y="9" fill="#FFFFFF" stroke="#000000" width="18" height="18"/>
<rect x="225" y="45" fill="#FFFFFF" stroke="#000000" width="18" height="18"/>
<rect x="261" y="45" fill="#FFFFFF" stroke="#000000" width="18" height="18"/>
<rect x="9" y="9" fill="#FFFFFF" stroke="#000000" width="18" height="18"/>
<rect x="45" y="9" fill="#FFFFFF" stroke="#000000" width="18" height="18"/>
<rect x="9" y="45" fill="#FFFFFF" stroke="#000000" width="18" height="18"/>
<rect x="45" y="45" fill="#FFFFFF" stroke="#000000" width="18" height="18"/>
<rect x="81" y="81" fill="#FFFFFF" stroke="#000000" width="18" height="18"/>
<rect x="117" y="81" fill="#FFFFFF" stroke="#000000" width="18" height="18"/>
<rect x="81" y="117" fill="#FFFFFF" stroke="#000000" width="18" height="18"/>
<rect x="117" y="117" fill="#FFFFFF" stroke="#000000" width="18" height="18"/>
<rect x="152.999" y="81.001" fill="#FFFFFF" stroke="#000000" width="18" height="18"/>
<rect x="188.999" y="81.001" fill="#FFFFFF" stroke="#000000" width="18" height="18"/>
<rect x="152.999" y="117.001" fill="#FFFFFF" stroke="#000000" width="18" height="18"/>
<rect x="188.999" y="117.001" fill="#FFFFFF" stroke="#000000" width="18" height="18"/>
<rect x="224.999" y="81.001" fill="#FFFFFF" stroke="#000000" width="18" height="18"/>
<rect x="261" y="81.001" stroke="#000000" width="18" height="18"/>
<rect x="224.999" y="117.001" fill="#FFFFFF" stroke="#000000" width="18" height="18"/>
<rect x="261" y="117.001" fill="#FFFFFF" stroke="#000000" width="18" height="18"/>
<rect x="9" y="81" fill="#FFFFFF" stroke="#000000" width="18" height="18"/>
<rect x="45" y="81" fill="#FFFFFF" stroke="#000000" width="18" height="18"/>
<rect x="9" y="117" fill="#FFFFFF" stroke="#000000" width="18" height="18"/>
<rect x="45" y="117" fill="#FFFFFF" stroke="#000000" width="18" height="18"/>
<rect x="81" y="153" fill="#FFFFFF" stroke="#000000" width="18" height="18"/>
<rect x="117" y="153" fill="#FFFFFF" stroke="#000000" width="18" height="18"/>
<rect x="81" y="189" fill="#FFFFFF" stroke="#000000" width="18" height="18"/>
<rect x="117" y="189" fill="#FFFFFF" stroke="#000000" width="18" height="18"/>
<rect x="152.999" y="153.001" fill="#FFFFFF" stroke="#000000" width="18" height="18"/>
<rect x="188.999" y="153.001" fill="#FFFFFF" stroke="#000000" width="18" height="18"/>
<rect x="152.999" y="189.001" stroke="#000000" width="18" height="18"/>
<rect x="188.999" y="189.001" stroke="#000000" width="18" height="18"/>
<rect x="224.999" y="153.001" fill="#FFFFFF" stroke="#000000" width="18" height="18"/>
<rect x="261" y="153.001" fill="#FFFFFF" stroke="#000000" width="18" height="18"/>
<rect x="224.999" y="189.001" stroke="#000000" width="18" height="18"/>
<rect x="261" y="189.001" stroke="#000000" width="18" height="18"/>
<rect x="9" y="153" stroke="#000000" width="18" height="18"/>
<rect x="45" y="153" fill="#FFFFFF" stroke="#000000" width="18" height="18"/>
<rect x="9" y="189" fill="#FFFFFF" stroke="#000000" width="18" height="18"/>
<rect x="45" y="189" stroke="#000000" width="18" height="18"/>
<rect x="81" y="225" fill="#FFFFFF" stroke="#000000" width="18" height="18"/>
<rect x="117" y="225" fill="#FFFFFF" stroke="#000000" width="18" height="18"/>
<rect x="81" y="261" fill="#FFFFFF" stroke="#000000" width="18" height="18"/>
<rect x="117" y="261" fill="#FFFFFF" stroke="#000000" width="18" height="18"/>
<rect x="152.999" y="225" stroke="#000000" width="18" height="18"/>
<rect x="188.999" y="225" stroke="#000000" width="18" height="18"/>
<rect x="152.999" y="261" fill="#FFFFFF" stroke="#000000" width="18" height="18"/>
<rect x="188.999" y="261" fill="#FFFFFF" stroke="#000000" width="18" height="18"/>
<rect x="224.999" y="225" stroke="#000000" width="18" height="18"/>
<rect x="261" y="225" stroke="#000000" width="18" height="18"/>
<rect x="224.999" y="261" fill="#FFFFFF" stroke="#000000" width="18" height="18"/>
<rect x="261" y="261" fill="#FFFFFF" stroke="#000000" width="18" height="18"/>
<rect x="9" y="225" fill="#FFFFFF" stroke="#000000" width="18" height="18"/>
<rect x="45" y="225" fill="#FFFFFF" stroke="#000000" width="18" height="18"/>
<rect x="9" y="261" fill="#FFFFFF" stroke="#000000" width="18" height="18"/>
<rect x="45" y="261" fill="#FFFFFF" stroke="#000000" width="18" height="18"/>
<line fill="none" stroke="#0000FF" stroke-width="2" x1="0" y1="72" x2="288" y2="72"/>
<line fill="none" stroke="#0000FF" stroke-width="2" x1="0" y1="144" x2="288" y2="144"/>
<line fill="none" stroke="#0000FF" stroke-width="2" x1="0" y1="216" x2="288" y2="216"/>
<line fill="none" stroke="#0000FF" stroke-width="2" x1="72" y1="0" x2="72" y2="288"/>
<line fill="none" stroke="#0000FF" stroke-width="2" x1="144" y1="0" x2="144" y2="288"/>
<line fill="none" stroke="#0000FF" stroke-width="2" x1="216" y1="0" x2="216" y2="288"/>
<line fill="none" stroke="#FF0000" stroke-dasharray="4" x1="0" y1="36" x2="288" y2="36"/>
<line fill="none" stroke="#FF0000" stroke-dasharray="4" x1="0" y1="108" x2="288" y2="108"/>
<line fill="none" stroke="#FF0000" stroke-dasharray="4" x1="0" y1="180" x2="288" y2="180"/>
<line fill="none" stroke="#FF0000" stroke-dasharray="4" x1="0" y1="252" x2="288" y2="252"/>
<line fill="none" stroke="#FF0000" stroke-dasharray="4" x1="36" y1="0" x2="36" y2="288"/>
<line fill="none" stroke="#FF0000" stroke-dasharray="4" x1="108" y1="0" x2="108" y2="288"/>
<line fill="none" stroke="#FF0000" stroke-dasharray="4" x1="180" y1="0" x2="180" y2="288"/>
<line fill="none" stroke="#FF0000" stroke-dasharray="4" x1="252" y1="0" x2="252" y2="288"/>
</svg>
